<svg xmlns="http://www.w3.org/2000/svg" xmlns:xlink="http://www.w3.org/1999/xlink" width="300" zoomAndPan="magnify" viewBox="0 0 224.87999 74.999997" height="100" preserveAspectRatio="xMidYMid meet" version="1.2"><defs><clipPath id="7ecbd8f289"><path d="M 7.496094 27.214844 L 30.734375 27.214844 L 30.734375 48.953125 L 7.496094 48.953125 Z M 7.496094 27.214844 "/></clipPath><clipPath id="f18c912d44"><path d="M 23.738281 27.214844 L 46.976562 27.214844 L 46.976562 48.953125 L 23.738281 48.953125 Z M 23.738281 27.214844 "/></clipPath><clipPath id="696e6c3ad9"><path d="M 24.167969 28.207031 L 46.65625 28.207031 L 46.65625 47.882812 L 24.167969 47.882812 Z M 24.167969 28.207031 "/></clipPath><clipPath id="4d9721e5e1"><path d="M 25.0625 31.347656 C 23.238281 34.351562 24.523438 37.277344 26.136719 38.828125 L 35.574219 47.882812 L 44.816406 38.859375 C 46.316406 37.191406 46.890625 35.421875 46.570312 33.449219 C 46.128906 30.722656 43.882812 28.605469 41.105469 28.304688 C 39.402344 28.121094 37.757812 28.601562 36.472656 29.667969 C 36.128906 29.957031 35.820312 30.277344 35.550781 30.625 C 35.230469 30.226562 34.855469 29.863281 34.433594 29.542969 C 32.957031 28.421875 31.078125 27.976562 29.273438 28.320312 C 27.5625 28.652344 26.027344 29.753906 25.0625 31.347656 Z M 25.0625 31.347656 "/></clipPath><radialGradient gradientTransform="matrix(1,0,0,1,24.169097,28.206716)" id="3d3969f52c" gradientUnits="userSpaceOnUse" r="14.940684" cx="11.244021" fx="11.244021" cy="9.8385" fy="9.8385"><stop style="stop-color:#f56a79;stop-opacity:1;" offset="0"/><stop style="stop-color:#f46978;stop-opacity:1;" offset="0.03125"/><stop style="stop-color:#f36878;stop-opacity:1;" offset="0.0585938"/><stop style="stop-color:#f26777;stop-opacity:1;" offset="0.0859375"/><stop style="stop-color:#f16677;stop-opacity:1;" offset="0.113281"/><stop style="stop-color:#f16677;stop-opacity:1;" offset="0.140625"/><stop style="stop-color:#f06576;stop-opacity:1;" offset="0.164062"/><stop style="stop-color:#ef6476;stop-opacity:1;" offset="0.1875"/><stop style="stop-color:#ef6475;stop-opacity:1;" offset="0.210938"/><stop style="stop-color:#ee6375;stop-opacity:1;" offset="0.234375"/><stop style="stop-color:#ed6275;stop-opacity:1;" offset="0.257812"/><stop style="stop-color:#ed6274;stop-opacity:1;" offset="0.277344"/><stop style="stop-color:#ec6174;stop-opacity:1;" offset="0.296875"/><stop style="stop-color:#ec6174;stop-opacity:1;" offset="0.316406"/><stop style="stop-color:#eb6073;stop-opacity:1;" offset="0.335938"/><stop style="stop-color:#ea5f73;stop-opacity:1;" offset="0.355469"/><stop style="stop-color:#ea5f73;stop-opacity:1;" offset="0.375"/><stop style="stop-color:#e95e72;stop-opacity:1;" offset="0.394531"/><stop style="stop-color:#e95e72;stop-opacity:1;" offset="0.410156"/><stop style="stop-color:#e85d72;stop-opacity:1;" offset="0.425781"/><stop style="stop-color:#e85d71;stop-opacity:1;" offset="0.441406"/><stop style="stop-color:#e75c71;stop-opacity:1;" offset="0.472656"/><stop style="stop-color:#e65b70;stop-opacity:1;" offset="0.503906"/><stop style="stop-color:#e55a70;stop-opacity:1;" offset="0.53125"/><stop style="stop-color:#e4596f;stop-opacity:1;" offset="0.558594"/><stop style="stop-color:#e4596f;stop-opacity:1;" offset="0.585938"/><stop style="stop-color:#e3586f;stop-opacity:1;" offset="0.609375"/><stop style="stop-color:#e2576e;stop-opacity:1;" offset="0.632812"/><stop style="stop-color:#e2576e;stop-opacity:1;" offset="0.652344"/><stop style="stop-color:#e1566d;stop-opacity:1;" offset="0.671875"/><stop style="stop-color:#e1566d;stop-opacity:1;" offset="0.691406"/><stop style="stop-color:#e0556d;stop-opacity:1;" offset="0.707031"/><stop style="stop-color:#e0556d;stop-opacity:1;" offset="0.722656"/><stop style="stop-color:#df546c;stop-opacity:1;" offset="0.753906"/><stop style="stop-color:#de536c;stop-opacity:1;" offset="0.78125"/><stop style="stop-color:#dd526b;stop-opacity:1;" offset="0.808594"/><stop style="stop-color:#dd526b;stop-opacity:1;" offset="0.832031"/><stop style="stop-color:#dc516a;stop-opacity:1;" offset="0.851562"/><stop style="stop-color:#db506a;stop-opacity:1;" offset="0.867188"/><stop style="stop-color:#db506a;stop-opacity:1;" offset="0.898438"/><stop style="stop-color:#da4f69;stop-opacity:1;" offset="0.921875"/><stop style="stop-color:#d94e69;stop-opacity:1;" offset="0.941406"/><stop style="stop-color:#d84d68;stop-opacity:1;" offset="0.96875"/><stop style="stop-color:#d84d68;stop-opacity:1;" offset="1"/></radialGradient></defs><g id="87bc5c9050"><g style="fill:#000000;fill-opacity:1;"><g transform="translate(53.171165, 44.193378)"><path style="stroke:none" d="M 6.609375 -12.328125 C 7.296875 -12.328125 7.972656 -12.25 8.640625 -12.09375 C 9.304688 -11.9375 9.800781 -11.78125 10.125 -11.625 L 10.625 -11.390625 L 9.265625 -8.6875 C 8.328125 -9.1875 7.441406 -9.4375 6.609375 -9.4375 C 6.140625 -9.4375 5.804688 -9.382812 5.609375 -9.28125 C 5.421875 -9.175781 5.328125 -8.984375 5.328125 -8.703125 C 5.328125 -8.640625 5.332031 -8.578125 5.34375 -8.515625 C 5.363281 -8.453125 5.394531 -8.394531 5.4375 -8.34375 C 5.488281 -8.289062 5.53125 -8.242188 5.5625 -8.203125 C 5.601562 -8.160156 5.671875 -8.113281 5.765625 -8.0625 C 5.859375 -8.019531 5.929688 -7.988281 5.984375 -7.96875 C 6.035156 -7.945312 6.125 -7.910156 6.25 -7.859375 C 6.375 -7.816406 6.46875 -7.785156 6.53125 -7.765625 C 6.59375 -7.742188 6.695312 -7.707031 6.84375 -7.65625 C 7 -7.613281 7.113281 -7.582031 7.1875 -7.5625 C 7.664062 -7.425781 8.082031 -7.269531 8.4375 -7.09375 C 8.800781 -6.925781 9.179688 -6.691406 9.578125 -6.390625 C 9.972656 -6.097656 10.28125 -5.722656 10.5 -5.265625 C 10.71875 -4.816406 10.828125 -4.304688 10.828125 -3.734375 C 10.828125 -1.015625 8.9375 0.34375 5.15625 0.34375 C 4.300781 0.34375 3.488281 0.210938 2.71875 -0.046875 C 1.945312 -0.304688 1.390625 -0.570312 1.046875 -0.84375 L 0.53125 -1.265625 L 2.21875 -4.078125 C 2.34375 -3.972656 2.503906 -3.847656 2.703125 -3.703125 C 2.910156 -3.554688 3.273438 -3.351562 3.796875 -3.09375 C 4.328125 -2.832031 4.789062 -2.703125 5.1875 -2.703125 C 6.039062 -2.703125 6.46875 -2.992188 6.46875 -3.578125 C 6.46875 -3.835938 6.359375 -4.039062 6.140625 -4.1875 C 5.921875 -4.332031 5.550781 -4.5 5.03125 -4.6875 C 4.507812 -4.875 4.101562 -5.046875 3.8125 -5.203125 C 3.0625 -5.597656 2.46875 -6.039062 2.03125 -6.53125 C 1.59375 -7.019531 1.375 -7.664062 1.375 -8.46875 C 1.375 -9.6875 1.84375 -10.632812 2.78125 -11.3125 C 3.726562 -11.988281 5.003906 -12.328125 6.609375 -12.328125 Z M 6.609375 -12.328125 "/></g></g><g style="fill:#000000;fill-opacity:1;"><g transform="translate(64.655899, 44.193378)"><path style="stroke:none" d="M 1.40625 0 L 1.40625 -20.078125 L 5.53125 -20.078125 L 5.53125 -10.71875 L 5.578125 -10.71875 C 6.648438 -11.789062 7.796875 -12.328125 9.015625 -12.328125 C 9.597656 -12.328125 10.179688 -12.25 10.765625 -12.09375 C 11.359375 -11.9375 11.921875 -11.691406 12.453125 -11.359375 C 12.992188 -11.035156 13.429688 -10.570312 13.765625 -9.96875 C 14.097656 -9.375 14.265625 -8.679688 14.265625 -7.890625 L 14.265625 0 L 10.125 0 L 10.125 -6.765625 C 10.125 -7.390625 9.925781 -7.9375 9.53125 -8.40625 C 9.132812 -8.875 8.617188 -9.109375 7.984375 -9.109375 C 7.359375 -9.109375 6.789062 -8.863281 6.28125 -8.375 C 5.78125 -7.894531 5.53125 -7.359375 5.53125 -6.765625 L 5.53125 0 Z M 1.40625 0 "/></g></g><g style="fill:#000000;fill-opacity:1;"><g transform="translate(80.085595, 44.193378)"><path style="stroke:none" d="M 2.203125 -1.484375 C 1.085938 -2.703125 0.53125 -4.195312 0.53125 -5.96875 C 0.53125 -7.75 1.085938 -9.253906 2.203125 -10.484375 C 3.328125 -11.710938 4.753906 -12.328125 6.484375 -12.328125 C 8.078125 -12.328125 9.382812 -11.828125 10.40625 -10.828125 L 10.40625 -11.96875 L 14.546875 -11.96875 L 14.546875 0 L 10.453125 0 L 10.453125 -1.359375 L 10.40625 -1.359375 C 9.382812 -0.222656 8.078125 0.34375 6.484375 0.34375 C 4.753906 0.34375 3.328125 -0.265625 2.203125 -1.484375 Z M 5.71875 -8 C 5.1875 -7.476562 4.921875 -6.800781 4.921875 -5.96875 C 4.921875 -5.144531 5.175781 -4.472656 5.6875 -3.953125 C 6.207031 -3.429688 6.890625 -3.171875 7.734375 -3.171875 C 8.535156 -3.171875 9.195312 -3.4375 9.71875 -3.96875 C 10.238281 -4.5 10.5 -5.164062 10.5 -5.96875 C 10.5 -6.800781 10.226562 -7.476562 9.6875 -8 C 9.15625 -8.53125 8.503906 -8.796875 7.734375 -8.796875 C 6.929688 -8.796875 6.257812 -8.53125 5.71875 -8 Z M 5.71875 -8 "/></g></g><g style="fill:#000000;fill-opacity:1;"><g transform="translate(96.028845, 44.193378)"><path style="stroke:none" d="M 2.203125 -1.484375 C 1.085938 -2.703125 0.53125 -4.195312 0.53125 -5.96875 C 0.53125 -7.75 1.085938 -9.253906 2.203125 -10.484375 C 3.328125 -11.710938 4.753906 -12.328125 6.484375 -12.328125 C 8.078125 -12.328125 9.382812 -11.828125 10.40625 -10.828125 L 10.40625 -20.078125 L 14.546875 -20.078125 L 14.546875 0 L 10.453125 0 L 10.453125 -1.359375 L 10.40625 -1.359375 C 9.382812 -0.222656 8.078125 0.34375 6.484375 0.34375 C 4.753906 0.34375 3.328125 -0.265625 2.203125 -1.484375 Z M 5.71875 -8 C 5.1875 -7.476562 4.921875 -6.800781 4.921875 -5.96875 C 4.921875 -5.144531 5.175781 -4.472656 5.6875 -3.953125 C 6.207031 -3.429688 6.890625 -3.171875 7.734375 -3.171875 C 8.535156 -3.171875 9.195312 -3.4375 9.71875 -3.96875 C 10.238281 -4.5 10.5 -5.164062 10.5 -5.96875 C 10.5 -6.800781 10.226562 -7.476562 9.6875 -8 C 9.15625 -8.53125 8.503906 -8.796875 7.734375 -8.796875 C 6.929688 -8.796875 6.257812 -8.53125 5.71875 -8 Z M 5.71875 -8 "/></g></g><g style="fill:#000000;fill-opacity:1;"><g transform="translate(111.972095, 44.193378)"><path style="stroke:none" d="M 1.796875 -18.640625 C 2.273438 -19.128906 2.847656 -19.375 3.515625 -19.375 C 4.191406 -19.375 4.769531 -19.128906 5.25 -18.640625 C 5.726562 -18.160156 5.96875 -17.585938 5.96875 -16.921875 C 5.96875 -16.253906 5.726562 -15.675781 5.25 -15.1875 C 4.769531 -14.707031 4.191406 -14.46875 3.515625 -14.46875 C 2.847656 -14.46875 2.273438 -14.707031 1.796875 -15.1875 C 1.316406 -15.675781 1.078125 -16.253906 1.078125 -16.921875 C 1.078125 -17.585938 1.316406 -18.160156 1.796875 -18.640625 Z M 1.40625 -11.96875 L 1.40625 0 L 5.53125 0 L 5.53125 -11.96875 Z M 1.40625 -11.96875 "/></g></g><g style="fill:#000000;fill-opacity:1;"><g transform="translate(119.02167, 44.193378)"><path style="stroke:none" d="M 7.78125 -8.9375 C 7 -8.9375 6.328125 -8.648438 5.765625 -8.078125 C 5.203125 -7.503906 4.921875 -6.8125 4.921875 -6 C 4.921875 -5.175781 5.203125 -4.472656 5.765625 -3.890625 C 6.328125 -3.316406 7 -3.03125 7.78125 -3.03125 C 8.144531 -3.03125 8.492188 -3.078125 8.828125 -3.171875 C 9.171875 -3.265625 9.421875 -3.359375 9.578125 -3.453125 L 9.78125 -3.59375 L 11.1875 -0.71875 C 11.070312 -0.644531 10.914062 -0.546875 10.71875 -0.421875 C 10.53125 -0.304688 10.085938 -0.148438 9.390625 0.046875 C 8.703125 0.242188 7.960938 0.34375 7.171875 0.34375 C 5.410156 0.34375 3.863281 -0.269531 2.53125 -1.5 C 1.195312 -2.738281 0.53125 -4.222656 0.53125 -5.953125 C 0.53125 -7.691406 1.195312 -9.1875 2.53125 -10.4375 C 3.863281 -11.695312 5.410156 -12.328125 7.171875 -12.328125 C 7.960938 -12.328125 8.691406 -12.234375 9.359375 -12.046875 C 10.023438 -11.859375 10.5 -11.671875 10.78125 -11.484375 L 11.1875 -11.203125 L 9.78125 -8.375 C 9.269531 -8.75 8.601562 -8.9375 7.78125 -8.9375 Z M 7.78125 -8.9375 "/></g></g><g style="fill:#000000;fill-opacity:1;"><g transform="translate(130.483071, 44.193378)"><path style="stroke:none" d="M 2.203125 -1.484375 C 1.085938 -2.703125 0.53125 -4.195312 0.53125 -5.96875 C 0.53125 -7.75 1.085938 -9.253906 2.203125 -10.484375 C 3.328125 -11.710938 4.753906 -12.328125 6.484375 -12.328125 C 8.078125 -12.328125 9.382812 -11.828125 10.40625 -10.828125 L 10.40625 -11.96875 L 14.546875 -11.96875 L 14.546875 0 L 10.453125 0 L 10.453125 -1.359375 L 10.40625 -1.359375 C 9.382812 -0.222656 8.078125 0.34375 6.484375 0.34375 C 4.753906 0.34375 3.328125 -0.265625 2.203125 -1.484375 Z M 5.71875 -8 C 5.1875 -7.476562 4.921875 -6.800781 4.921875 -5.96875 C 4.921875 -5.144531 5.175781 -4.472656 5.6875 -3.953125 C 6.207031 -3.429688 6.890625 -3.171875 7.734375 -3.171875 C 8.535156 -3.171875 9.195312 -3.4375 9.71875 -3.96875 C 10.238281 -4.5 10.5 -5.164062 10.5 -5.96875 C 10.5 -6.800781 10.226562 -7.476562 9.6875 -8 C 9.15625 -8.53125 8.503906 -8.796875 7.734375 -8.796875 C 6.929688 -8.796875 6.257812 -8.53125 5.71875 -8 Z M 5.71875 -8 "/></g></g><g style="fill:#000000;fill-opacity:1;"><g transform="translate(146.426321, 44.193378)"><path style="stroke:none" d="M 1.40625 0 L 1.40625 -11.96875 L 5.53125 -11.96875 L 5.53125 -10.25 L 5.578125 -10.25 C 5.609375 -10.3125 5.660156 -10.390625 5.734375 -10.484375 C 5.804688 -10.578125 5.957031 -10.738281 6.1875 -10.96875 C 6.414062 -11.207031 6.660156 -11.414062 6.921875 -11.59375 C 7.191406 -11.78125 7.535156 -11.945312 7.953125 -12.09375 C 8.378906 -12.25 8.8125 -12.328125 9.25 -12.328125 C 9.695312 -12.328125 10.140625 -12.265625 10.578125 -12.140625 C 11.015625 -12.015625 11.332031 -11.890625 11.53125 -11.765625 L 11.859375 -11.578125 L 10.125 -8.078125 C 9.613281 -8.515625 8.898438 -8.734375 7.984375 -8.734375 C 7.484375 -8.734375 7.050781 -8.625 6.6875 -8.40625 C 6.332031 -8.1875 6.082031 -7.921875 5.9375 -7.609375 C 5.789062 -7.296875 5.6875 -7.03125 5.625 -6.8125 C 5.5625 -6.59375 5.53125 -6.421875 5.53125 -6.296875 L 5.53125 0 Z M 1.40625 0 "/></g></g><g style="fill:#000000;fill-opacity:1;"><g transform="translate(158.051113, 44.193378)"><path style="stroke:none" d="M 2.203125 -1.484375 C 1.085938 -2.703125 0.53125 -4.195312 0.53125 -5.96875 C 0.53125 -7.75 1.085938 -9.253906 2.203125 -10.484375 C 3.328125 -11.710938 4.753906 -12.328125 6.484375 -12.328125 C 8.078125 -12.328125 9.382812 -11.828125 10.40625 -10.828125 L 10.40625 -20.078125 L 14.546875 -20.078125 L 14.546875 0 L 10.453125 0 L 10.453125 -1.359375 L 10.40625 -1.359375 C 9.382812 -0.222656 8.078125 0.34375 6.484375 0.34375 C 4.753906 0.34375 3.328125 -0.265625 2.203125 -1.484375 Z M 5.71875 -8 C 5.1875 -7.476562 4.921875 -6.800781 4.921875 -5.96875 C 4.921875 -5.144531 5.175781 -4.472656 5.6875 -3.953125 C 6.207031 -3.429688 6.890625 -3.171875 7.734375 -3.171875 C 8.535156 -3.171875 9.195312 -3.4375 9.71875 -3.96875 C 10.238281 -4.5 10.5 -5.164062 10.5 -5.96875 C 10.5 -6.800781 10.226562 -7.476562 9.6875 -8 C 9.15625 -8.53125 8.503906 -8.796875 7.734375 -8.796875 C 6.929688 -8.796875 6.257812 -8.53125 5.71875 -8 Z M 5.71875 -8 "/></g></g><g style="fill:#000000;fill-opacity:1;"><g transform="translate(173.994363, 44.193378)"><path style="stroke:none" d="M 6.609375 -12.328125 C 7.296875 -12.328125 7.972656 -12.25 8.640625 -12.09375 C 9.304688 -11.9375 9.800781 -11.78125 10.125 -11.625 L 10.625 -11.390625 L 9.265625 -8.6875 C 8.328125 -9.1875 7.441406 -9.4375 6.609375 -9.4375 C 6.140625 -9.4375 5.804688 -9.382812 5.609375 -9.28125 C 5.421875 -9.175781 5.328125 -8.984375 5.328125 -8.703125 C 5.328125 -8.640625 5.332031 -8.578125 5.34375 -8.515625 C 5.363281 -8.453125 5.394531 -8.394531 5.4375 -8.34375 C 5.488281 -8.289062 5.53125 -8.242188 5.5625 -8.203125 C 5.601562 -8.160156 5.671875 -8.113281 5.765625 -8.0625 C 5.859375 -8.019531 5.929688 -7.988281 5.984375 -7.96875 C 6.035156 -7.945312 6.125 -7.910156 6.25 -7.859375 C 6.375 -7.816406 6.46875 -7.785156 6.53125 -7.765625 C 6.59375 -7.742188 6.695312 -7.707031 6.84375 -7.65625 C 7 -7.613281 7.113281 -7.582031 7.1875 -7.5625 C 7.664062 -7.425781 8.082031 -7.269531 8.4375 -7.09375 C 8.800781 -6.925781 9.179688 -6.691406 9.578125 -6.390625 C 9.972656 -6.097656 10.28125 -5.722656 10.5 -5.265625 C 10.71875 -4.816406 10.828125 -4.304688 10.828125 -3.734375 C 10.828125 -1.015625 8.9375 0.34375 5.15625 0.34375 C 4.300781 0.34375 3.488281 0.210938 2.71875 -0.046875 C 1.945312 -0.304688 1.390625 -0.570312 1.046875 -0.84375 L 0.53125 -1.265625 L 2.21875 -4.078125 C 2.34375 -3.972656 2.503906 -3.847656 2.703125 -3.703125 C 2.910156 -3.554688 3.273438 -3.351562 3.796875 -3.09375 C 4.328125 -2.832031 4.789062 -2.703125 5.1875 -2.703125 C 6.039062 -2.703125 6.46875 -2.992188 6.46875 -3.578125 C 6.46875 -3.835938 6.359375 -4.039062 6.140625 -4.1875 C 5.921875 -4.332031 5.550781 -4.5 5.03125 -4.6875 C 4.507812 -4.875 4.101562 -5.046875 3.8125 -5.203125 C 3.0625 -5.597656 2.46875 -6.039062 2.03125 -6.53125 C 1.59375 -7.019531 1.375 -7.664062 1.375 -8.46875 C 1.375 -9.6875 1.84375 -10.632812 2.78125 -11.3125 C 3.726562 -11.988281 5.003906 -12.328125 6.609375 -12.328125 Z M 6.609375 -12.328125 "/></g></g><g style="fill:#000000;fill-opacity:1;"><g transform="translate(185.479098, 44.193378)"><path style="stroke:none" d="M 4.0625 -5 C 4.8125 -5 5.445312 -4.738281 5.96875 -4.21875 C 6.488281 -3.695312 6.75 -3.0625 6.75 -2.3125 C 6.75 -1.582031 6.488281 -0.957031 5.96875 -0.4375 C 5.445312 0.0820312 4.8125 0.34375 4.0625 0.34375 C 3.332031 0.34375 2.707031 0.0820312 2.1875 -0.4375 C 1.664062 -0.957031 1.40625 -1.582031 1.40625 -2.3125 C 1.40625 -3.0625 1.664062 -3.695312 2.1875 -4.21875 C 2.707031 -4.738281 3.332031 -5 4.0625 -5 Z M 4.0625 -5 "/></g></g><g style="fill:#000000;fill-opacity:1;"><g transform="translate(193.625793, 44.193378)"><path style="stroke:none" d="M 1.796875 -18.640625 C 2.273438 -19.128906 2.847656 -19.375 3.515625 -19.375 C 4.191406 -19.375 4.769531 -19.128906 5.25 -18.640625 C 5.726562 -18.160156 5.96875 -17.585938 5.96875 -16.921875 C 5.96875 -16.253906 5.726562 -15.675781 5.25 -15.1875 C 4.769531 -14.707031 4.191406 -14.46875 3.515625 -14.46875 C 2.847656 -14.46875 2.273438 -14.707031 1.796875 -15.1875 C 1.316406 -15.675781 1.078125 -16.253906 1.078125 -16.921875 C 1.078125 -17.585938 1.316406 -18.160156 1.796875 -18.640625 Z M 1.40625 -11.96875 L 1.40625 0 L 5.53125 0 L 5.53125 -11.96875 Z M 1.40625 -11.96875 "/></g></g><g style="fill:#000000;fill-opacity:1;"><g transform="translate(200.675367, 44.193378)"><path style="stroke:none" d="M 1.40625 0 L 1.40625 -11.96875 L 5.53125 -11.96875 L 5.53125 -10.71875 L 5.578125 -10.71875 C 6.648438 -11.789062 7.796875 -12.328125 9.015625 -12.328125 C 9.597656 -12.328125 10.179688 -12.25 10.765625 -12.09375 C 11.359375 -11.9375 11.921875 -11.691406 12.453125 -11.359375 C 12.992188 -11.035156 13.429688 -10.570312 13.765625 -9.96875 C 14.097656 -9.375 14.265625 -8.679688 14.265625 -7.890625 L 14.265625 0 L 10.125 0 L 10.125 -6.765625 C 10.125 -7.390625 9.925781 -7.9375 9.53125 -8.40625 C 9.132812 -8.875 8.617188 -9.109375 7.984375 -9.109375 C 7.359375 -9.109375 6.789062 -8.863281 6.28125 -8.375 C 5.78125 -7.894531 5.53125 -7.359375 5.53125 -6.765625 L 5.53125 0 Z M 1.40625 0 "/></g></g><g clip-rule="nonzero" clip-path="url(#7ecbd8f289)"><path style=" stroke:none;fill-rule:nonzero;fill:#f9a8a8;fill-opacity:1;" d="M 14.136719 27.539062 C 10.769531 27.539062 8 30.074219 7.585938 33.320312 C 7.527344 33.585938 7.496094 33.867188 7.496094 34.175781 C 7.496094 37.96875 10.394531 41.394531 13.164062 43.933594 C 15.925781 46.484375 18.6875 48.164062 18.6875 48.164062 L 19.113281 48.429688 L 19.542969 48.164062 C 19.542969 48.164062 22.304688 46.484375 25.074219 43.933594 C 27.835938 41.394531 30.734375 37.96875 30.734375 34.175781 C 30.734375 33.867188 30.703125 33.59375 30.648438 33.335938 C 30.226562 30.074219 27.464844 27.539062 24.09375 27.539062 C 22.03125 27.539062 20.328125 28.613281 19.113281 30.09375 C 17.902344 28.613281 16.195312 27.539062 14.136719 27.539062 Z M 14.136719 29.199219 C 15.964844 29.199219 17.53125 30.183594 18.402344 31.648438 L 19.113281 32.855469 L 19.828125 31.648438 C 20.695312 30.183594 22.265625 29.199219 24.09375 29.199219 C 26.640625 29.199219 28.703125 31.097656 29.007812 33.566406 L 29.023438 33.632812 C 29.054688 33.789062 29.074219 33.964844 29.074219 34.175781 C 29.074219 37.082031 26.578125 40.296875 23.945312 42.714844 C 21.535156 44.941406 19.496094 46.179688 19.113281 46.417969 C 18.730469 46.179688 16.695312 44.941406 14.277344 42.714844 C 11.652344 40.296875 9.15625 37.082031 9.15625 34.175781 C 9.15625 33.957031 9.175781 33.78125 9.207031 33.632812 L 9.21875 33.59375 L 9.21875 33.554688 C 9.53125 31.097656 11.585938 29.199219 14.136719 29.199219 Z M 14.136719 29.199219 "/></g><g clip-rule="nonzero" clip-path="url(#f18c912d44)"><path style=" stroke:none;fill-rule:nonzero;fill:#ef476f;fill-opacity:1;" d="M 30.375 27.539062 C 27.011719 27.539062 24.242188 30.074219 23.828125 33.320312 C 23.769531 33.585938 23.738281 33.867188 23.738281 34.175781 C 23.738281 37.96875 26.636719 41.394531 29.402344 43.933594 C 32.167969 46.484375 34.929688 48.164062 34.929688 48.164062 L 35.355469 48.429688 L 35.785156 48.164062 C 35.785156 48.164062 38.546875 46.484375 41.316406 43.933594 C 44.078125 41.394531 46.976562 37.96875 46.976562 34.175781 C 46.976562 33.867188 46.941406 33.59375 46.890625 33.335938 C 46.46875 30.074219 43.707031 27.539062 40.335938 27.539062 C 38.273438 27.539062 36.570312 28.613281 35.355469 30.09375 C 34.144531 28.613281 32.4375 27.539062 30.375 27.539062 Z M 30.375 29.199219 C 32.203125 29.199219 33.773438 30.183594 34.644531 31.648438 L 35.355469 32.855469 L 36.070312 31.648438 C 36.9375 30.183594 38.507812 29.199219 40.335938 29.199219 C 42.882812 29.199219 44.945312 31.097656 45.25 33.566406 L 45.261719 33.632812 C 45.296875 33.789062 45.316406 33.964844 45.316406 34.175781 C 45.316406 37.082031 42.820312 40.296875 40.1875 42.714844 C 37.773438 44.941406 35.738281 46.179688 35.355469 46.417969 C 34.972656 46.179688 32.9375 44.941406 30.519531 42.714844 C 27.894531 40.296875 25.398438 37.082031 25.398438 34.175781 C 25.398438 33.957031 25.417969 33.78125 25.449219 33.632812 L 25.460938 33.59375 L 25.460938 33.554688 C 25.773438 31.097656 27.828125 29.199219 30.375 29.199219 Z M 30.375 29.199219 "/></g><g clip-rule="nonzero" clip-path="url(#696e6c3ad9)"><g clip-rule="nonzero" clip-path="url(#4d9721e5e1)"><path style=" stroke:none;fill-rule:nonzero;fill:url(#3d3969f52c);" d="M 24.167969 28.207031 L 24.167969 47.882812 L 46.65625 47.882812 L 46.65625 28.207031 Z M 24.167969 28.207031 "/></g></g></g></svg>