<svg xmlns="http://www.w3.org/2000/svg" xmlns:xlink="http://www.w3.org/1999/xlink" width="500" zoomAndPan="magnify" viewBox="0 0 375 374.999991" height="500" preserveAspectRatio="xMidYMid meet" version="1.2"><defs><clipPath id="2b9ff6b20f"><path d="M 71.574219 3 L 303.324219 3 L 303.324219 375 L 71.574219 375 Z M 71.574219 3 "/></clipPath></defs><g id="30b3fe1959"><path style=" stroke:none;fill-rule:nonzero;fill:#e6ae85;fill-opacity:1;" d="M 270.058594 157.46875 C 264.296875 148.078125 239.566406 139.242188 231.09375 136.425781 C 230.179688 135.375 229.195312 134.320312 228.125 133.285156 L 228.796875 132.578125 C 240.617188 131.523438 256.976562 121.289062 258.910156 105.769531 C 260.566406 92.339844 247.988281 63.578125 246.039062 55.585938 C 243.621094 45.796875 238.996094 21.785156 222.328125 11.460938 C 211.867188 3.953125 200.460938 2.796875 187.933594 7.113281 C 175.40625 2.796875 164 3.953125 153.539062 11.460938 C 136.871094 21.785156 132.246094 45.796875 129.832031 55.585938 C 127.878906 63.578125 115.300781 92.339844 116.957031 105.769531 C 118.890625 121.289062 135.25 131.523438 147.070312 132.578125 L 147.640625 133.183594 C 146.601562 134.164062 145.621094 135.148438 144.722656 136.152344 L 144.707031 136.152344 C 137.148438 138.621094 110.882812 147.75 104.910156 157.46875 C 97.851562 168.984375 72.96875 255.472656 73.261719 266.261719 C 73.554688 277.152344 78.199219 289.824219 84.511719 294.640625 C 88.328125 297.558594 101.804688 308.847656 115.507812 320.394531 C 115.507812 320.394531 98.699219 389.429688 100.613281 391.984375 C 101.097656 392.625 102.910156 393.726562 105.550781 395.074219 L 104.894531 396.351562 C 109.984375 440.011719 112.625 499.394531 112.28125 520.972656 C 111.832031 548.628906 95.351562 724.101562 95.351562 724.101562 C 95.351562 724.101562 106.171875 728.816406 119.0625 732.371094 C 119.0625 732.371094 111.589844 770.125 114.125 772.578125 C 116.664062 775.027344 136.199219 788.25 142.652344 789.269531 C 149.105469 790.269531 167.949219 770.710938 168.796875 765.238281 C 169.640625 759.769531 168.535156 732.492188 168.535156 732.492188 C 174.699219 730.851562 178.441406 729.28125 178.441406 729.28125 C 178.441406 729.28125 178.804688 558.378906 179.253906 542.84375 C 179.703125 527.308594 186.863281 428.910156 186.863281 428.910156 C 186.863281 428.910156 194.042969 527.308594 194.492188 542.84375 C 194.941406 558.378906 195.285156 729.28125 195.285156 729.28125 C 195.285156 729.28125 199.03125 730.851562 205.191406 732.492188 C 205.191406 732.492188 204.085938 759.769531 204.929688 765.238281 C 205.777344 770.710938 224.621094 790.269531 231.074219 789.269531 C 237.53125 788.25 257.0625 775.027344 259.601562 772.578125 C 262.136719 770.125 254.664062 732.371094 254.664062 732.371094 C 267.554688 728.816406 278.375 724.101562 278.375 724.101562 C 278.375 724.101562 261.914062 548.628906 261.449219 520.972656 C 261.101562 499.394531 263.742188 440.011719 268.832031 396.351562 L 266.589844 396.179688 C 270.421875 394.351562 273.164062 392.777344 273.75 391.984375 C 275.5625 389.550781 260.359375 326.507812 258.980469 320.8125 L 258.980469 320.792969 C 272.835938 309.105469 286.589844 297.59375 290.457031 294.640625 C 296.773438 289.824219 301.414062 277.152344 301.707031 266.261719 C 302 255.472656 277.117188 168.984375 270.058594 157.46875 Z M 270.058594 157.46875 "/><path style=" stroke:none;fill-rule:nonzero;fill:#ffffff;fill-opacity:1;" d="M 218.082031 151.550781 C 217.320312 148.578125 216.390625 145.488281 215.421875 142.574219 L 214.335938 142.78125 C 214.335938 142.78125 204.621094 145.664062 187.605469 145.699219 C 187.519531 145.699219 187.449219 145.699219 187.363281 145.699219 C 170.347656 145.664062 160.632812 142.78125 160.632812 142.78125 L 159.839844 142.589844 C 158.804688 145.507812 157.804688 148.597656 156.992188 151.582031 C 155.820312 155.832031 155.042969 159.851562 155.113281 162.820312 C 155.285156 170.953125 176.734375 225.191406 187.484375 251.914062 C 198.132812 225.453125 219.6875 170.917969 219.859375 162.820312 C 219.929688 159.835938 219.1875 155.8125 218.082031 151.550781 Z M 218.082031 151.550781 "/><path style=" stroke:none;fill-rule:nonzero;fill:#48967c;fill-opacity:1;" d="M 270.058594 157.46875 C 264.296875 148.078125 239.566406 139.242188 231.09375 136.425781 C 230.179688 135.375 229.195312 134.320312 228.125 133.285156 C 227.8125 132.976562 227.484375 132.679688 227.160156 132.371094 C 222.65625 128.125 216.992188 124.136719 210.058594 121.546875 L 209.730469 121.5625 L 210.058594 128.105469 C 210.058594 128.105469 212.816406 134.734375 215.421875 142.574219 C 216.390625 145.488281 217.320312 148.582031 218.082031 151.550781 C 219.1875 155.8125 219.929688 159.835938 219.859375 162.820312 C 219.6875 170.917969 198.132812 225.449219 187.484375 251.914062 C 176.734375 225.191406 155.285156 170.953125 155.113281 162.820312 C 155.042969 159.851562 155.820312 155.832031 156.992188 151.582031 C 157.804688 148.597656 158.804688 145.507812 159.839844 142.589844 C 162.601562 134.734375 165.535156 128.105469 165.535156 128.105469 L 165.863281 121.546875 L 165.84375 121.546875 C 158.460938 124.292969 152.402344 128.640625 147.640625 133.179688 C 146.605469 134.164062 145.621094 135.148438 144.722656 136.152344 L 144.707031 136.152344 C 137.148438 138.621094 110.882812 147.75 104.910156 157.46875 C 97.855469 168.984375 72.96875 255.472656 73.261719 266.261719 C 73.554688 277.152344 78.199219 289.824219 84.515625 294.640625 C 88.328125 297.558594 101.804688 308.847656 115.507812 320.394531 C 115.507812 320.394531 98.699219 389.429688 100.613281 391.984375 C 101.097656 392.625 102.910156 393.726562 105.550781 395.074219 L 104.894531 396.351562 C 109.984375 440.007812 112.625 499.394531 112.28125 520.972656 C 111.832031 548.625 95.351562 724.101562 95.351562 724.101562 C 95.351562 724.101562 106.171875 728.816406 119.0625 732.371094 C 120.546875 732.769531 122.046875 733.164062 123.582031 733.527344 C 130.484375 735.203125 137.683594 736.375 143.910156 736.1875 C 151.261719 735.960938 157.976562 734.925781 163.480469 733.71875 C 165.308594 733.339844 167 732.925781 168.539062 732.492188 C 174.699219 730.851562 178.441406 729.28125 178.441406 729.28125 C 178.441406 729.28125 178.804688 558.378906 179.253906 542.84375 C 179.703125 527.308594 186.863281 428.910156 186.863281 428.910156 C 186.863281 428.910156 194.042969 527.308594 194.492188 542.84375 C 194.941406 558.378906 195.285156 729.28125 195.285156 729.28125 C 195.285156 729.28125 199.03125 730.851562 205.191406 732.492188 C 206.726562 732.925781 208.417969 733.339844 210.246094 733.71875 C 215.75 734.925781 222.464844 735.960938 229.816406 736.1875 C 236.046875 736.375 243.242188 735.203125 250.144531 733.527344 C 251.679688 733.164062 253.179688 732.769531 254.664062 732.371094 C 267.554688 728.816406 278.375 724.101562 278.375 724.101562 C 278.375 724.101562 261.914062 548.628906 261.449219 520.972656 C 261.101562 499.394531 263.742188 440.007812 268.832031 396.351562 L 266.589844 396.179688 C 270.421875 394.351562 273.164062 392.777344 273.75 391.984375 C 275.5625 389.550781 260.359375 326.507812 258.980469 320.808594 L 258.980469 320.792969 C 272.835938 309.105469 286.589844 297.59375 290.457031 294.640625 C 296.773438 289.824219 301.414062 277.152344 301.707031 266.261719 C 302 255.472656 277.117188 168.984375 270.058594 157.46875 Z M 210.523438 337.367188 C 211.867188 340.816406 216.875 355.128906 215.699219 356.441406 C 214.441406 357.839844 212.023438 355.664062 212.023438 355.664062 L 211.800781 355.734375 C 212.90625 359.582031 213.507812 362.949219 212.523438 363.742188 C 210.316406 365.519531 207.867188 363.226562 206.226562 358.738281 C 207.277344 361.929688 207.898438 364.761719 207.175781 365.503906 C 205.5 367.230469 201.964844 364.605469 199.046875 358.304688 C 198.253906 356.578125 195.800781 353.421875 193.144531 350.296875 C 193.765625 351.191406 199.496094 359.582031 197.546875 360.496094 C 196.804688 360.824219 193.214844 359.253906 191.109375 357.21875 C 190.796875 356.925781 190.503906 356.613281 190.210938 356.304688 C 189.332031 355.371094 188.503906 354.371094 187.710938 353.367188 C 186.640625 354.699219 185.519531 356.0625 184.308594 357.21875 C 182.203125 359.253906 178.613281 360.824219 177.871094 360.496094 C 175.921875 359.582031 181.652344 351.191406 182.273438 350.296875 C 179.632812 353.421875 177.164062 356.578125 176.371094 358.304688 C 173.453125 364.605469 169.917969 367.230469 168.242188 365.503906 C 167.519531 364.761719 168.140625 361.929688 169.191406 358.738281 C 167.554688 363.226562 165.101562 365.519531 162.894531 363.742188 C 161.910156 362.949219 162.515625 359.582031 163.601562 355.734375 L 163.394531 355.664062 C 163.394531 355.664062 160.976562 357.839844 159.71875 356.441406 C 158.5625 355.128906 163.550781 340.835938 164.894531 337.367188 C 161.324219 334.085938 159.875 326.59375 159.875 326.59375 L 159.21875 326.316406 L 168.691406 303.703125 L 169.070312 303.859375 C 169.070312 303.859375 178.269531 307.207031 186.378906 310.867188 C 186.828125 311.058594 187.261719 311.265625 187.691406 311.472656 L 187.710938 311.472656 C 188.761719 310.988281 189.832031 310.503906 190.917969 310.019531 C 198.511719 306.707031 206.347656 303.859375 206.347656 303.859375 L 215.820312 326.472656 L 215.527344 326.59375 C 215.527344 326.59375 214.078125 334.121094 210.503906 337.347656 Z M 210.523438 337.367188 "/><path style=" stroke:none;fill-rule:nonzero;fill:#000000;fill-opacity:1;" d="M 210.851562 60.503906 C 210.851562 61.472656 210.503906 62.371094 209.917969 63.0625 C 209.832031 63.148438 209.746094 63.25 209.660156 63.335938 C 208.933594 64.0625 207.933594 64.511719 206.828125 64.511719 C 204.636719 64.511719 202.84375 62.714844 202.84375 60.523438 C 202.84375 58.3125 204.636719 56.519531 206.828125 56.519531 C 207.933594 56.519531 208.933594 56.96875 209.660156 57.691406 C 209.746094 57.777344 209.832031 57.882812 209.917969 57.96875 C 210.503906 58.660156 210.851562 59.539062 210.851562 60.503906 Z M 170.953125 57.691406 C 170.226562 56.964844 169.226562 56.519531 168.140625 56.519531 C 165.929688 56.519531 164.136719 58.3125 164.136719 60.523438 C 164.136719 62.714844 165.929688 64.511719 168.140625 64.511719 C 169.226562 64.511719 170.226562 64.0625 170.953125 63.335938 C 171.039062 63.25 171.125 63.148438 171.210938 63.058594 C 171.796875 62.371094 172.144531 61.472656 172.144531 60.503906 C 172.144531 59.539062 171.796875 58.660156 171.210938 57.96875 C 171.125 57.882812 171.039062 57.777344 170.953125 57.691406 Z M 170.953125 57.691406 "/><path style=" stroke:none;fill-rule:nonzero;fill:#515151;fill-opacity:1;" d="M 187.484375 24.097656 C 165.050781 21.214844 152.023438 48.578125 150.554688 54.738281 C 148.140625 64.890625 150.488281 67.617188 151.023438 75.160156 C 151.332031 79.527344 150.398438 82.707031 148.96875 85.363281 L 148.984375 85.382812 C 149.640625 87.574219 150.640625 90.058594 152.125 92.546875 C 154.714844 96.84375 159.976562 103.160156 166.828125 108.03125 L 166.5 108.496094 L 165.863281 121.546875 L 165.84375 121.546875 C 158.460938 124.292969 152.402344 128.640625 147.640625 133.183594 L 147.070312 132.578125 C 135.25 131.523438 118.890625 121.289062 116.957031 105.769531 C 115.300781 92.339844 127.878906 63.578125 129.832031 55.585938 C 132.246094 45.796875 136.871094 21.785156 153.542969 11.460938 C 164 3.953125 175.40625 2.796875 187.933594 7.113281 C 200.460938 2.796875 211.867188 3.953125 222.328125 11.460938 C 238.996094 21.785156 243.621094 45.796875 246.039062 55.585938 C 247.988281 63.578125 260.566406 92.339844 258.910156 105.769531 C 256.976562 121.289062 240.617188 131.523438 228.796875 132.578125 L 228.125 133.285156 C 227.8125 132.976562 227.488281 132.679688 227.160156 132.371094 C 222.65625 128.125 216.996094 124.136719 210.058594 121.546875 L 209.730469 121.5625 L 209.089844 108.496094 L 208.382812 107.511719 C 215.113281 102.714844 220.34375 96.6875 222.84375 92.546875 C 224.328125 90.058594 225.328125 87.554688 226.003906 85.363281 C 224.570312 82.707031 223.636719 79.527344 223.949219 75.160156 C 224.484375 67.617188 226.832031 64.890625 224.414062 54.738281 C 222.949219 48.578125 209.917969 21.214844 187.484375 24.097656 Z M 254.664062 732.371094 C 253.179688 732.769531 251.679688 733.164062 250.144531 733.527344 L 252.421875 760.355469 C 252.421875 760.355469 241.84375 757.039062 232.230469 757.902344 C 222.621094 758.765625 210.902344 762.648438 210.902344 762.648438 L 210.246094 733.734375 L 210.246094 733.71875 C 208.417969 733.339844 206.726562 732.925781 205.191406 732.492188 C 205.191406 732.492188 204.085938 759.765625 204.929688 765.238281 C 205.777344 770.710938 224.621094 790.269531 231.074219 789.269531 C 237.53125 788.25 257.0625 775.027344 259.601562 772.578125 C 262.136719 770.125 254.664062 732.371094 254.664062 732.371094 Z M 163.480469 733.71875 L 163.480469 733.734375 L 162.824219 762.652344 C 162.824219 762.652344 151.109375 758.765625 141.496094 757.902344 C 131.882812 757.039062 121.304688 760.355469 121.304688 760.355469 L 123.582031 733.527344 C 122.046875 733.164062 120.546875 732.769531 119.0625 732.371094 C 119.0625 732.371094 111.589844 770.125 114.125 772.578125 C 116.664062 775.027344 136.199219 788.25 142.652344 789.269531 C 149.105469 790.269531 167.949219 770.710938 168.796875 765.238281 C 169.640625 759.769531 168.535156 732.492188 168.535156 732.492188 C 167 732.925781 165.308594 733.339844 163.480469 733.71875 Z M 163.480469 733.71875 "/><g clip-rule="nonzero" clip-path="url(#2b9ff6b20f)"><path style=" stroke:none;fill-rule:nonzero;fill:#000000;fill-opacity:1;" d="M 158.753906 53.261719 C 158.359375 52.613281 158.566406 51.769531 159.210938 51.375 C 162.890625 49.136719 170.003906 48.578125 174.730469 51.308594 C 175.382812 51.6875 175.609375 52.527344 175.230469 53.183594 C 174.851562 53.839844 174.015625 54.066406 173.355469 53.683594 C 169.640625 51.535156 163.578125 51.929688 160.636719 53.71875 C 160.414062 53.855469 160.167969 53.921875 159.925781 53.921875 C 159.464844 53.917969 159.011719 53.683594 158.753906 53.261719 Z M 201.613281 53.683594 C 205.332031 51.535156 211.394531 51.933594 214.332031 53.71875 C 214.554688 53.855469 214.800781 53.917969 215.042969 53.917969 C 215.503906 53.917969 215.957031 53.683594 216.214844 53.261719 C 216.609375 52.613281 216.402344 51.769531 215.757812 51.375 C 212.082031 49.136719 204.96875 48.578125 200.242188 51.308594 C 199.585938 51.6875 199.359375 52.527344 199.738281 53.183594 C 200.121094 53.839844 200.957031 54.0625 201.613281 53.683594 Z M 175.714844 84.855469 C 175.867188 84.996094 179.488281 88.375 187.933594 88.375 C 196.394531 88.375 200.019531 84.996094 200.167969 84.855469 C 200.710938 84.332031 200.730469 83.476562 200.214844 82.925781 C 199.699219 82.378906 198.832031 82.351562 198.28125 82.863281 C 198.25 82.890625 195.191406 85.632812 187.933594 85.632812 C 180.738281 85.632812 177.671875 82.921875 177.605469 82.863281 C 177.058594 82.347656 176.195312 82.367188 175.671875 82.914062 C 175.148438 83.460938 175.167969 84.328125 175.714844 84.855469 Z M 187.484375 77.757812 C 188.242188 77.757812 188.855469 77.144531 188.855469 76.386719 L 188.855469 70.933594 C 188.855469 70.175781 188.242188 69.558594 187.484375 69.558594 C 186.726562 69.558594 186.113281 70.175781 186.113281 70.933594 L 186.113281 76.386719 C 186.113281 77.144531 186.726562 77.757812 187.484375 77.757812 Z M 168.003906 67.886719 C 166.148438 67.886719 165.1875 66.5625 165.132812 66.484375 C 164.710938 65.863281 163.867188 65.695312 163.242188 66.113281 C 162.609375 66.53125 162.4375 67.382812 162.855469 68.015625 C 162.925781 68.121094 164.628906 70.628906 168.003906 70.628906 C 168.757812 70.628906 169.375 70.015625 169.375 69.257812 C 169.375 68.5 168.757812 67.886719 168.003906 67.886719 Z M 211.730469 66.113281 C 211.101562 65.695312 210.25 65.867188 209.828125 66.496094 C 209.820312 66.511719 208.855469 67.886719 206.96875 67.886719 C 206.210938 67.886719 205.597656 68.5 205.597656 69.257812 C 205.597656 70.015625 206.210938 70.628906 206.96875 70.628906 C 210.339844 70.628906 212.042969 68.121094 212.113281 68.015625 C 212.535156 67.382812 212.363281 66.53125 211.730469 66.113281 Z M 303.082031 266.296875 C 302.757812 278.195312 297.6875 290.851562 291.289062 295.730469 C 288.121094 298.148438 277.476562 306.992188 260.507812 321.300781 C 271.519531 366.738281 276.347656 390.796875 274.851562 392.804688 C 274.632812 393.101562 274.03125 393.910156 270.140625 395.945312 C 270.195312 396.121094 270.21875 396.3125 270.195312 396.511719 C 265.167969 439.640625 262.46875 499.019531 262.820312 520.949219 C 263.277344 548.234375 279.578125 722.21875 279.742188 723.976562 C 279.796875 724.566406 279.46875 725.125 278.925781 725.359375 C 278.816406 725.410156 268.554688 729.851562 256.257812 733.347656 C 259.652344 750.65625 263.035156 771.164062 260.554688 773.5625 C 257.882812 776.144531 238.246094 789.527344 231.289062 790.625 C 231.0625 790.660156 230.828125 790.679688 230.589844 790.679688 C 225.988281 790.679688 218.890625 784.488281 214.945312 780.667969 C 209.667969 775.554688 204.101562 768.863281 203.574219 765.449219 C 202.808594 760.472656 203.578125 738.714844 203.777344 733.523438 C 198.253906 731.996094 194.902344 730.609375 194.753906 730.546875 C 194.246094 730.335938 193.914062 729.835938 193.914062 729.285156 C 193.910156 727.578125 193.5625 558.222656 193.117188 542.886719 C 192.796875 531.769531 188.972656 477.417969 186.867188 448.003906 C 184.765625 477.417969 180.945312 531.769531 180.625 542.886719 C 180.183594 558.222656 179.816406 727.578125 179.8125 729.285156 C 179.8125 729.835938 179.480469 730.335938 178.972656 730.546875 C 178.824219 730.609375 175.480469 731.992188 169.949219 733.523438 C 170.148438 738.714844 170.921875 760.472656 170.152344 765.449219 C 169.625 768.863281 164.0625 775.554688 158.78125 780.667969 C 154.835938 784.488281 147.738281 790.679688 143.140625 790.679688 C 142.902344 790.679688 142.667969 790.660156 142.441406 790.625 C 135.484375 789.527344 115.84375 776.144531 113.171875 773.5625 C 110.691406 771.164062 114.074219 750.65625 117.472656 733.34375 C 105.171875 729.847656 94.910156 725.410156 94.804688 725.359375 C 94.257812 725.125 93.929688 724.566406 93.984375 723.976562 C 94.148438 722.21875 110.464844 548.234375 110.90625 520.949219 C 111.257812 499.019531 108.558594 439.640625 103.53125 396.511719 C 103.496094 396.203125 103.585938 395.917969 103.730469 395.671875 C 100.730469 394.070312 99.890625 393.304688 99.519531 392.8125 C 97.628906 390.289062 106.285156 352.515625 113.972656 320.898438 C 96.714844 306.355469 86.792969 298.113281 83.679688 295.730469 C 77.28125 290.851562 72.210938 278.195312 71.890625 266.296875 C 71.582031 254.960938 96.882812 167.941406 103.742188 156.753906 C 109.695312 147.0625 133.601562 138.351562 143.960938 134.949219 C 144.328125 134.550781 144.714844 134.140625 145.140625 133.710938 C 133.429688 131.839844 117.5625 121.746094 115.59375 105.9375 C 114.347656 95.820312 120.824219 77.554688 125.109375 65.46875 C 126.652344 61.113281 127.988281 57.355469 128.496094 55.261719 C 128.671875 54.558594 128.855469 53.789062 129.050781 52.957031 C 131.585938 42.316406 136.863281 20.175781 152.820312 10.296875 C 163.269531 2.789062 174.78125 1.253906 187.933594 5.664062 C 201.085938 1.257812 212.601562 2.789062 223.128906 10.347656 C 239.007812 20.179688 244.28125 42.324219 246.816406 52.964844 C 247.015625 53.796875 247.199219 54.5625 247.367188 55.257812 C 247.878906 57.355469 249.214844 61.113281 250.757812 65.46875 C 255.042969 77.554688 261.519531 95.820312 260.273438 105.9375 C 258.289062 121.847656 242.238281 131.96875 230.507812 133.746094 C 230.964844 134.226562 231.417969 134.730469 231.867188 135.238281 C 242.035156 138.636719 265.417969 147.289062 271.226562 156.753906 C 278.085938 167.9375 303.390625 254.957031 303.082031 266.296875 Z M 230.0625 137.335938 C 229.101562 136.226562 228.160156 135.226562 227.171875 134.273438 C 226.960938 134.0625 226.765625 133.878906 226.5625 133.691406 L 226.214844 133.367188 C 221.636719 129.050781 216.589844 125.742188 211.203125 123.488281 L 211.414062 127.804688 C 211.90625 128.992188 214.390625 135.113281 216.726562 142.140625 C 217.789062 145.351562 218.695312 148.40625 219.410156 151.210938 C 220.683594 156.121094 221.292969 160.039062 221.230469 162.855469 C 221.054688 170.996094 200.808594 222.46875 188.757812 252.429688 L 186.066406 259.105469 L 186.066406 259.109375 C 185.707031 259.984375 185.378906 260.796875 185.078125 261.539062 C 190.941406 256.199219 202.074219 244.933594 213.25 227.558594 C 227.617188 205.175781 241.367188 180.875 244.03125 176.132812 L 229.265625 158.5625 C 229.003906 158.25 228.894531 157.84375 228.964844 157.441406 C 229.035156 157.046875 229.277344 156.695312 229.625 156.492188 L 239.226562 150.875 C 238.105469 148.597656 235.125 143.0625 230.0625 137.335938 Z M 150.453125 85.453125 C 151.164062 87.703125 152.117188 89.851562 153.304688 91.839844 C 155.792969 95.972656 160.863281 102.105469 167.621094 106.910156 C 174.035156 111.535156 180.746094 113.976562 187.035156 113.976562 C 195.296875 113.976562 202.769531 109.855469 207.582031 106.398438 C 214.445312 101.503906 219.460938 95.496094 221.671875 91.835938 C 222.828125 89.898438 223.78125 87.75 224.523438 85.460938 C 222.929688 82.285156 222.304688 78.960938 222.582031 75.066406 C 222.75 72.691406 223.085938 70.820312 223.40625 69.015625 C 224.097656 65.160156 224.695312 61.832031 223.082031 55.058594 C 221.410156 48.042969 208.332031 22.800781 187.660156 25.460938 C 187.546875 25.476562 187.425781 25.476562 187.3125 25.460938 C 166.65625 22.820312 153.5625 48.042969 151.890625 55.058594 C 150.277344 61.832031 150.875 65.160156 151.5625 69.011719 C 151.886719 70.820312 152.222656 72.691406 152.390625 75.066406 C 152.667969 78.957031 152.042969 82.273438 150.453125 85.453125 Z M 166.789062 128.660156 C 166.761719 128.722656 164.195312 134.542969 161.640625 141.628906 C 163.980469 142.226562 173.109375 144.296875 187.367188 144.324219 L 187.605469 144.324219 C 202.597656 144.292969 211.910156 142.007812 213.632812 141.550781 C 211.222656 134.492188 208.816406 128.695312 208.792969 128.632812 C 208.765625 128.574219 208.769531 128.511719 208.753906 128.449219 C 208.730469 128.359375 208.691406 128.273438 208.6875 128.175781 L 207.769531 109.605469 C 202.636719 113.050781 195.246094 116.722656 187.035156 116.722656 C 180.746094 116.722656 174.132812 114.5 167.785156 110.328125 L 166.902344 128.175781 C 166.898438 128.28125 166.859375 128.371094 166.832031 128.46875 C 166.8125 128.53125 166.816406 128.597656 166.789062 128.660156 Z M 160.726562 144.230469 C 159.957031 146.445312 159.285156 148.558594 158.714844 150.535156 C 162.136719 151.15625 173.359375 152.980469 187.347656 153.007812 L 187.625 153.007812 C 201.796875 152.980469 213.136719 151.105469 216.386719 150.511719 C 215.84375 148.5 215.210938 146.375 214.496094 144.160156 C 212.917969 144.597656 203.4375 147.039062 187.609375 147.070312 L 187.363281 147.070312 C 172.199219 147.039062 162.871094 144.800781 160.726562 144.230469 Z M 157.984375 153.191406 C 156.9375 157.21875 156.429688 160.449219 156.484375 162.789062 C 156.601562 168.300781 167.882812 199.378906 187.484375 248.234375 C 207.089844 199.382812 218.371094 168.304688 218.488281 162.792969 C 218.539062 160.46875 218.0625 157.234375 217.074219 153.175781 C 213.960938 153.75 202.269531 155.722656 187.625 155.753906 L 187.34375 155.753906 C 172.828125 155.722656 161.21875 153.785156 157.984375 153.191406 Z M 147.191406 131.210938 C 147.347656 131.222656 147.488281 131.277344 147.625 131.339844 C 152.828125 126.574219 158.503906 122.964844 164.53125 120.597656 L 165.128906 108.464844 C 158.488281 103.527344 153.46875 97.4375 150.949219 93.253906 C 150.050781 91.746094 149.285156 90.152344 148.632812 88.5 C 147.96875 89.457031 147.273438 90.367188 146.585938 91.25 C 144.851562 93.496094 143.210938 95.613281 142.355469 98.3125 C 139.550781 107.078125 140.855469 119.335938 147.847656 123.863281 C 148.484375 124.277344 148.667969 125.125 148.257812 125.761719 C 147.84375 126.398438 147 126.582031 146.359375 126.167969 C 138.167969 120.867188 136.5625 107.417969 139.738281 97.480469 C 140.742188 94.320312 142.609375 91.90625 144.417969 89.570312 C 145.597656 88.046875 146.820312 86.46875 147.757812 84.714844 C 149.304688 81.84375 149.90625 78.839844 149.652344 75.257812 C 149.496094 73.03125 149.171875 71.234375 148.863281 69.496094 C 148.148438 65.515625 147.476562 61.753906 149.222656 54.421875 C 151.082031 46.605469 164.769531 19.949219 187.484375 22.714844 C 210.183594 19.949219 223.886719 46.605469 225.75 54.421875 C 227.492188 61.753906 226.820312 65.515625 226.105469 69.5 C 225.796875 71.234375 225.476562 73.03125 225.316406 75.257812 C 225.0625 78.839844 225.664062 81.84375 227.210938 84.714844 C 228.152344 86.46875 229.371094 88.046875 230.550781 89.570312 C 232.359375 91.90625 234.226562 94.320312 235.230469 97.484375 C 238.402344 107.40625 236.796875 120.851562 228.613281 126.167969 C 228.382812 126.316406 228.125 126.390625 227.867188 126.390625 C 227.417969 126.390625 226.976562 126.167969 226.714844 125.765625 C 226.300781 125.128906 226.484375 124.277344 227.121094 123.867188 C 234.109375 119.324219 235.417969 107.066406 232.617188 98.316406 C 231.761719 95.613281 230.121094 93.496094 228.382812 91.25 C 227.695312 90.367188 227.003906 89.457031 226.339844 88.5 C 225.675781 90.171875 224.90625 91.765625 224.023438 93.25 C 221.6875 97.113281 216.878906 102.855469 210.261719 107.8125 C 210.371094 107.996094 210.449219 108.199219 210.460938 108.429688 L 211.054688 120.472656 C 217.203125 122.847656 222.9375 126.507812 228.097656 131.371094 L 228.121094 131.394531 C 228.289062 131.296875 228.472656 131.230469 228.675781 131.210938 C 239.5625 130.242188 255.65625 120.800781 257.546875 105.601562 C 258.714844 96.128906 252.371094 78.230469 248.171875 66.382812 C 246.539062 61.78125 245.25 58.144531 244.703125 55.914062 C 244.53125 55.214844 244.347656 54.4375 244.148438 53.601562 C 241.511719 42.53125 236.601562 21.917969 221.605469 12.628906 C 211.660156 5.492188 200.820312 4.125 188.378906 8.410156 C 188.089844 8.511719 187.777344 8.511719 187.488281 8.410156 C 175.050781 4.125 164.210938 5.492188 154.339844 12.578125 C 139.269531 21.917969 134.359375 42.523438 131.722656 53.59375 C 131.519531 54.433594 131.335938 55.210938 131.164062 55.914062 C 130.617188 58.144531 129.328125 61.78125 127.695312 66.382812 C 123.496094 78.230469 117.148438 96.128906 118.316406 105.601562 C 120.210938 120.800781 136.304688 130.242188 147.191406 131.210938 Z M 135.78125 150.898438 L 145.347656 156.492188 C 145.695312 156.695312 145.9375 157.042969 146.003906 157.441406 C 146.074219 157.839844 145.964844 158.25 145.703125 158.5625 L 130.9375 176.132812 C 133.601562 180.875 147.351562 205.175781 161.71875 227.558594 C 170.089844 240.570312 178.390625 250.09375 184.300781 256.148438 L 186.007812 251.914062 C 171.324219 215.410156 153.902344 170.546875 153.738281 162.851562 C 153.675781 160.007812 154.324219 156.089844 155.671875 151.21875 C 156.421875 148.449219 157.390625 145.390625 158.546875 142.128906 C 161.015625 135.109375 163.644531 129.003906 164.175781 127.785156 L 164.382812 123.617188 C 158.757812 126 153.449219 129.539062 148.585938 134.175781 C 147.433594 135.269531 146.535156 136.1875 145.746094 137.066406 C 145.730469 137.082031 145.707031 137.089844 145.695312 137.105469 C 140.300781 142.917969 137.019531 148.570312 135.78125 150.898438 Z M 116.390625 319.347656 C 130.375 331.148438 144.585938 343.234375 149.050781 347.03125 L 169.855469 297.390625 L 122.523438 256.265625 C 120.542969 255.6875 106.847656 252.136719 92.683594 260.253906 C 92.027344 260.628906 91.1875 260.402344 90.8125 259.742188 C 90.4375 259.085938 90.664062 258.246094 91.320312 257.871094 C 103.617188 250.828125 115.332031 251.917969 120.660156 252.984375 C 118.070312 247.605469 112.578125 235.503906 112.152344 228.800781 C 111.960938 225.773438 112.921875 219.984375 114.253906 213.726562 L 108.460938 198.542969 C 108.191406 197.835938 108.546875 197.042969 109.253906 196.773438 C 109.960938 196.5 110.753906 196.855469 111.023438 197.566406 L 115.339844 208.867188 C 117.628906 199 120.335938 189.414062 120.539062 188.703125 C 120.746094 187.972656 121.503906 187.550781 122.234375 187.757812 C 122.960938 187.964844 123.382812 188.722656 123.175781 189.453125 C 123.089844 189.761719 114.378906 220.582031 114.890625 228.625 C 115.371094 236.167969 123.242188 252.0625 124.308594 254.179688 L 172.40625 295.96875 C 172.851562 296.355469 173 296.988281 172.769531 297.535156 L 170.511719 302.925781 C 172.949219 303.835938 179.582031 306.355469 185.8125 309.113281 L 180.308594 266.433594 C 180.304688 266.398438 180.316406 266.367188 180.316406 266.335938 C 180.308594 266.222656 180.316406 266.117188 180.339844 266.003906 C 180.351562 265.945312 180.359375 265.886719 180.378906 265.824219 C 180.390625 265.796875 180.386719 265.769531 180.398438 265.738281 C 180.402344 265.738281 181.441406 263.191406 183.179688 258.917969 C 177.136719 252.832031 168.3125 242.875 159.410156 229.042969 C 143.4375 204.15625 128.230469 176.917969 128.078125 176.644531 C 127.800781 176.144531 127.863281 175.527344 128.226562 175.09375 L 142.558594 158.039062 L 133.28125 152.613281 C 132.667969 152.253906 132.429688 151.492188 132.730469 150.847656 C 132.851562 150.585938 135.324219 145.367188 140.371094 139.078125 C 125.691406 144.257812 110.15625 151.550781 106.082031 158.1875 C 99.3125 169.230469 74.332031 255.054688 74.632812 266.222656 C 74.929688 277.191406 79.632812 289.191406 85.347656 293.546875 C 88.535156 295.988281 98.6875 304.425781 116.390625 319.347656 Z M 210.480469 356.109375 C 209.292969 351.972656 207.480469 347.167969 206.507812 344.585938 C 206.199219 343.757812 205.960938 343.132812 205.84375 342.785156 C 205.8125 342.707031 205.730469 342.519531 205.558594 342.195312 C 204.148438 342.972656 202.644531 343.753906 201.085938 344.542969 C 202.15625 345.960938 202.753906 346.835938 203.058594 347.414062 C 203.847656 348.886719 205.777344 353.242188 207.175781 357.230469 L 207.257812 357.480469 C 207.351562 357.746094 207.433594 358.003906 207.515625 358.265625 C 208.648438 361.367188 209.960938 362.722656 210.742188 362.941406 C 210.957031 363.003906 211.238281 363.019531 211.664062 362.675781 C 211.617188 362.675781 212.042969 361.550781 210.480469 356.109375 Z M 200.292969 357.730469 C 202.664062 362.855469 204.949219 364.488281 205.832031 364.640625 C 205.964844 364.664062 206.042969 364.648438 206.101562 364.621094 C 206.148438 364.304688 206.191406 363.019531 204.925781 359.164062 C 204.835938 358.878906 204.75 358.621094 204.660156 358.355469 L 204.578125 358.121094 C 203.1875 354.148438 201.300781 349.9375 200.636719 348.703125 C 200.3125 348.085938 199.339844 346.773438 198.59375 345.792969 C 196.597656 346.78125 195.019531 347.582031 193.976562 348.175781 C 193.824219 348.257812 193.648438 348.398438 193.46875 348.550781 C 193.679688 348.800781 193.898438 349.046875 194.101562 349.296875 L 194.105469 349.296875 C 194.105469 349.296875 194.105469 349.300781 194.105469 349.300781 C 194.121094 349.316406 194.136719 349.335938 194.152344 349.351562 C 194.15625 349.355469 194.15625 349.363281 194.160156 349.367188 C 194.167969 349.378906 194.179688 349.390625 194.191406 349.40625 C 196.449219 352.0625 199.34375 355.664062 200.292969 357.730469 Z M 192.023438 351.085938 C 191.886719 350.917969 191.738281 350.753906 191.597656 350.585938 C 191.109375 351.199219 190.59375 351.863281 190.0625 352.5625 C 189.867188 352.820312 189.65625 353.085938 189.457031 353.351562 C 190.101562 354.136719 190.660156 354.777344 191.210938 355.359375 C 191.484375 355.652344 191.761719 355.945312 192.050781 356.222656 C 193.40625 357.527344 195.296875 358.519531 196.4375 358.945312 C 195.972656 357.492188 194.398438 354.523438 192.023438 351.085938 Z M 212.898438 354.617188 C 212.910156 354.628906 212.929688 354.632812 212.941406 354.644531 C 213.46875 355.113281 214.164062 355.472656 214.515625 355.53125 C 214.5 353.328125 211.820312 344.847656 209.890625 339.582031 C 209.328125 339.96875 208.683594 340.382812 207.941406 340.832031 C 208.164062 341.253906 208.328125 341.59375 208.425781 341.855469 C 208.550781 342.222656 208.777344 342.820312 209.078125 343.617188 C 210.007812 346.085938 211.6875 350.554688 212.898438 354.617188 Z M 214.179688 326.332031 C 214.1875 326.292969 214.214844 326.265625 214.226562 326.226562 L 205.582031 305.605469 C 203.089844 306.535156 197.1875 308.78125 191.46875 311.277344 C 190.394531 311.757812 189.332031 312.238281 188.28125 312.71875 C 188.273438 312.722656 188.265625 312.722656 188.257812 312.722656 C 188.246094 312.730469 188.230469 312.734375 188.214844 312.742188 C 180.511719 316.304688 178.726562 318.027344 178.316406 318.601562 C 175.203125 322.992188 167.742188 334.613281 166.511719 337.085938 C 166.773438 337.578125 166.730469 338.191406 166.339844 338.632812 C 166.175781 338.824219 165.964844 338.933594 165.742188 339.007812 C 163.796875 344.246094 160.933594 353.25 160.90625 355.535156 C 161.277344 355.472656 162.003906 355.070312 162.476562 354.644531 C 162.484375 354.636719 162.496094 354.636719 162.503906 354.628906 C 163.722656 350.578125 165.398438 346.117188 166.328125 343.652344 C 166.632812 342.839844 166.867188 342.226562 166.980469 341.890625 C 167.886719 339.324219 175.957031 327.859375 176.875 326.5625 C 177.308594 325.941406 178.167969 325.796875 178.785156 326.230469 C 179.40625 326.667969 179.550781 327.527344 179.113281 328.144531 C 175.734375 332.929688 170.15625 341.140625 169.574219 342.792969 C 169.453125 343.136719 169.214844 343.777344 168.894531 344.621094 C 167.921875 347.199219 166.117188 351.992188 164.921875 356.117188 C 163.375 361.578125 163.804688 362.683594 163.859375 362.792969 C 164.179688 363.015625 164.457031 363.003906 164.679688 362.941406 C 165.457031 362.722656 166.765625 361.371094 167.898438 358.277344 C 167.972656 358.039062 168.0625 357.769531 168.15625 357.492188 L 168.238281 357.25 C 169.644531 353.238281 171.570312 348.882812 172.367188 347.402344 C 173.808594 344.726562 182.65625 334.21875 183.660156 333.027344 C 184.148438 332.449219 185.011719 332.375 185.59375 332.863281 C 186.171875 333.355469 186.242188 334.21875 185.753906 334.796875 C 183.078125 337.972656 175.886719 346.652344 174.785156 348.703125 C 174.121094 349.933594 172.234375 354.144531 170.832031 358.136719 L 170.753906 358.371094 C 170.667969 358.628906 170.582031 358.878906 170.507812 359.132812 C 169.226562 363.011719 169.273438 364.304688 169.320312 364.621094 C 169.375 364.648438 169.453125 364.664062 169.589844 364.640625 C 170.46875 364.488281 172.753906 362.855469 175.125 357.730469 C 175.863281 356.128906 177.914062 353.328125 181.226562 349.410156 C 181.226562 349.410156 181.226562 349.40625 181.230469 349.40625 C 181.242188 349.390625 181.253906 349.375 181.265625 349.359375 C 181.269531 349.355469 181.269531 349.347656 181.273438 349.34375 C 185 344.914062 189.082031 340.53125 189.121094 340.488281 C 189.640625 339.933594 190.507812 339.902344 191.0625 340.417969 C 191.617188 340.9375 191.644531 341.804688 191.128906 342.359375 C 191.089844 342.402344 187.070312 346.71875 183.398438 351.082031 C 181.234375 354.210938 179.464844 357.386719 178.976562 358.945312 C 180.113281 358.527344 182.007812 357.535156 183.355469 356.230469 C 184.515625 355.121094 185.613281 353.785156 186.640625 352.507812 C 187.058594 351.972656 187.476562 351.425781 187.882812 350.894531 C 188.832031 349.652344 189.730469 348.476562 190.574219 347.542969 C 191.34375 346.691406 192 346.128906 192.640625 345.777344 C 193.902344 345.0625 195.851562 344.082031 198.390625 342.832031 C 200.882812 341.574219 203.304688 340.34375 205.410156 339.144531 C 207.109375 338.164062 208.371094 337.347656 209.261719 336.648438 C 209.355469 336.578125 209.410156 336.511719 209.480469 336.433594 C 212.773438 333.453125 214.167969 326.402344 214.179688 326.332031 Z M 176.082031 317.011719 C 176.476562 316.457031 177.609375 314.878906 184.441406 311.503906 C 178.234375 308.773438 171.71875 306.304688 169.449219 305.460938 L 160.941406 325.757812 C 161.074219 325.921875 161.175781 326.109375 161.21875 326.332031 C 161.234375 326.394531 162.269531 331.578125 164.585938 334.898438 C 166.886719 330.839844 173.347656 320.863281 176.082031 317.011719 Z M 106.171875 393.851562 C 114.660156 398.207031 129.816406 404.1875 138 405.8125 C 150.023438 408.191406 170.785156 407.8125 174.757812 404.191406 C 178.277344 400.976562 183.890625 383.671875 185.816406 377.082031 L 187.222656 357.585938 C 187.269531 356.929688 187.777344 356.429688 188.402344 356.347656 C 188.175781 356.089844 187.941406 355.816406 187.699219 355.527344 C 186.921875 356.460938 186.121094 357.382812 185.257812 358.210938 C 183.542969 359.867188 180.058594 361.890625 178.082031 361.890625 C 177.789062 361.890625 177.53125 361.847656 177.316406 361.75 C 176.96875 361.589844 176.714844 361.328125 176.511719 361.03125 C 174.476562 364.667969 172.140625 366.988281 170.050781 367.34375 C 169.851562 367.378906 169.65625 367.394531 169.464844 367.394531 C 168.621094 367.394531 167.855469 367.074219 167.257812 366.460938 C 166.957031 366.148438 166.699219 365.730469 166.601562 365.015625 C 166.230469 365.257812 165.839844 365.464844 165.414062 365.585938 C 165.132812 365.664062 164.804688 365.71875 164.4375 365.71875 C 163.734375 365.71875 162.894531 365.503906 162.035156 364.8125 C 161.042969 364.007812 160.597656 362.484375 161.5625 358.183594 C 161.296875 358.242188 161.035156 358.285156 160.78125 358.285156 C 160.011719 358.285156 159.289062 358.011719 158.699219 357.359375 C 156.828125 355.238281 161.859375 341.492188 163.300781 337.699219 C 161.289062 335.472656 159.996094 332.136719 159.269531 329.746094 L 150.855469 349.824219 C 150.6875 350.226562 150.332031 350.527344 149.90625 350.628906 C 149.800781 350.652344 149.695312 350.664062 149.589844 350.664062 C 149.265625 350.664062 148.949219 350.550781 148.699219 350.339844 C 148.699219 350.339844 132.628906 336.648438 116.316406 322.875 C 110.199219 348.128906 101.355469 386.929688 101.832031 391.28125 C 102.140625 391.554688 103.136719 392.304688 106.171875 393.851562 Z M 167.230469 734.25 C 166.449219 734.449219 165.648438 734.640625 164.828125 734.820312 L 164.195312 762.679688 C 164.1875 763.117188 163.972656 763.519531 163.617188 763.769531 C 163.382812 763.9375 163.105469 764.023438 162.824219 764.023438 C 162.679688 764.023438 162.535156 764 162.394531 763.953125 C 162.277344 763.914062 150.710938 760.109375 141.371094 759.269531 C 132.15625 758.445312 121.816406 761.632812 121.714844 761.664062 C 121.28125 761.800781 120.804688 761.710938 120.445312 761.425781 C 120.089844 761.140625 119.898438 760.695312 119.9375 760.238281 L 122.117188 734.570312 C 121.449219 734.402344 120.789062 734.234375 120.128906 734.058594 C 116.804688 751.105469 114.09375 769.511719 115.1875 771.722656 C 117.679688 774.101562 136.996094 786.988281 142.867188 787.914062 C 144.796875 788.230469 149.871094 785.480469 156.871094 778.695312 C 163.097656 772.664062 167.132812 767.011719 167.441406 765.03125 C 168.136719 760.527344 167.453125 740.273438 167.230469 734.25 Z M 141.617188 756.535156 C 149.167969 757.214844 157.835938 759.671875 161.496094 760.789062 L 162.070312 735.394531 C 155.996094 736.628906 149.90625 737.375 143.953125 737.558594 C 143.503906 737.574219 143.046875 737.582031 142.582031 737.582031 C 137.574219 737.582031 131.605469 736.78125 124.816406 735.222656 L 122.839844 758.5 C 126.390625 757.574219 134.214844 755.863281 141.617188 756.535156 Z M 253.597656 734.0625 C 252.9375 734.234375 252.277344 734.402344 251.609375 734.570312 L 253.789062 760.238281 C 253.828125 760.695312 253.636719 761.140625 253.28125 761.425781 C 252.925781 761.710938 252.445312 761.800781 252.011719 761.664062 C 251.910156 761.632812 241.574219 758.429688 232.355469 759.269531 C 223.015625 760.109375 211.449219 763.914062 211.335938 763.953125 C 211.191406 764 211.046875 764.023438 210.902344 764.023438 C 210.625 764.023438 210.347656 763.9375 210.113281 763.769531 C 209.757812 763.523438 209.542969 763.117188 209.53125 762.679688 L 208.898438 734.820312 C 208.085938 734.640625 207.285156 734.453125 206.496094 734.25 C 206.273438 740.273438 205.589844 760.527344 206.289062 765.03125 C 206.59375 767.011719 210.628906 772.664062 216.855469 778.695312 C 223.855469 785.480469 228.941406 788.199219 230.863281 787.914062 C 236.734375 786.988281 256.046875 774.101562 258.648438 771.589844 C 259.636719 769.507812 256.921875 751.105469 253.597656 734.0625 Z M 212.234375 760.789062 C 215.894531 759.671875 224.5625 757.214844 232.109375 756.535156 C 239.511719 755.871094 247.335938 757.574219 250.886719 758.5 L 248.910156 735.222656 C 242.125 736.78125 236.152344 737.582031 231.144531 737.582031 C 230.679688 737.582031 230.222656 737.574219 229.773438 737.558594 C 223.824219 737.375 217.738281 736.628906 211.65625 735.394531 Z M 267.339844 397.339844 C 267.285156 397.367188 267.238281 397.390625 267.179688 397.417969 C 258.375 401.652344 244.632812 406.957031 236.882812 408.503906 C 232.3125 409.40625 225.214844 410.046875 218.242188 410.046875 C 209.433594 410.046875 200.820312 409.027344 197.746094 406.222656 C 194.085938 402.875 189.445312 389.265625 187.175781 382.042969 C 184.902344 389.265625 180.265625 402.875 176.605469 406.222656 C 173.527344 409.023438 164.914062 410.046875 156.105469 410.046875 C 149.128906 410.046875 142.035156 409.40625 137.46875 408.503906 C 128.828125 406.789062 114.265625 400.894531 106.347656 397.007812 C 111.332031 440.179688 114 499.125 113.652344 520.992188 C 113.226562 547.300781 98.148438 708.914062 96.808594 723.230469 C 99.671875 724.425781 108.90625 728.144531 119.425781 731.046875 C 120.886719 731.441406 122.375 731.835938 123.898438 732.195312 C 131.75 734.097656 138.449219 734.980469 143.871094 734.816406 C 150.207031 734.621094 156.703125 733.800781 163.1875 732.378906 C 164.929688 732.015625 166.601562 731.609375 168.167969 731.171875 C 172.511719 730.015625 175.65625 728.886719 177.070312 728.347656 C 177.101562 714.691406 177.457031 557.585938 177.882812 542.804688 C 178.304688 528.246094 184.679688 440.070312 185.425781 429.78125 L 174.359375 424.992188 C 173.664062 424.691406 173.34375 423.882812 173.644531 423.1875 C 173.945312 422.488281 174.75 422.167969 175.449219 422.472656 L 187.410156 427.652344 C 187.695312 427.773438 187.917969 427.992188 188.058594 428.253906 C 188.082031 428.292969 188.09375 428.339844 188.113281 428.382812 C 188.160156 428.492188 188.191406 428.605469 188.207031 428.726562 C 188.214844 428.753906 188.230469 428.78125 188.234375 428.8125 C 188.304688 429.796875 195.417969 527.417969 195.863281 542.804688 C 196.289062 557.585938 196.625 714.691406 196.65625 728.347656 C 198.070312 728.886719 201.214844 730.011719 205.542969 731.164062 C 207.132812 731.613281 208.800781 732.015625 210.527344 732.375 C 217.023438 733.800781 223.523438 734.621094 229.859375 734.816406 C 235.25 734.976562 241.972656 734.097656 249.820312 732.195312 C 251.351562 731.835938 252.839844 731.441406 254.308594 731.046875 C 264.832031 728.144531 274.058594 724.425781 276.917969 723.230469 C 275.578125 708.914062 260.519531 547.300781 260.078125 520.996094 C 259.726562 499.183594 262.382812 440.484375 267.339844 397.339844 Z M 258.167969 323.292969 C 242.023438 336.917969 226.269531 350.339844 226.269531 350.339844 C 226.019531 350.550781 225.703125 350.667969 225.378906 350.667969 C 225.273438 350.667969 225.167969 350.65625 225.0625 350.628906 C 224.636719 350.527344 224.285156 350.230469 224.113281 349.824219 L 215.945312 330.335938 C 215.199219 332.652344 213.960938 335.625 212.109375 337.675781 C 213.550781 341.445312 218.621094 355.234375 216.71875 357.355469 C 216.132812 358.011719 215.40625 358.285156 214.636719 358.285156 C 214.375 358.285156 214.109375 358.242188 213.84375 358.183594 C 214.679688 361.875 214.53125 363.886719 213.386719 364.8125 C 212.523438 365.503906 211.6875 365.71875 210.980469 365.71875 C 210.613281 365.71875 210.285156 365.664062 210.003906 365.585938 C 209.578125 365.464844 209.191406 365.257812 208.816406 365.015625 C 208.71875 365.730469 208.460938 366.152344 208.15625 366.464844 C 207.5625 367.074219 206.796875 367.394531 205.953125 367.394531 C 205.761719 367.394531 205.566406 367.378906 205.371094 367.34375 C 203.277344 366.988281 200.941406 364.667969 198.910156 361.035156 C 198.707031 361.328125 198.457031 361.585938 198.128906 361.738281 C 197.90625 361.835938 197.640625 361.882812 197.34375 361.882812 C 195.351562 361.882812 191.871094 359.863281 190.15625 358.203125 C 190.082031 358.136719 190.011719 358.058594 189.941406 357.988281 L 188.558594 377.179688 C 190.507812 383.824219 196.085938 400.988281 199.59375 404.195312 C 203.5625 407.8125 224.324219 408.1875 236.347656 405.8125 C 243.882812 404.308594 257.339844 399.105469 265.996094 394.941406 C 270.753906 392.667969 272.160156 391.613281 272.53125 391.28125 C 273.003906 386.960938 264.4375 349.265625 258.167969 323.292969 Z M 300.335938 266.222656 C 300.640625 255.050781 275.65625 169.230469 268.886719 158.1875 C 264.183594 150.523438 245.433594 142.964844 235.21875 139.304688 C 239.945312 145.519531 242.152344 150.636719 242.261719 150.894531 C 242.53125 151.527344 242.285156 152.265625 241.691406 152.613281 L 232.414062 158.039062 L 246.742188 175.09375 C 247.109375 175.53125 247.167969 176.144531 246.890625 176.644531 C 246.738281 176.917969 231.535156 204.160156 215.558594 229.042969 C 200.910156 251.8125 186.28125 264.296875 183.128906 266.851562 L 188.550781 308.914062 C 188.585938 309.175781 188.523438 309.417969 188.417969 309.644531 C 189.066406 309.351562 189.703125 309.058594 190.359375 308.765625 C 196.058594 306.28125 201.9375 304.039062 204.519531 303.070312 L 202.199219 297.535156 C 201.96875 296.992188 202.117188 296.359375 202.5625 295.96875 L 250.664062 254.179688 C 251.730469 252.058594 259.597656 236.164062 260.078125 228.625 C 260.589844 220.582031 251.878906 189.765625 251.792969 189.453125 C 251.585938 188.722656 252.007812 187.964844 252.738281 187.757812 C 253.472656 187.554688 254.226562 187.976562 254.433594 188.703125 C 254.632812 189.414062 257.34375 199 259.632812 208.867188 L 263.945312 197.566406 C 264.214844 196.855469 265.011719 196.503906 265.714844 196.773438 C 266.421875 197.042969 266.777344 197.835938 266.507812 198.546875 L 260.714844 213.726562 C 262.046875 219.984375 263.011719 225.773438 262.816406 228.800781 C 262.390625 235.507812 256.898438 247.609375 254.308594 252.984375 C 259.636719 251.917969 271.351562 250.824219 283.648438 257.871094 C 284.304688 258.246094 284.535156 259.085938 284.15625 259.742188 C 283.78125 260.402344 282.945312 260.628906 282.285156 260.253906 C 268.121094 252.136719 254.425781 255.683594 252.445312 256.265625 L 205.113281 297.390625 L 207.617188 303.355469 C 207.621094 303.371094 207.628906 303.378906 207.636719 303.390625 C 207.636719 303.398438 207.636719 303.40625 207.640625 303.414062 L 225.921875 347.03125 C 230.269531 343.328125 243.886719 331.75 257.523438 320.242188 C 257.589844 319.6875 257.976562 319.203125 258.550781 319.0625 C 258.675781 319.035156 258.796875 319.042969 258.917969 319.050781 C 276.050781 304.605469 286.390625 296.019531 289.625 293.550781 C 295.335938 289.195312 300.039062 277.191406 300.335938 266.222656 Z M 198.382812 274.519531 C 198.382812 277.578125 196.03125 280.0625 193.144531 280.0625 C 190.238281 280.0625 187.871094 277.578125 187.871094 274.527344 C 187.871094 271.488281 190.230469 269.015625 193.128906 269.015625 C 196.003906 269.015625 198.359375 271.484375 198.382812 274.519531 Z M 195.636719 274.527344 C 195.625 273.003906 194.5 271.757812 193.128906 271.757812 C 191.742188 271.757812 190.617188 273 190.617188 274.527344 C 190.617188 276.066406 191.75 277.316406 193.144531 277.316406 C 194.519531 277.316406 195.636719 276.066406 195.636719 274.527344 Z M 127.824219 538.683594 C 127.339844 538.101562 126.472656 538.023438 125.894531 538.511719 C 125.3125 539 125.238281 539.867188 125.722656 540.445312 L 136.042969 552.753906 C 136.316406 553.078125 136.703125 553.246094 137.097656 553.246094 C 137.40625 553.246094 137.71875 553.140625 137.976562 552.925781 C 138.558594 552.4375 138.632812 551.570312 138.144531 550.992188 Z M 245.898438 538.683594 L 235.582031 550.992188 C 235.09375 551.570312 235.171875 552.4375 235.75 552.925781 C 236.007812 553.140625 236.320312 553.246094 236.632812 553.246094 C 237.023438 553.246094 237.414062 553.078125 237.683594 552.753906 L 248.003906 540.445312 C 248.492188 539.867188 248.414062 539 247.832031 538.511719 C 247.253906 538.023438 246.386719 538.101562 245.898438 538.683594 Z M 209.660156 63.335938 C 209.746094 63.25 209.832031 63.148438 209.917969 63.0625 C 210.488281 62.351562 210.832031 61.472656 210.832031 60.523438 C 210.832031 59.554688 210.488281 58.675781 209.917969 57.96875 C 209.832031 57.882812 209.746094 57.777344 209.660156 57.691406 C 208.933594 56.964844 207.933594 56.519531 206.828125 56.519531 C 204.636719 56.519531 202.84375 58.3125 202.84375 60.523438 C 202.84375 62.714844 204.636719 64.511719 206.828125 64.511719 C 207.933594 64.511719 208.933594 64.0625 209.660156 63.335938 Z M 170.953125 57.691406 C 170.226562 56.964844 169.226562 56.519531 168.140625 56.519531 C 165.929688 56.519531 164.136719 58.3125 164.136719 60.523438 C 164.136719 62.714844 165.929688 64.511719 168.140625 64.511719 C 169.226562 64.511719 170.226562 64.0625 170.953125 63.335938 C 171.039062 63.25 171.125 63.148438 171.210938 63.058594 C 171.78125 62.351562 172.125 61.472656 172.125 60.523438 C 172.125 59.554688 171.78125 58.675781 171.210938 57.96875 C 171.125 57.882812 171.039062 57.777344 170.953125 57.691406 Z M 170.953125 57.691406 "/></g></g></svg>