<svg xmlns="http://www.w3.org/2000/svg" xmlns:xlink="http://www.w3.org/1999/xlink" width="500" zoomAndPan="magnify" viewBox="0 0 375 374.999991" height="500" preserveAspectRatio="xMidYMid meet" version="1.2"><g id="ae308ace40"><path style=" stroke:none;fill-rule:nonzero;fill:#be3852;fill-opacity:1;" d="M 336.441406 166.277344 C 328.488281 160.546875 311.3125 154.171875 302.160156 151 C 302.300781 150.644531 302.214844 150.222656 301.910156 149.957031 C 301.519531 149.609375 300.921875 149.648438 300.578125 150.039062 C 300.480469 150.148438 300.386719 150.253906 300.292969 150.359375 C 297.726562 149.488281 296.132812 148.980469 296.132812 148.980469 C 296.089844 148.964844 296.027344 148.984375 295.960938 149.003906 L 294.527344 118.574219 C 297.292969 117.398438 299.773438 115.570312 301.679688 113.230469 C 304.6875 109.539062 306.179688 104.707031 305.777344 99.964844 C 305.445312 96.09375 303.773438 93.039062 301.183594 91.585938 C 301.09375 91.539062 301 91.507812 300.910156 91.464844 C 304.011719 85.496094 307.117188 79.523438 310.21875 73.554688 C 312.605469 68.957031 315.234375 65.167969 317.816406 60.800781 C 320.148438 56.847656 321.246094 52.152344 320.792969 47.578125 C 320.140625 40.988281 316.277344 34.789062 310.644531 31.296875 C 308.851562 30.183594 306.835938 29.289062 305.527344 27.628906 C 304.328125 26.109375 303.886719 24.148438 303.113281 22.375 C 301.148438 17.867188 296.796875 14.492188 291.941406 13.707031 C 289.886719 13.375 287.769531 13.515625 285.761719 14.058594 C 284.148438 14.496094 281.710938 16.699219 280.257812 16.75 C 277.492188 16.851562 275.398438 11.851562 273.503906 9.929688 C 268.621094 4.980469 261.9375 1.757812 254.976562 1.289062 C 244.929688 0.613281 234.695312 5.703125 229.171875 14.121094 C 223.5625 10.84375 215.785156 11.871094 211.21875 16.496094 C 208.851562 18.894531 207.460938 22.160156 207.144531 25.5 C 206.957031 27.496094 208.601562 30.519531 207.765625 32.34375 C 207.054688 33.898438 204.960938 34.136719 203.609375 35.035156 C 199.589844 37.707031 197.039062 42.492188 196.765625 47.273438 C 196.421875 53.226562 199.335938 59.132812 203.875 63 C 206.59375 65.316406 209.691406 67.070312 212.988281 68.339844 C 212.71875 80.65625 212.449219 92.972656 212.179688 105.289062 C 212.089844 109.382812 211.859375 116.59375 211.632812 123.144531 C 211.613281 123.144531 211.589844 123.132812 211.570312 123.132812 C 211.046875 123.152344 210.640625 123.589844 210.65625 124.113281 L 211.15625 138.203125 L 211.910156 138.335938 C 212.636719 138.464844 223.109375 140.304688 234.105469 141.785156 L 235.488281 160.828125 C 235.386719 160.574219 235.335938 160.425781 235.328125 160.425781 C 234.042969 160.371094 232.761719 160.371094 231.484375 160.425781 C 231.410156 160.125 231.324219 159.824219 231.269531 159.515625 C 231.175781 159.003906 230.691406 158.660156 230.171875 158.753906 C 229.65625 158.847656 229.316406 159.339844 229.410156 159.855469 C 229.453125 160.085938 229.519531 160.3125 229.570312 160.542969 C 228.871094 160.601562 228.175781 160.675781 227.480469 160.765625 C 207.578125 163.320312 188.660156 178.074219 173.171875 189.359375 L 159.917969 177.476562 C 159.539062 177.136719 158.976562 177.164062 158.625 177.515625 C 156.652344 175.539062 150.425781 169.300781 143.507812 162.445312 C 146.015625 162.457031 148.371094 161.90625 149.980469 159.808594 C 152.125 157.019531 152.5 152.1875 152.984375 148.835938 C 154.328125 139.605469 155.160156 130.300781 155.476562 120.976562 C 155.5625 118.394531 155.761719 115.605469 155.683594 112.859375 C 155.652344 112.832031 155.621094 112.804688 155.589844 112.773438 C 155.828125 112.457031 155.871094 112.027344 155.492188 111.664062 C 150.140625 106.539062 144.792969 101.410156 139.441406 96.285156 C 139.113281 95.96875 138.5625 95.9375 138.167969 96.128906 C 134.453125 96.179688 130.742188 96.230469 127.027344 96.28125 C 126.46875 96.289062 126.191406 96.6875 126.15625 97.117188 C 125.128906 97.128906 124.097656 97.144531 123.070312 97.15625 C 123.039062 94.769531 122.996094 92.382812 122.957031 89.996094 C 119.527344 88.699219 116.195312 87.148438 112.953125 85.429688 C 108.382812 85.996094 103.691406 87.261719 100.691406 87.648438 C 98.742188 87.902344 96.738281 88.171875 95.027344 89.136719 C 94.640625 89.355469 94.28125 89.613281 93.941406 89.898438 C 93.9375 90.105469 93.933594 90.316406 93.929688 90.527344 C 92.726562 90.257812 91.441406 90.136719 90.070312 90.152344 C 90.195312 89.578125 89.78125 88.835938 89.003906 88.921875 C 86.015625 89.246094 83.023438 89.570312 80.035156 89.890625 C 77.449219 90.171875 74.65625 90.296875 72.3125 91.554688 C 68.09375 93.816406 67.40625 98.816406 67.121094 103.136719 C 67.105469 103.417969 67.199219 103.636719 67.347656 103.800781 C 67.34375 103.816406 67.34375 103.828125 67.34375 103.839844 C 64.714844 103.636719 62.085938 103.433594 59.460938 103.230469 C 57.679688 100.496094 55.558594 98.6875 53.210938 98.128906 L 30.171875 96.988281 C 30.167969 96.988281 30.167969 96.988281 30.164062 96.984375 C 30.164062 96.984375 30.164062 96.988281 30.160156 96.988281 L 30.140625 96.984375 L 30.140625 96.992188 C 22.566406 98.0625 16.003906 111.675781 15.164062 128.621094 C 14.328125 145.570312 19.511719 159.773438 26.945312 161.585938 L 26.945312 161.59375 L 39.296875 162.203125 C 38.980469 162.757812 39.160156 163.589844 39.972656 163.605469 C 43.457031 163.691406 46.941406 163.773438 50.425781 163.855469 C 50.828125 163.867188 51.101562 163.65625 51.265625 163.382812 C 52.367188 162.554688 53.375 161.667969 54.3125 160.738281 C 55.140625 160.070312 55.945312 159.253906 56.710938 158.300781 C 57.203125 158.339844 57.691406 158.378906 58.183594 158.414062 C 58.050781 158.625 57.941406 158.839844 57.859375 159.058594 C 57.730469 159.261719 57.667969 159.503906 57.667969 159.75 C 57.402344 161.289062 58.097656 162.945312 59.09375 164.203125 C 60.605469 166.109375 62.710938 167.476562 64.925781 168.441406 C 64.964844 168.578125 65.03125 168.714844 65.15625 168.839844 C 68.070312 171.839844 71.785156 174.003906 75.828125 175.074219 C 76.371094 175.214844 76.75 174.902344 76.902344 174.496094 C 81.894531 175.230469 90.144531 174.851562 96.957031 174.515625 C 97.078125 174.742188 97.273438 174.898438 97.527344 174.980469 L 104.207031 201.429688 L 104.199219 201.429688 C 104.199219 201.429688 104.792969 203.738281 105.6875 207.289062 L 105.191406 207.40625 C 104.683594 207.53125 104.371094 208.039062 104.496094 208.546875 C 104.597656 208.980469 104.984375 209.273438 105.414062 209.273438 C 105.484375 209.273438 105.5625 209.265625 105.632812 209.246094 L 106.144531 209.121094 C 109 220.519531 113.972656 240.957031 113.921875 244.636719 C 113.847656 249.644531 158.472656 262.023438 160.933594 262.699219 L 171.945312 283.460938 L 163.996094 354.640625 L 163.890625 354.640625 C 163.367188 354.640625 162.945312 355.0625 162.945312 355.585938 C 162.945312 356.070312 163.316406 356.453125 163.785156 356.507812 L 161.832031 374.035156 C 161.832031 374.035156 322.203125 374.480469 326.210938 374.035156 C 326.859375 373.960938 328.160156 369.5625 329.886719 362.234375 L 329.933594 362.242188 C 329.992188 362.253906 330.046875 362.261719 330.105469 362.261719 C 330.554688 362.261719 330.949219 361.941406 331.035156 361.484375 C 331.125 360.988281 330.804688 360.515625 330.316406 360.402344 C 339.433594 320.8125 359.085938 208.441406 359.875 205.78125 C 360.832031 202.554688 347.566406 174.292969 336.441406 166.277344 Z M 336.441406 166.277344 "/><path style=" stroke:none;fill-rule:nonzero;fill:#fec782;fill-opacity:1;" d="M 67.375 103.839844 C 67.363281 103.839844 67.351562 103.839844 67.34375 103.839844 C 67.34375 103.824219 67.34375 103.8125 67.347656 103.800781 C 67.355469 103.8125 67.363281 103.828125 67.375 103.839844 Z M 89.347656 90.78125 C 86.628906 91.074219 83.910156 91.367188 81.195312 91.660156 C 78.835938 91.917969 76.28125 91.972656 74.046875 92.835938 C 69.777344 94.492188 69.269531 99.296875 69.007812 103.28125 C 68.988281 103.585938 68.855469 103.804688 68.667969 103.941406 C 69.4375 104.003906 70.207031 104.0625 70.976562 104.121094 C 71.085938 103.027344 71.195312 101.933594 71.304688 100.839844 C 71.382812 100.246094 71.457031 99.65625 71.53125 99.0625 C 75.105469 97.152344 79.378906 97.683594 83.320312 97.644531 C 86.847656 97.609375 90.375 97.558594 93.902344 97.515625 C 93.898438 97.382812 93.890625 97.25 93.886719 97.121094 C 93.800781 94.949219 93.878906 92.738281 93.929688 90.527344 C 92.726562 90.261719 91.441406 90.136719 90.070312 90.152344 C 90.003906 90.464844 89.777344 90.734375 89.347656 90.78125 Z M 235.488281 160.824219 L 234.105469 141.78125 C 241.691406 142.804688 249.527344 143.65625 254.582031 143.65625 C 267.277344 143.65625 274.148438 136.542969 274.433594 136.242188 C 274.792969 135.863281 274.777344 135.265625 274.398438 134.90625 C 274.019531 134.546875 273.417969 134.5625 273.0625 134.941406 C 272.996094 135.011719 266.472656 141.765625 254.582031 141.765625 C 243.460938 141.765625 217.726562 137.421875 212.992188 136.605469 L 212.546875 124.042969 C 212.527344 123.546875 212.089844 123.167969 211.632812 123.144531 C 211.855469 116.59375 212.089844 109.382812 212.179688 105.289062 C 212.449219 92.972656 212.71875 80.65625 212.988281 68.339844 C 220.96875 71.417969 230.171875 71.605469 238.339844 69.582031 C 241.113281 68.894531 243.828125 67.941406 246.402344 66.695312 C 248.46875 65.691406 251.660156 62.71875 253.59375 63.140625 C 254.433594 63.320312 256.355469 65.714844 257.304688 66.277344 C 262.949219 69.632812 276.375 65.046875 276.375 65.046875 L 276.085938 74.777344 L 281.367188 76.214844 L 280.257812 105.238281 L 287.265625 104.566406 L 289.871094 92.402344 L 290.734375 92.339844 C 290.738281 92.382812 290.726562 92.421875 290.738281 92.464844 C 290.855469 92.972656 291.359375 93.292969 291.871094 93.171875 C 294.957031 92.460938 297.921875 91.929688 300.253906 93.238281 C 303.144531 94.855469 303.761719 98.59375 303.890625 100.125 C 304.253906 104.382812 302.910156 108.722656 300.210938 112.035156 C 297.511719 115.347656 293.53125 117.539062 289.289062 118.046875 C 288.769531 118.109375 288.398438 118.578125 288.460938 119.097656 C 288.519531 119.578125 288.925781 119.929688 289.398438 119.929688 C 289.4375 119.929688 289.472656 119.929688 289.511719 119.921875 C 291.242188 119.714844 292.929688 119.253906 294.523438 118.574219 L 295.960938 149.003906 C 293.359375 149.773438 271.457031 175.554688 253.335938 172.527344 C 240.191406 170.75 236.265625 162.707031 235.488281 160.824219 Z M 216.21875 78.527344 C 219.085938 76.089844 223.046875 75.039062 226.746094 75.664062 C 227.941406 75.867188 228.355469 74.023438 227.148438 73.816406 C 222.738281 73.070312 218.234375 74.34375 214.835938 77.234375 C 214.445312 77.5625 214.539062 78.25 214.878906 78.570312 C 215.289062 78.953125 215.828125 78.859375 216.21875 78.527344 Z M 222.515625 88.214844 C 222.515625 86.648438 221.242188 85.378906 219.675781 85.378906 C 218.109375 85.378906 216.839844 86.648438 216.839844 88.214844 C 216.839844 89.78125 218.109375 91.050781 219.675781 91.050781 C 221.242188 91.050781 222.515625 89.78125 222.515625 88.214844 Z M 225.441406 102.027344 C 226.023438 99.9375 226.636719 97.859375 227.234375 95.777344 C 228.480469 91.429688 229.730469 87.082031 230.976562 82.734375 C 231.3125 81.566406 229.511719 80.984375 229.171875 82.15625 C 227.753906 87.105469 226.332031 92.054688 224.914062 97 C 223.914062 100.488281 221.324219 105.980469 224.722656 108.945312 C 225.628906 109.738281 227.054688 108.492188 226.140625 107.695312 C 224.4375 106.203125 224.902344 103.960938 225.441406 102.027344 Z M 249.679688 119.738281 C 244.21875 122.5 237.804688 122.988281 232.003906 121.007812 C 230.851562 120.617188 230.148438 122.371094 231.300781 122.765625 C 237.558594 124.898438 244.519531 124.460938 250.425781 121.476562 C 251.507812 120.929688 250.769531 119.1875 249.679688 119.738281 Z M 251.359375 89.632812 C 251.359375 88.066406 250.085938 86.796875 248.519531 86.796875 C 246.953125 86.796875 245.683594 88.066406 245.683594 89.632812 C 245.683594 91.199219 246.953125 92.46875 248.519531 92.46875 C 250.085938 92.46875 251.359375 91.199219 251.359375 89.632812 Z M 263.972656 80.363281 C 259.355469 75.378906 251.832031 73.472656 245.402344 75.695312 C 244.261719 76.09375 244.730469 77.925781 245.882812 77.527344 C 251.71875 75.507812 258.433594 77.164062 262.636719 81.703125 C 263.464844 82.597656 264.800781 81.257812 263.972656 80.363281 Z M 57.667969 159.75 C 57.707031 159.515625 57.769531 159.285156 57.855469 159.058594 C 57.726562 159.261719 57.667969 159.5 57.667969 159.75 Z M 129.222656 201.609375 L 130.015625 201.417969 C 130.523438 201.292969 131.035156 201.605469 131.160156 202.113281 C 131.28125 202.621094 130.96875 203.132812 130.460938 203.253906 L 130.324219 203.289062 C 130.464844 203.507812 130.605469 203.71875 130.746094 203.933594 C 130.769531 203.917969 130.785156 203.894531 130.808594 203.878906 C 131.269531 203.632812 131.84375 203.8125 132.089844 204.273438 L 135.71875 211.117188 L 158.734375 178.953125 L 158.65625 178.882812 C 158.265625 178.535156 158.234375 177.933594 158.582031 177.546875 C 158.59375 177.53125 158.613281 177.527344 158.625 177.515625 C 156.65625 175.539062 150.425781 169.300781 143.511719 162.445312 C 134.085938 153.097656 123.421875 142.644531 120.648438 140.402344 C 118.949219 139.03125 116.058594 137.347656 112.75 135.492188 C 112.175781 135.167969 111.585938 134.839844 110.988281 134.503906 C 104.445312 130.855469 96.882812 126.652344 93.683594 122.816406 C 88.523438 116.625 83.378906 109.644531 81.476562 116.429688 C 79.578125 123.214844 82.332031 126.472656 84.816406 131.757812 C 87.296875 137.042969 93.011719 151.605469 91.761719 155.152344 C 91.3125 156.425781 88.742188 156.910156 87.660156 157.214844 C 82.78125 158.597656 77.726562 159.5 72.644531 159.507812 C 70.6875 159.511719 69.164062 158.824219 67.292969 158.617188 C 65.011719 158.359375 62.613281 158.484375 60.292969 158.492188 C 60.296875 158.660156 60.234375 158.839844 60.082031 159.019531 C 58.378906 161.027344 60.753906 163.507812 62.320312 164.746094 C 63.992188 166.058594 65.949219 166.9375 67.976562 167.546875 C 72.738281 168.972656 77.796875 168.847656 82.660156 169.746094 C 83.84375 169.964844 83.734375 171.855469 82.539062 171.632812 C 78.132812 170.820312 73.53125 170.800781 69.152344 169.804688 C 71.296875 171.378906 73.714844 172.554688 76.304688 173.238281 C 76.941406 173.410156 77.082031 174.015625 76.902344 174.496094 C 81.894531 175.226562 90.144531 174.847656 96.957031 174.511719 C 96.921875 174.449219 96.875 174.40625 96.855469 174.332031 C 96.414062 172.777344 99.265625 173.050781 100.140625 173.011719 C 101.574219 172.941406 103.011719 172.957031 104.4375 173.109375 C 107.332031 173.410156 110.152344 174.300781 112.542969 175.988281 C 117.734375 179.652344 120.230469 185.820312 124.332031 190.484375 C 125.136719 191.402344 123.6875 192.617188 122.886719 191.707031 C 119.046875 187.335938 116.675781 181.550781 112 177.9375 C 109.8125 176.246094 107.167969 175.328125 104.4375 175.007812 C 103.074219 174.847656 101.695312 174.824219 100.328125 174.886719 C 99.667969 174.914062 98.351562 175.253906 97.527344 174.980469 L 104.207031 201.429688 L 126.28125 197.183594 C 127.308594 198.714844 128.300781 200.203125 129.222656 201.609375 Z M 129.222656 201.609375 "/><path style=" stroke:none;fill-rule:nonzero;fill:#575853;fill-opacity:1;" d="M 31.929688 98.738281 C 24.933594 99.703125 18.871094 112.265625 18.097656 127.910156 C 17.324219 143.550781 22.117188 156.660156 28.980469 158.308594 C 35.96875 157.335938 42.039062 144.773438 42.8125 129.128906 C 43.585938 113.488281 38.785156 100.398438 31.929688 98.738281 Z M 23.371094 150.882812 C 22.851562 151.011719 22.386719 150.621094 22.257812 150.144531 C 21.78125 148.371094 21.304688 146.601562 20.832031 144.828125 C 20.691406 144.320312 21.101562 143.832031 21.570312 143.714844 C 22.089844 143.589844 22.554688 143.980469 22.683594 144.457031 C 23.160156 146.226562 23.636719 148 24.109375 149.769531 C 24.246094 150.28125 23.84375 150.765625 23.371094 150.882812 Z M 21.742188 138.136719 C 21.980469 139.332031 20.089844 139.476562 19.855469 138.296875 C 17.417969 126.078125 20.269531 113.136719 27.488281 103 C 28.195312 102.007812 29.621094 103.253906 28.921875 104.238281 C 21.988281 113.976562 19.40625 126.429688 21.742188 138.136719 Z M 126.15625 97.117188 C 126.191406 96.6875 126.46875 96.285156 127.027344 96.277344 C 130.738281 96.230469 134.453125 96.179688 138.167969 96.128906 C 138.5625 95.933594 139.113281 95.96875 139.441406 96.285156 C 144.792969 101.410156 150.140625 106.539062 155.492188 111.664062 C 155.867188 112.027344 155.828125 112.457031 155.589844 112.773438 C 155.253906 113.21875 154.527344 113.441406 154 112.933594 C 149.257812 108.390625 144.519531 103.847656 139.777344 99.304688 L 140.886719 133.191406 C 140.925781 134.410156 138.917969 134.308594 138.875 133.097656 L 137.730469 98.027344 C 134.179688 98.074219 130.632812 98.121094 127.082031 98.167969 C 126.421875 98.179688 126.113281 97.628906 126.15625 97.117188 Z M 113.25 129.949219 C 113.171875 131.804688 112.988281 133.652344 112.75 135.492188 C 112.171875 135.167969 111.585938 134.839844 110.988281 134.503906 C 111.21875 132.53125 111.359375 130.542969 111.402344 128.550781 C 111.492188 124.488281 111.347656 120.257812 110.328125 116.304688 C 109.40625 112.753906 107.492188 109.46875 103.863281 108.207031 C 101.910156 107.527344 99.824219 107.386719 97.773438 107.246094 C 95.464844 107.082031 93.152344 106.929688 90.839844 106.769531 C 86.214844 106.457031 81.589844 106.140625 76.96875 105.824219 C 75.753906 105.742188 75.808594 103.851562 77.027344 103.933594 C 82.730469 104.324219 88.433594 104.714844 94.132812 105.101562 C 98.386719 105.394531 103.375 105.179688 107.046875 107.695312 C 110.066406 109.765625 111.605469 113.257812 112.371094 116.726562 C 113.320312 121.015625 113.4375 125.574219 113.25 129.949219 Z M 238.339844 69.582031 C 241.113281 68.894531 243.832031 67.941406 246.402344 66.695312 C 248.46875 65.691406 251.660156 62.71875 253.59375 63.140625 C 254.433594 63.320312 256.359375 65.714844 257.304688 66.277344 C 262.949219 69.632812 276.375 65.046875 276.375 65.046875 L 276.085938 74.777344 L 281.367188 76.214844 L 280.257812 105.238281 L 287.265625 104.566406 L 289.871094 92.402344 L 290.734375 92.339844 C 290.691406 91.875 290.980469 91.4375 291.445312 91.332031 C 294.671875 90.585938 298.042969 90.007812 300.910156 91.464844 C 304.011719 85.496094 307.113281 79.523438 310.214844 73.554688 C 312.605469 68.960938 315.230469 65.171875 317.8125 60.800781 C 320.148438 56.851562 321.246094 52.152344 320.792969 47.582031 C 320.140625 40.988281 316.277344 34.789062 310.644531 31.300781 C 308.847656 30.1875 306.832031 29.289062 305.527344 27.628906 C 304.328125 26.109375 303.886719 24.148438 303.113281 22.375 C 301.148438 17.871094 296.796875 14.492188 291.941406 13.707031 C 289.886719 13.375 287.769531 13.515625 285.761719 14.058594 C 284.148438 14.5 281.710938 16.699219 280.257812 16.753906 C 277.492188 16.855469 275.398438 11.851562 273.503906 9.929688 C 268.621094 4.980469 261.9375 1.757812 254.976562 1.289062 C 244.929688 0.613281 234.691406 5.703125 229.171875 14.125 C 223.5625 10.84375 215.78125 11.871094 211.21875 16.496094 C 208.847656 18.898438 207.457031 22.160156 207.144531 25.5 C 206.953125 27.496094 208.601562 30.523438 207.765625 32.347656 C 207.050781 33.898438 204.960938 34.136719 203.609375 35.035156 C 199.589844 37.707031 197.039062 42.492188 196.761719 47.273438 C 196.421875 53.226562 199.335938 59.132812 203.875 63 C 206.59375 65.316406 209.691406 67.070312 212.988281 68.34375 C 220.96875 71.417969 230.171875 71.605469 238.339844 69.582031 Z M 271.367188 27.121094 C 274.8125 24.824219 279.425781 24.449219 283.121094 26.410156 C 286.195312 28.042969 288.320312 31.074219 288.976562 34.453125 C 292.402344 33.164062 296.59375 34.222656 298.730469 37.328125 C 301.660156 41.585938 299.847656 47.125 298.195312 51.496094 C 297.765625 52.632812 296.082031 51.769531 296.507812 50.640625 C 297.832031 47.140625 299.46875 42.59375 297.542969 39.003906 C 295.894531 35.933594 291.714844 34.863281 288.742188 36.636719 C 288.128906 37.003906 287.332031 36.644531 287.273438 35.90625 C 287.03125 32.667969 285.152344 29.636719 282.265625 28.097656 C 279.160156 26.441406 275.3125 26.765625 272.417969 28.695312 C 271.402344 29.371094 270.355469 27.796875 271.367188 27.121094 Z M 213.230469 39.222656 C 215.042969 35.441406 219.699219 33.769531 223.5625 35 C 223.671875 31.109375 226.113281 27.371094 229.871094 26.03125 C 234.167969 24.5 239.082031 26.453125 241.414062 30.292969 C 242.046875 31.332031 240.351562 32.175781 239.722656 31.144531 C 237.886719 28.113281 233.847656 26.589844 230.484375 27.808594 C 227.109375 29.03125 225 32.765625 225.511719 36.277344 C 225.632812 37.097656 224.789062 37.667969 224.070312 37.253906 C 220.960938 35.480469 216.441406 36.800781 214.898438 40.082031 C 213.304688 43.472656 215.4375 47.828125 218.898438 48.976562 C 220.054688 49.359375 219.460938 51.15625 218.304688 50.769531 C 213.742188 49.257812 211.121094 43.628906 213.230469 39.222656 Z M 213.230469 39.222656 "/><path style=" stroke:none;fill-rule:nonzero;fill:#383936;fill-opacity:1;" d="M 60.292969 158.492188 C 62.613281 158.484375 65.007812 158.359375 67.289062 158.617188 C 69.160156 158.824219 70.683594 159.511719 72.644531 159.507812 C 77.722656 159.5 82.78125 158.597656 87.65625 157.214844 C 88.738281 156.910156 91.308594 156.425781 91.757812 155.152344 C 93.011719 151.605469 87.296875 137.042969 84.8125 131.757812 C 82.332031 126.472656 79.578125 123.214844 81.476562 116.429688 C 83.375 109.644531 88.519531 116.625 93.683594 122.816406 C 96.878906 126.652344 104.445312 130.855469 110.988281 134.503906 C 111.21875 132.53125 111.359375 130.542969 111.402344 128.550781 C 111.488281 124.488281 111.347656 120.257812 110.324219 116.304688 C 109.40625 112.753906 107.492188 109.46875 103.863281 108.207031 C 101.90625 107.527344 99.824219 107.386719 97.773438 107.246094 C 95.460938 107.082031 93.148438 106.929688 90.839844 106.769531 C 86.214844 106.457031 81.589844 106.140625 76.964844 105.824219 C 75.753906 105.742188 75.808594 103.851562 77.023438 103.933594 C 82.726562 104.324219 88.429688 104.714844 94.132812 105.101562 C 98.386719 105.394531 103.375 105.179688 107.046875 107.695312 C 110.0625 109.765625 111.605469 113.257812 112.371094 116.726562 C 113.320312 121.019531 113.4375 125.578125 113.25 129.949219 C 113.171875 131.804688 112.988281 133.652344 112.75 135.492188 C 116.054688 137.347656 118.949219 139.03125 120.648438 140.40625 C 123.417969 142.648438 134.085938 153.101562 143.507812 162.445312 C 146.015625 162.457031 148.371094 161.90625 149.980469 159.8125 C 152.125 157.019531 152.5 152.1875 152.984375 148.835938 C 154.328125 139.605469 155.160156 130.300781 155.476562 120.976562 C 155.5625 118.394531 155.761719 115.609375 155.683594 112.863281 C 155.652344 112.832031 155.621094 112.804688 155.589844 112.777344 C 155.253906 113.21875 154.527344 113.441406 154 112.933594 C 149.261719 108.390625 144.519531 103.851562 139.78125 99.308594 L 140.886719 133.195312 C 140.925781 134.414062 138.917969 134.308594 138.878906 133.101562 L 137.730469 98.027344 C 134.183594 98.074219 130.632812 98.125 127.082031 98.171875 C 126.421875 98.179688 126.117188 97.628906 126.15625 97.121094 C 125.128906 97.132812 124.097656 97.144531 123.070312 97.15625 C 123.042969 94.769531 122.996094 92.382812 122.960938 89.996094 C 119.527344 88.703125 116.195312 87.148438 112.953125 85.433594 C 108.382812 85.996094 103.691406 87.261719 100.691406 87.648438 C 98.742188 87.902344 96.742188 88.175781 95.027344 89.136719 C 94.640625 89.355469 94.28125 89.613281 93.945312 89.898438 C 93.941406 90.109375 93.933594 90.316406 93.929688 90.527344 C 93.878906 92.738281 93.800781 94.949219 93.886719 97.121094 C 93.890625 97.25 93.898438 97.382812 93.902344 97.515625 C 90.375 97.558594 86.847656 97.609375 83.320312 97.644531 C 79.378906 97.683594 75.105469 97.152344 71.53125 99.0625 C 71.457031 99.65625 71.382812 100.246094 71.304688 100.839844 C 71.199219 101.933594 71.085938 103.027344 70.976562 104.121094 C 70.207031 104.0625 69.441406 104.003906 68.667969 103.941406 C 68.296875 104.21875 67.710938 104.171875 67.375 103.84375 C 67.363281 103.839844 67.355469 103.839844 67.34375 103.839844 C 64.714844 103.636719 62.085938 103.429688 59.460938 103.226562 C 57.679688 100.492188 55.558594 98.6875 53.210938 98.125 L 30.171875 96.984375 C 30.167969 96.984375 30.167969 96.984375 30.167969 96.984375 C 30.164062 96.984375 30.164062 96.984375 30.164062 96.984375 L 30.140625 96.984375 L 30.140625 96.988281 C 22.566406 98.0625 16.003906 111.675781 15.167969 128.621094 C 14.328125 145.566406 19.515625 159.769531 26.945312 161.585938 L 26.945312 161.59375 L 39.296875 162.203125 C 39.457031 161.925781 39.734375 161.714844 40.140625 161.722656 C 43.433594 161.800781 46.722656 161.878906 50.015625 161.957031 C 63.582031 151.796875 63.597656 133.214844 63.28125 117.917969 C 63.253906 116.695312 65.140625 116.855469 65.167969 118.0625 C 65.46875 132.628906 65.261719 149.902344 54.3125 160.734375 C 55.140625 160.070312 55.945312 159.25 56.710938 158.300781 C 57.203125 158.335938 57.691406 158.375 58.183594 158.414062 C 58.277344 158.265625 58.378906 158.121094 58.5 157.980469 C 59.128906 157.238281 60.289062 157.769531 60.292969 158.492188 Z M 140.335938 150.894531 C 140.882812 150.980469 141.140625 151.464844 141.125 151.972656 C 141.128906 151.875 141.128906 152.195312 141.128906 152.234375 C 141.132812 152.335938 141.140625 152.433594 141.148438 152.53125 C 141.167969 152.730469 141.195312 152.929688 141.234375 153.125 C 141.289062 153.414062 141.421875 153.839844 141.582031 154.21875 C 141.617188 154.3125 141.660156 154.402344 141.703125 154.492188 C 141.699219 154.488281 141.765625 154.621094 141.78125 154.65625 C 141.878906 154.839844 141.988281 155.015625 142.101562 155.191406 C 142.222656 155.371094 142.351562 155.546875 142.484375 155.71875 C 142.546875 155.796875 142.613281 155.875 142.675781 155.949219 C 142.675781 155.949219 142.777344 156.0625 142.796875 156.085938 C 143.960938 157.308594 145.328125 157.976562 147.003906 158.035156 C 147.519531 158.054688 147.867188 158.65625 147.792969 159.113281 C 147.710938 159.660156 147.222656 159.917969 146.714844 159.902344 C 144.640625 159.832031 142.726562 158.773438 141.335938 157.269531 C 139.929688 155.746094 139.1875 153.753906 139.257812 151.683594 C 139.273438 151.171875 139.878906 150.824219 140.335938 150.894531 Z M 132.125 120.601562 C 132.171875 124.457031 132.21875 128.316406 132.265625 132.167969 C 132.28125 133.382812 130.398438 133.554688 130.382812 132.339844 C 130.335938 128.484375 130.285156 124.628906 130.238281 120.773438 C 130.222656 119.5625 132.109375 119.386719 132.125 120.601562 Z M 95.929688 91.132812 C 96.6875 90.996094 97.441406 90.886719 98.136719 90.785156 C 101.367188 90.320312 104.597656 89.851562 107.828125 89.382812 C 107.929688 91.144531 108.175781 92.925781 108.476562 94.695312 C 104.386719 94.726562 100.300781 94.890625 96.230469 95.1875 C 96.273438 93.808594 96.195312 92.433594 95.929688 91.132812 Z M 42.8125 129.128906 C 42.039062 144.773438 35.96875 157.335938 28.980469 158.308594 C 22.117188 156.660156 17.324219 143.550781 18.097656 127.910156 C 18.871094 112.265625 24.933594 99.703125 31.929688 98.738281 C 38.785156 100.398438 43.585938 113.488281 42.8125 129.128906 Z M 183.695312 305.625 L 171.941406 283.457031 L 160.933594 262.699219 L 130.417969 205.15625 C 130.1875 204.722656 130.339844 204.195312 130.742188 203.933594 C 130.765625 203.917969 130.78125 203.890625 130.808594 203.878906 C 131.269531 203.632812 131.84375 203.8125 132.085938 204.273438 L 135.71875 211.117188 L 140.28125 219.722656 L 141.300781 221.640625 L 171.148438 277.929688 L 172.046875 279.621094 L 184.785156 303.644531 L 235.15625 299.863281 L 237.09375 299.71875 L 314.566406 293.902344 C 315.085938 293.867188 315.539062 294.253906 315.578125 294.773438 C 315.617188 295.292969 315.226562 295.75 314.707031 295.789062 Z M 158.582031 177.546875 C 158.59375 177.53125 158.609375 177.527344 158.625 177.515625 C 158.976562 177.164062 159.539062 177.136719 159.917969 177.472656 L 173.171875 189.355469 L 214.710938 226.589844 L 298.617188 195.425781 C 299.109375 195.246094 299.652344 195.496094 299.835938 195.984375 C 300.015625 196.472656 299.765625 197.015625 299.277344 197.199219 L 214.296875 228.757812 L 164.945312 184.519531 L 163.519531 183.242188 L 158.730469 178.949219 L 158.652344 178.878906 C 158.265625 178.53125 158.230469 177.933594 158.582031 177.546875 Z M 300.910156 91.464844 C 301 91.507812 301.09375 91.539062 301.183594 91.585938 C 303.773438 93.039062 305.445312 96.09375 305.773438 99.964844 C 306.179688 104.707031 304.6875 109.539062 301.679688 113.230469 C 299.773438 115.570312 297.289062 117.402344 294.527344 118.574219 C 292.929688 119.253906 291.242188 119.714844 289.515625 119.921875 C 289.476562 119.925781 289.4375 119.929688 289.402344 119.929688 C 288.929688 119.929688 288.519531 119.574219 288.460938 119.097656 C 288.402344 118.578125 288.769531 118.105469 289.289062 118.042969 C 293.53125 117.539062 297.515625 115.347656 300.214844 112.035156 C 302.914062 108.722656 304.253906 104.382812 303.890625 100.125 C 303.761719 98.59375 303.148438 94.855469 300.257812 93.234375 C 297.925781 91.929688 294.960938 92.460938 291.875 93.171875 C 291.363281 93.289062 290.859375 92.972656 290.738281 92.464844 C 290.730469 92.421875 290.742188 92.382812 290.734375 92.339844 C 290.691406 91.875 290.980469 91.4375 291.449219 91.332031 C 294.671875 90.585938 298.042969 90.007812 300.910156 91.464844 Z M 254.582031 143.65625 C 249.527344 143.65625 241.691406 142.804688 234.105469 141.78125 C 223.109375 140.304688 212.636719 138.464844 211.910156 138.335938 L 211.15625 138.203125 L 210.65625 124.109375 C 210.640625 123.589844 211.046875 123.152344 211.570312 123.132812 C 211.589844 123.132812 211.613281 123.144531 211.636719 123.144531 C 212.089844 123.167969 212.53125 123.546875 212.546875 124.042969 L 212.992188 136.605469 C 217.726562 137.421875 243.464844 141.761719 254.582031 141.761719 C 266.472656 141.761719 273 135.011719 273.0625 134.941406 C 273.421875 134.5625 274.023438 134.546875 274.398438 134.902344 C 274.777344 135.261719 274.796875 135.859375 274.4375 136.242188 C 274.148438 136.542969 267.277344 143.65625 254.582031 143.65625 Z M 225.441406 102.027344 C 224.902344 103.960938 224.4375 106.207031 226.140625 107.695312 C 227.054688 108.496094 225.628906 109.738281 224.722656 108.949219 C 221.324219 105.980469 223.914062 100.492188 224.914062 97.003906 C 226.335938 92.054688 227.753906 87.105469 229.175781 82.160156 C 229.511719 80.984375 231.3125 81.566406 230.976562 82.734375 C 229.730469 87.082031 228.480469 91.429688 227.234375 95.777344 C 226.636719 97.859375 226.023438 99.9375 225.441406 102.027344 Z M 250.425781 121.472656 C 244.519531 124.460938 237.558594 124.898438 231.300781 122.765625 C 230.148438 122.371094 230.851562 120.617188 232.003906 121.007812 C 237.804688 122.988281 244.21875 122.496094 249.679688 119.738281 C 250.769531 119.1875 251.507812 120.929688 250.425781 121.472656 Z M 251.359375 89.632812 C 251.359375 91.199219 250.085938 92.46875 248.519531 92.46875 C 246.953125 92.46875 245.683594 91.199219 245.683594 89.632812 C 245.683594 88.066406 246.953125 86.796875 248.519531 86.796875 C 250.085938 86.796875 251.359375 88.066406 251.359375 89.632812 Z M 222.515625 88.214844 C 222.515625 89.78125 221.242188 91.050781 219.675781 91.050781 C 218.109375 91.050781 216.839844 89.78125 216.839844 88.214844 C 216.839844 86.648438 218.109375 85.378906 219.675781 85.378906 C 221.242188 85.378906 222.515625 86.648438 222.515625 88.214844 Z M 216.21875 78.527344 C 215.828125 78.859375 215.289062 78.953125 214.878906 78.570312 C 214.535156 78.25 214.445312 77.5625 214.835938 77.234375 C 218.234375 74.34375 222.738281 73.070312 227.148438 73.816406 C 228.355469 74.023438 227.941406 75.867188 226.746094 75.664062 C 223.046875 75.039062 219.085938 76.089844 216.21875 78.527344 Z M 263.972656 80.363281 C 264.800781 81.257812 263.464844 82.59375 262.636719 81.703125 C 258.433594 77.164062 251.71875 75.507812 245.882812 77.527344 C 244.730469 77.925781 244.257812 76.09375 245.402344 75.695312 C 251.832031 73.472656 259.355469 75.378906 263.972656 80.363281 Z M 263.972656 80.363281 "/><path style=" stroke:none;fill-rule:nonzero;fill:#fefce8;fill-opacity:1;" d="M 95.929688 91.132812 C 96.6875 90.996094 97.441406 90.886719 98.136719 90.785156 C 101.367188 90.320312 104.597656 89.851562 107.828125 89.382812 C 107.929688 91.144531 108.175781 92.925781 108.476562 94.695312 C 104.386719 94.726562 100.300781 94.890625 96.230469 95.1875 C 96.273438 93.808594 96.195312 92.433594 95.929688 91.132812 Z M 27.488281 103 C 20.269531 113.136719 17.417969 126.078125 19.855469 138.296875 C 20.089844 139.476562 21.980469 139.332031 21.742188 138.136719 C 19.40625 126.429688 21.988281 113.976562 28.921875 104.234375 C 29.621094 103.25 28.195312 102.007812 27.488281 103 Z M 22.6875 144.457031 C 22.558594 143.980469 22.089844 143.585938 21.570312 143.714844 C 21.101562 143.832031 20.695312 144.320312 20.832031 144.828125 C 21.308594 146.601562 21.78125 148.371094 22.257812 150.144531 C 22.386719 150.621094 22.851562 151.011719 23.371094 150.882812 C 23.84375 150.765625 24.25 150.28125 24.113281 149.769531 C 23.636719 148 23.160156 146.226562 22.6875 144.457031 Z M 208.878906 276.175781 C 228.773438 282.4375 234.046875 296.042969 235.160156 299.867188 L 237.09375 299.71875 C 236.144531 296.011719 231.078125 281.179688 209.449219 274.371094 C 188.34375 267.730469 174.71875 275.492188 171.152344 277.929688 L 172.046875 279.621094 C 175.003906 277.605469 188.386719 269.726562 208.878906 276.175781 Z M 299.035156 354.636719 L 163.886719 354.636719 C 163.367188 354.636719 162.941406 355.058594 162.941406 355.582031 C 162.941406 356.066406 163.3125 356.453125 163.785156 356.507812 C 163.820312 356.511719 163.851562 356.527344 163.886719 356.527344 L 298.863281 356.527344 L 329.886719 362.234375 L 329.929688 362.242188 C 329.988281 362.253906 330.046875 362.257812 330.101562 362.257812 C 330.550781 362.257812 330.949219 361.9375 331.03125 361.484375 C 331.125 360.984375 330.804688 360.511719 330.3125 360.398438 C 330.300781 360.394531 330.289062 360.386719 330.273438 360.382812 Z M 140.28125 219.722656 L 141.300781 221.640625 L 164.945312 184.519531 L 163.515625 183.242188 Z M 130.460938 203.253906 C 130.96875 203.132812 131.28125 202.621094 131.160156 202.113281 C 131.035156 201.605469 130.523438 201.292969 130.015625 201.417969 L 129.222656 201.609375 L 105.683594 207.285156 L 105.191406 207.40625 C 104.683594 207.527344 104.371094 208.039062 104.492188 208.546875 C 104.597656 208.976562 104.984375 209.269531 105.410156 209.269531 C 105.484375 209.269531 105.558594 209.261719 105.632812 209.242188 L 106.144531 209.117188 L 130.324219 203.289062 Z M 272.417969 28.695312 C 275.3125 26.765625 279.15625 26.4375 282.261719 28.09375 C 285.152344 29.636719 287.03125 32.664062 287.273438 35.90625 C 287.328125 36.644531 288.128906 37.003906 288.742188 36.636719 C 291.710938 34.863281 295.894531 35.933594 297.542969 39.003906 C 299.46875 42.59375 297.832031 47.136719 296.507812 50.640625 C 296.082031 51.769531 297.765625 52.632812 298.195312 51.496094 C 299.847656 47.125 301.660156 41.585938 298.730469 37.328125 C 296.589844 34.222656 292.402344 33.160156 288.972656 34.453125 C 288.320312 31.074219 286.195312 28.042969 283.117188 26.40625 C 279.425781 24.445312 274.8125 24.824219 271.367188 27.121094 C 270.355469 27.796875 271.402344 29.371094 272.417969 28.695312 Z M 218.308594 50.773438 C 219.464844 51.15625 220.058594 49.359375 218.898438 48.976562 C 215.4375 47.828125 213.308594 43.472656 214.902344 40.082031 C 216.441406 36.800781 220.960938 35.480469 224.070312 37.257812 C 224.792969 37.667969 225.632812 37.097656 225.511719 36.277344 C 225 32.765625 227.113281 29.035156 230.484375 27.8125 C 233.847656 26.589844 237.886719 28.117188 239.726562 31.144531 C 240.351562 32.175781 242.046875 31.335938 241.414062 30.292969 C 239.082031 26.453125 234.171875 24.5 229.871094 26.035156 C 226.113281 27.375 223.675781 31.113281 223.5625 35 C 219.703125 33.773438 215.042969 35.441406 213.234375 39.222656 C 211.121094 43.628906 213.742188 49.257812 218.308594 50.773438 Z M 251.113281 178.699219 C 252.796875 178.960938 254.515625 179.089844 256.257812 179.089844 C 264.140625 179.089844 272.507812 176.453125 280.300781 171.4375 C 288.699219 166.039062 295.355469 158.824219 301.996094 151.289062 C 302.070312 151.203125 302.121094 151.101562 302.160156 151 C 302.296875 150.644531 302.214844 150.222656 301.910156 149.953125 C 301.519531 149.609375 300.921875 149.648438 300.574219 150.039062 C 300.480469 150.144531 300.386719 150.253906 300.292969 150.359375 C 293.835938 157.675781 287.351562 164.65625 279.277344 169.847656 C 270.152344 175.71875 260.25 178.199219 251.402344 176.832031 C 241.636719 175.324219 233.4375 168.5 231.484375 160.421875 C 231.410156 160.121094 231.324219 159.820312 231.269531 159.515625 C 231.175781 159 230.691406 158.65625 230.171875 158.753906 C 229.65625 158.847656 229.316406 159.339844 229.410156 159.851562 C 229.453125 160.085938 229.519531 160.3125 229.570312 160.542969 C 231.566406 169.480469 240.488281 177.058594 251.113281 178.699219 Z M 251.113281 178.699219 "/><path style=" stroke:none;fill-rule:nonzero;fill:#be3852;fill-opacity:1;" d="M 163.519531 183.242188 L 140.28125 219.722656 L 135.71875 211.117188 L 158.730469 178.949219 Z M 163.886719 356.527344 C 163.851562 356.527344 163.820312 356.511719 163.785156 356.507812 L 161.828125 374.03125 C 161.828125 374.03125 322.203125 374.476562 326.207031 374.03125 C 326.855469 373.960938 328.15625 369.558594 329.882812 362.234375 L 298.863281 356.527344 Z M 208.878906 276.175781 C 188.386719 269.726562 175.003906 277.605469 172.046875 279.621094 L 184.789062 303.644531 L 235.160156 299.863281 C 234.046875 296.042969 228.769531 282.4375 208.878906 276.175781 Z M 130.746094 203.933594 C 130.605469 203.722656 130.464844 203.507812 130.324219 203.289062 L 106.144531 209.121094 C 108.996094 220.519531 113.972656 240.957031 113.917969 244.632812 C 113.847656 249.644531 158.472656 262.019531 160.933594 262.699219 L 130.417969 205.160156 C 130.1875 204.722656 130.339844 204.195312 130.746094 203.933594 Z M 126.277344 197.183594 L 104.203125 201.425781 L 104.199219 201.429688 C 104.199219 201.429688 104.792969 203.734375 105.683594 207.285156 L 129.222656 201.609375 C 128.300781 200.203125 127.308594 198.714844 126.277344 197.183594 Z M 336.441406 166.277344 C 328.488281 160.546875 311.3125 154.171875 302.160156 151 C 302.121094 151.105469 302.070312 151.203125 301.996094 151.289062 C 295.355469 158.824219 288.699219 166.039062 280.304688 171.4375 C 272.507812 176.453125 264.140625 179.089844 256.257812 179.089844 C 254.515625 179.089844 252.796875 178.960938 251.113281 178.703125 C 240.488281 177.058594 231.566406 169.480469 229.570312 160.542969 C 228.875 160.601562 228.179688 160.675781 227.484375 160.765625 C 207.578125 163.320312 188.664062 178.074219 173.175781 189.359375 L 214.710938 226.59375 L 298.621094 195.429688 C 299.113281 195.246094 299.65625 195.496094 299.835938 195.984375 C 300.019531 196.476562 299.769531 197.019531 299.28125 197.199219 L 214.300781 228.761719 L 164.949219 184.523438 L 141.300781 221.644531 L 171.152344 277.933594 C 174.722656 275.492188 188.347656 267.730469 209.449219 274.375 C 231.082031 281.179688 236.148438 296.011719 237.09375 299.722656 L 314.566406 293.90625 C 315.089844 293.867188 315.542969 294.257812 315.582031 294.777344 C 315.621094 295.296875 315.230469 295.75 314.710938 295.789062 L 183.699219 305.625 L 171.945312 283.457031 L 163.996094 354.636719 L 299.035156 354.636719 L 330.273438 360.382812 C 330.289062 360.382812 330.300781 360.394531 330.3125 360.398438 C 339.429688 320.808594 359.085938 208.4375 359.875 205.78125 C 360.832031 202.554688 347.566406 174.292969 336.441406 166.277344 Z M 251.402344 176.832031 C 260.25 178.199219 270.148438 175.71875 279.277344 169.847656 C 287.351562 164.65625 293.835938 157.675781 300.292969 150.359375 C 297.726562 149.488281 296.128906 148.980469 296.128906 148.980469 C 296.089844 148.964844 296.027344 148.984375 295.960938 149.003906 C 293.359375 149.773438 271.460938 175.550781 253.335938 172.527344 C 240.191406 170.75 236.265625 162.707031 235.488281 160.824219 C 235.386719 160.570312 235.335938 160.425781 235.332031 160.425781 C 234.046875 160.367188 232.761719 160.371094 231.484375 160.421875 C 233.4375 168.5 241.636719 175.324219 251.402344 176.832031 Z M 132.265625 132.167969 C 132.21875 128.3125 132.171875 124.457031 132.125 120.601562 C 132.109375 119.386719 130.222656 119.5625 130.238281 120.773438 C 130.285156 124.628906 130.335938 128.484375 130.382812 132.339844 C 130.398438 133.558594 132.28125 133.382812 132.265625 132.167969 Z M 146.714844 159.902344 C 147.222656 159.917969 147.707031 159.660156 147.792969 159.113281 C 147.863281 158.65625 147.519531 158.050781 147.003906 158.035156 C 145.328125 157.976562 143.957031 157.308594 142.796875 156.085938 C 142.777344 156.058594 142.675781 155.949219 142.675781 155.949219 C 142.609375 155.875 142.546875 155.796875 142.484375 155.71875 C 142.347656 155.546875 142.222656 155.371094 142.101562 155.191406 C 141.988281 155.015625 141.875 154.835938 141.777344 154.652344 C 141.765625 154.621094 141.699219 154.488281 141.703125 154.492188 C 141.660156 154.402344 141.617188 154.3125 141.578125 154.21875 C 141.421875 153.839844 141.285156 153.414062 141.230469 153.125 C 141.195312 152.929688 141.167969 152.730469 141.148438 152.53125 C 141.140625 152.433594 141.132812 152.332031 141.128906 152.234375 C 141.128906 152.195312 141.125 151.871094 141.125 151.972656 C 141.140625 151.464844 140.882812 150.980469 140.335938 150.894531 C 139.878906 150.824219 139.273438 151.167969 139.253906 151.683594 C 139.183594 153.75 139.929688 155.742188 141.335938 157.269531 C 142.722656 158.773438 144.636719 159.832031 146.714844 159.902344 Z M 65.164062 118.0625 C 65.140625 116.855469 63.253906 116.695312 63.277344 117.917969 C 63.59375 133.214844 63.578125 151.796875 50.011719 161.957031 C 46.722656 161.878906 43.429688 161.800781 40.136719 161.722656 C 39.734375 161.714844 39.453125 161.925781 39.292969 162.203125 C 38.976562 162.753906 39.15625 163.585938 39.96875 163.605469 C 43.453125 163.6875 46.9375 163.769531 50.421875 163.855469 C 50.824219 163.863281 51.101562 163.65625 51.261719 163.378906 C 52.363281 162.550781 53.375 161.664062 54.3125 160.734375 C 65.257812 149.902344 65.464844 132.628906 65.164062 118.0625 Z M 100.324219 174.886719 C 101.695312 174.824219 103.070312 174.847656 104.433594 175.007812 C 107.164062 175.328125 109.808594 176.246094 111.996094 177.9375 C 116.671875 181.550781 119.042969 187.335938 122.882812 191.707031 C 123.6875 192.621094 125.136719 191.402344 124.328125 190.484375 C 120.230469 185.820312 117.730469 179.652344 112.539062 175.988281 C 110.148438 174.300781 107.328125 173.410156 104.4375 173.109375 C 103.007812 172.957031 101.570312 172.945312 100.136719 173.011719 C 99.261719 173.054688 96.410156 172.777344 96.851562 174.332031 C 96.871094 174.40625 96.917969 174.449219 96.953125 174.511719 C 97.078125 174.742188 97.273438 174.894531 97.527344 174.980469 C 98.347656 175.253906 99.664062 174.914062 100.324219 174.886719 Z M 67.375 103.839844 C 67.707031 104.171875 68.296875 104.21875 68.667969 103.941406 C 68.855469 103.804688 68.988281 103.585938 69.007812 103.28125 C 69.269531 99.292969 69.777344 94.488281 74.046875 92.835938 C 76.28125 91.972656 78.835938 91.914062 81.195312 91.660156 C 83.910156 91.367188 86.628906 91.074219 89.347656 90.777344 C 89.777344 90.730469 90.003906 90.464844 90.070312 90.148438 C 90.195312 89.574219 89.78125 88.835938 89.003906 88.917969 C 86.015625 89.242188 83.023438 89.566406 80.035156 89.890625 C 77.449219 90.167969 74.65625 90.292969 72.3125 91.550781 C 68.09375 93.816406 67.40625 98.8125 67.121094 103.132812 C 67.105469 103.417969 67.199219 103.636719 67.347656 103.800781 C 67.355469 103.8125 67.363281 103.828125 67.375 103.839844 Z M 76.300781 173.238281 C 73.710938 172.554688 71.292969 171.378906 69.152344 169.804688 C 73.527344 170.800781 78.128906 170.820312 82.535156 171.632812 C 83.734375 171.855469 83.839844 169.964844 82.65625 169.746094 C 77.792969 168.847656 72.734375 168.972656 67.972656 167.546875 C 65.945312 166.9375 63.988281 166.058594 62.320312 164.746094 C 60.75 163.507812 58.375 161.027344 60.078125 159.019531 C 60.230469 158.84375 60.292969 158.664062 60.292969 158.492188 C 60.289062 157.773438 59.128906 157.238281 58.496094 157.980469 C 58.378906 158.121094 58.277344 158.265625 58.183594 158.414062 C 58.046875 158.621094 57.941406 158.835938 57.855469 159.058594 C 57.769531 159.285156 57.707031 159.515625 57.667969 159.75 C 57.402344 161.289062 58.09375 162.945312 59.089844 164.203125 C 60.605469 166.109375 62.710938 167.472656 64.921875 168.441406 C 64.964844 168.578125 65.03125 168.714844 65.152344 168.839844 C 68.070312 171.839844 71.78125 174.003906 75.828125 175.070312 C 76.367188 175.214844 76.75 174.902344 76.902344 174.496094 C 77.082031 174.015625 76.9375 173.410156 76.300781 173.238281 Z M 76.300781 173.238281 "/></g></svg>