<svg xmlns="http://www.w3.org/2000/svg" xmlns:xlink="http://www.w3.org/1999/xlink" width="500" zoomAndPan="magnify" viewBox="0 0 375 374.999991" height="500" preserveAspectRatio="xMidYMid meet" version="1.2"><defs><clipPath id="db42a7e536"><path d="M 54 92 L 373.183594 92 L 373.183594 312.464844 L 54 312.464844 Z M 54 92 "/></clipPath></defs><g id="0da619a58f"><path style=" stroke:none;fill-rule:nonzero;fill:#eba9ba;fill-opacity:1;" d="M 349.953125 193.996094 C 345.148438 189.203125 340.992188 185.070312 338.980469 181.992188 C 333.945312 174.292969 329.351562 166.433594 325.910156 160.457031 L 324.332031 157.714844 L 327.488281 157.582031 C 334.503906 157.28125 340.175781 156.019531 344.832031 153.726562 L 345.125 153.574219 C 345.738281 153.261719 346.351562 152.941406 347.074219 152.5 L 347.539062 152.199219 C 348.03125 151.886719 348.523438 151.582031 348.992188 151.234375 C 357.945312 144.570312 359.65625 134.441406 354.113281 121.199219 L 354.035156 121.023438 C 350.316406 112.1875 344.300781 104.339844 341.050781 100.449219 C 332.957031 90.796875 320.769531 83.367188 302.683594 77.066406 C 300.097656 76.164062 297.355469 75.265625 294.527344 74.394531 L 293.703125 74.140625 L 293.253906 73.148438 C 293.148438 72.914062 293.046875 72.6875 292.945312 72.457031 C 293.019531 72.476562 293.066406 72.488281 293.066406 72.488281 C 293.171875 72.515625 293.296875 72.457031 293.328125 72.347656 C 293.371094 72.238281 293.304688 72.117188 293.191406 72.082031 C 293.191406 72.082031 293.011719 72.027344 292.703125 71.929688 C 291.332031 68.878906 290.050781 65.988281 289.070312 63.394531 C 287.765625 59.644531 286.574219 55.710938 285.425781 51.90625 C 282.253906 41.433594 278.980469 30.605469 272.910156 21.929688 C 267.265625 13.910156 261.589844 13.242188 255.785156 13.242188 C 254.808594 13.242188 253.820312 13.269531 252.828125 13.289062 C 251.78125 13.316406 250.726562 13.335938 249.65625 13.335938 C 245.496094 13.335938 240.546875 12.984375 235.472656 10.445312 C 232.730469 9.300781 230.710938 7.84375 228.925781 6.554688 C 226.265625 4.636719 224.164062 3.125 220.449219 3.125 C 219.757812 3.125 219.015625 3.171875 218.421875 3.246094 C 210.082031 5.207031 203.292969 12.855469 197.296875 19.601562 C 196.335938 20.683594 195.402344 21.738281 194.460938 22.761719 C 192.96875 24.320312 191.246094 26.074219 189.363281 27.996094 C 182.742188 34.738281 173.78125 43.882812 166.28125 53.453125 C 165.996094 53.453125 165.835938 53.457031 165.835938 53.457031 C 165.714844 53.460938 165.609375 53.558594 165.609375 53.683594 C 165.605469 53.808594 165.710938 53.914062 165.835938 53.917969 C 165.835938 53.917969 165.871094 53.917969 165.910156 53.921875 C 165.746094 54.132812 165.574219 54.339844 165.410156 54.550781 L 164.832031 55.304688 L 161.8125 55.292969 C 157.199219 55.292969 153.054688 55.371094 149.136719 55.535156 C 115.15625 56.910156 95.535156 65.273438 89.148438 81.097656 C 88.179688 83.523438 87.710938 85.445312 87.710938 86.96875 L 87.703125 87.160156 C 85.722656 106.917969 110.269531 128.71875 134.144531 137.582031 L 136.242188 138.363281 L 135.152344 140.316406 C 127.070312 154.859375 112.742188 161.734375 98.53125 166.972656 C 95.21875 168.351562 89.988281 169.378906 83.925781 170.566406 C 73.574219 172.59375 60.691406 175.117188 57.578125 180.003906 C 53.140625 186.105469 61.1875 197.433594 65.992188 204.203125 C 66.847656 205.40625 67.625 206.496094 68.214844 207.386719 C 73.390625 214.542969 81.148438 221.746094 91.257812 228.792969 L 91.832031 229.195312 C 91.265625 229.582031 90.707031 229.964844 90.164062 230.367188 C 89.910156 230.558594 89.621094 230.730469 89.371094 230.925781 C 76.839844 240.679688 11.613281 296.722656 5.148438 341.484375 C 1.347656 370.355469 16.539062 389.347656 46.152344 393.910156 C 58.125 395.589844 64.839844 394.332031 75.878906 389.351562 C 87.316406 384.195312 96.195312 376.957031 103.605469 368.632812 C 100.574219 384.722656 98.554688 400.261719 99.316406 412.824219 L 193.808594 413.753906 L 219.578125 413.503906 C 219.328125 412.898438 219.070312 412.257812 218.804688 411.59375 L 219.796875 411.582031 C 220.4375 413.410156 221.050781 415.050781 221.539062 416.433594 C 222.785156 419.882812 223.496094 421.855469 223.496094 421.855469 C 223.535156 421.949219 223.488281 422.042969 223.40625 422.105469 C 223.714844 422.863281 223.90625 423.332031 223.90625 423.332031 C 223.90625 423.332031 230.066406 437.9375 237.613281 446.070312 C 254.933594 464.742188 281.863281 462.265625 299.636719 444.011719 C 304.992188 438.503906 330.371094 400.75 344.609375 351.738281 C 358.480469 304 346.878906 269.925781 336.066406 256.996094 C 334.214844 254.78125 332.433594 252.773438 330.671875 250.867188 C 330.191406 250.347656 329.71875 249.875 329.242188 249.375 L 329.960938 249.089844 C 332.597656 248.03125 335.210938 246.964844 337.808594 245.847656 C 339.140625 245.273438 340.660156 244.644531 342.292969 243.972656 C 351.878906 240.03125 366.363281 234.070312 370.488281 226.578125 C 374.804688 218.75 360.441406 204.441406 349.953125 193.996094 "/><path style=" stroke:none;fill-rule:nonzero;fill:#783035;fill-opacity:1;" d="M 293.066406 72.488281 C 293.066406 72.488281 291.105469 71.972656 287.683594 71.070312 C 284.265625 70.15625 279.355469 68.929688 273.507812 67.304688 C 270.582031 66.496094 267.414062 65.617188 264.0625 64.691406 C 260.710938 63.785156 257.183594 62.824219 253.53125 61.839844 C 249.910156 60.757812 246.050781 60.113281 242.191406 59.21875 C 240.253906 58.816406 238.269531 58.542969 236.296875 58.199219 C 234.316406 57.875 232.335938 57.5 230.332031 57.296875 C 228.335938 57.039062 226.339844 56.78125 224.347656 56.527344 C 222.359375 56.269531 220.359375 56.152344 218.386719 55.960938 C 214.441406 55.550781 210.53125 55.402344 206.757812 55.179688 C 202.972656 55.035156 199.320312 54.894531 195.855469 54.761719 C 192.378906 54.695312 189.09375 54.632812 186.058594 54.570312 C 180 54.4375 174.9375 54.210938 171.398438 54.105469 C 167.863281 53.984375 165.839844 53.917969 165.839844 53.917969 C 165.710938 53.914062 165.609375 53.808594 165.613281 53.683594 C 165.613281 53.558594 165.714844 53.460938 165.839844 53.457031 C 165.839844 53.457031 167.863281 53.4375 171.398438 53.398438 C 174.9375 53.375 180 53.335938 186.070312 53.289062 C 189.101562 53.273438 192.390625 53.257812 195.867188 53.238281 C 199.351562 53.300781 203.027344 53.273438 206.828125 53.453125 C 210.625 53.640625 214.554688 53.765625 218.535156 54.144531 C 220.527344 54.320312 222.539062 54.425781 224.546875 54.664062 C 226.558594 54.90625 228.578125 55.15625 230.59375 55.398438 C 232.613281 55.613281 234.609375 56.011719 236.605469 56.351562 C 238.597656 56.722656 240.59375 57.015625 242.546875 57.4375 C 246.4375 58.371094 250.324219 59.054688 253.972656 60.175781 C 261.335938 62.183594 268.042969 64.359375 273.867188 66.09375 C 285.464844 69.683594 293.195312 72.082031 293.195312 72.082031 C 293.304688 72.117188 293.371094 72.234375 293.332031 72.347656 C 293.296875 72.457031 293.171875 72.515625 293.066406 72.488281 Z M 355.851562 120.394531 C 355.839844 120.367188 355.828125 120.339844 355.816406 120.3125 C 355.808594 120.300781 355.808594 120.289062 355.804688 120.277344 C 352.464844 112.351562 347.191406 104.8125 342.519531 99.214844 C 332.785156 87.609375 318.515625 80.550781 303.316406 75.257812 C 300.597656 74.308594 297.851562 73.410156 295.09375 72.5625 C 293.480469 68.988281 291.976562 65.652344 290.878906 62.761719 C 286.019531 48.78125 282.984375 32.984375 274.476562 20.824219 C 262.933594 4.414062 250.785156 15.964844 236.207031 8.667969 C 228.917969 5.628906 227.097656 0.164062 217.984375 1.378906 C 207.65625 3.808594 199.761719 14.140625 193.078125 21.4375 C 186.007812 28.832031 173.679688 40.652344 163.894531 53.382812 C 159.152344 53.359375 154.152344 53.410156 149.0625 53.617188 C 123.507812 54.652344 95.710938 59.726562 87.371094 80.386719 C 86.304688 83.054688 85.796875 85.207031 85.796875 86.96875 C 83.671875 108.210938 109.753906 130.570312 133.480469 139.382812 C 133.484375 139.375 133.488281 139.371094 133.492188 139.363281 C 139.074219 128.625 144.46875 104.238281 150.667969 92.003906 C 169.644531 91.542969 192.925781 91.765625 220.835938 94.222656 C 235.519531 95.519531 249.519531 98.917969 262.269531 103.492188 C 282.453125 110.734375 299.480469 120.9375 310.992188 130.515625 C 316.652344 140.097656 322.023438 149.847656 327.570312 159.496094 C 334.003906 159.222656 340.253906 158.121094 345.675781 155.445312 C 345.679688 155.449219 345.679688 155.449219 345.683594 155.453125 C 345.789062 155.398438 345.886719 155.339844 345.988281 155.285156 C 346.648438 154.953125 347.304688 154.609375 347.9375 154.222656 C 348.078125 154.140625 348.210938 154.035156 348.351562 153.949219 C 348.953125 153.570312 349.558594 153.199219 350.132812 152.769531 C 361.414062 144.378906 360.703125 131.976562 355.851562 120.394531 "/><path style=" stroke:none;fill-rule:nonzero;fill:#783035;fill-opacity:1;" d="M 215.648438 182.351562 L 214.726562 180.671875 C 202.046875 187.636719 184.210938 190.46875 172.171875 177.53125 L 170.765625 178.835938 C 177.253906 185.808594 185.277344 188.492188 193.351562 188.492188 C 201.199219 188.492188 209.085938 185.957031 215.648438 182.351562 "/><path style=" stroke:none;fill-rule:nonzero;fill:#783035;fill-opacity:1;" d="M 186.441406 158.980469 C 186.660156 158.402344 187.023438 157.910156 187.390625 157.453125 C 187.601562 157.242188 187.816406 157.039062 188.011719 156.820312 C 188.230469 156.632812 188.480469 156.484375 188.707031 156.316406 C 189.144531 155.949219 189.691406 155.8125 190.140625 155.550781 C 190.609375 155.355469 191.066406 155.261719 191.476562 155.117188 C 191.875 154.960938 192.292969 154.960938 192.601562 154.886719 C 193.238281 154.769531 193.601562 154.699219 193.601562 154.699219 C 193.601562 154.699219 193.238281 154.628906 192.601562 154.507812 C 192.277344 154.476562 191.910156 154.339844 191.4375 154.386719 C 190.976562 154.410156 190.421875 154.375 189.847656 154.492188 C 189.289062 154.660156 188.621094 154.703125 188.023438 155.0625 C 187.714844 155.222656 187.382812 155.363281 187.074219 155.554688 C 186.777344 155.773438 186.488281 156.019531 186.1875 156.269531 C 185.660156 156.816406 185.082031 157.421875 184.769531 158.179688 C 184.367188 158.902344 184.179688 159.730469 184.050781 160.539062 C 184.027344 160.949219 183.980469 161.359375 183.996094 161.769531 L 184.132812 162.972656 C 184.308594 163.746094 184.519531 164.511719 184.886719 165.160156 C 185.179688 165.855469 185.621094 166.425781 186.035156 166.953125 C 186.429688 167.503906 186.953125 167.878906 187.367188 168.28125 C 187.804688 168.652344 188.273438 168.90625 188.65625 169.15625 C 189.027344 169.429688 189.433594 169.535156 189.726562 169.675781 C 190.335938 169.921875 190.679688 170.042969 190.679688 170.042969 C 190.679688 170.042969 190.40625 169.792969 189.933594 169.351562 C 189.699219 169.132812 189.386719 168.917969 189.105469 168.578125 C 188.820312 168.242188 188.472656 167.90625 188.144531 167.503906 C 187.863281 167.058594 187.476562 166.648438 187.207031 166.128906 C 186.921875 165.617188 186.632812 165.082031 186.4375 164.492188 C 186.160156 163.929688 186.113281 163.28125 185.957031 162.667969 L 185.878906 161.71875 C 185.878906 161.398438 185.9375 161.089844 185.949219 160.769531 C 186.035156 160.160156 186.148438 159.523438 186.441406 158.980469 "/><path style=" stroke:none;fill-rule:nonzero;fill:#783035;fill-opacity:1;" d="M 176.417969 149.050781 C 176.105469 148.398438 175.851562 147.664062 175.605469 146.882812 C 175.726562 147.171875 175.824219 147.441406 175.90625 147.683594 C 176.21875 148.554688 176.421875 149.054688 176.421875 149.054688 C 176.421875 149.054688 176.386719 148.527344 176.269531 147.59375 C 176.226562 147.121094 176.113281 146.5625 175.96875 145.917969 C 175.84375 145.269531 175.671875 144.542969 175.386719 143.78125 C 175.152344 142.996094 174.800781 142.183594 174.386719 141.335938 C 173.988281 140.488281 173.464844 139.625 172.875 138.773438 C 172.558594 138.359375 172.234375 137.941406 171.902344 137.515625 C 171.558594 137.105469 171.152344 136.730469 170.761719 136.34375 C 170.386719 135.9375 169.914062 135.625 169.46875 135.28125 C 169.03125 134.925781 168.5625 134.605469 168.046875 134.355469 C 167.066406 133.765625 165.96875 133.425781 164.894531 133.101562 C 163.789062 132.878906 162.691406 132.746094 161.628906 132.824219 C 160.554688 132.757812 159.578125 133.128906 158.636719 133.265625 C 157.734375 133.570312 156.890625 133.878906 156.140625 134.207031 C 155.410156 134.597656 154.757812 134.980469 154.191406 135.3125 C 153.632812 135.65625 153.207031 136.035156 152.828125 136.300781 C 152.089844 136.871094 151.679688 137.21875 151.679688 137.21875 C 151.679688 137.21875 152.175781 137.019531 153.027344 136.625 C 153.453125 136.433594 153.949219 136.144531 154.550781 135.925781 C 155.160156 135.726562 155.835938 135.5 156.546875 135.230469 C 157.289062 135.03125 158.109375 134.867188 158.953125 134.660156 C 159.460938 134.644531 159.984375 134.5625 160.515625 134.515625 C 158.605469 137.667969 157.484375 141.351562 157.480469 145.308594 C 158.476562 145.976562 159.625 146.652344 160.988281 147.3125 C 166.894531 150.175781 176.417969 149.050781 176.417969 149.050781 "/><path style=" stroke:none;fill-rule:nonzero;fill:#783035;fill-opacity:1;" d="M 211.667969 151.71875 L 211.65625 151.746094 C 211.617188 151.851562 211.660156 151.96875 211.761719 152.027344 C 211.871094 152.085938 212.007812 152.046875 212.066406 151.941406 C 212.070312 151.9375 212.070312 151.9375 212.070312 151.9375 C 212.070312 151.9375 212.371094 151.394531 212.980469 150.558594 C 213.550781 149.714844 214.519531 148.5625 215.847656 147.414062 C 216.519531 146.84375 217.261719 146.242188 218.105469 145.691406 C 218.8125 145.222656 219.589844 144.785156 220.410156 144.382812 C 219.945312 145.976562 219.683594 147.65625 219.683594 149.398438 C 219.683594 151.382812 220.019531 153.285156 220.613281 155.074219 C 222.597656 155.53125 224.835938 155.890625 227.28125 155.992188 C 235.527344 156.347656 241.566406 151.738281 242.539062 150.941406 C 242.601562 150.996094 242.683594 151.027344 242.765625 150.996094 C 242.875 150.953125 242.933594 150.832031 242.890625 150.722656 C 242.890625 150.722656 242.835938 150.578125 242.738281 150.304688 C 242.628906 150.035156 242.5 149.628906 242.25 149.148438 C 242.03125 148.65625 241.710938 148.074219 241.324219 147.417969 C 240.925781 146.769531 240.394531 146.085938 239.785156 145.367188 C 238.539062 143.957031 236.8125 142.460938 234.578125 141.507812 C 233.472656 141.015625 232.253906 140.671875 230.996094 140.488281 C 230.375 140.382812 229.710938 140.363281 229.042969 140.347656 C 228.71875 140.34375 228.433594 140.371094 228.128906 140.382812 C 227.839844 140.390625 227.445312 140.425781 227.160156 140.472656 C 224.632812 140.792969 222.214844 141.628906 220.15625 142.757812 C 218.101562 143.890625 216.347656 145.230469 215.054688 146.582031 C 213.773438 147.945312 212.90625 149.234375 212.386719 150.203125 C 211.878906 151.160156 211.667969 151.71875 211.667969 151.71875 "/><path style=" stroke:none;fill-rule:nonzero;fill:#783035;fill-opacity:1;" d="M 220.726562 131.714844 C 225.023438 129.566406 228.78125 129.207031 233.433594 129.386719 C 235.582031 129.386719 244.707031 129.386719 242.023438 124.910156 C 239.875 122.046875 230.75 121.6875 227.527344 122.046875 C 223.234375 122.582031 215.539062 124.371094 213.570312 128.851562 C 211.066406 134.757812 217.507812 133.324219 220.726562 131.714844 "/><path style=" stroke:none;fill-rule:nonzero;fill:#783035;fill-opacity:1;" d="M 162.886719 124.195312 C 167.449219 125.117188 171.015625 126.347656 174.683594 129.449219 C 177.4375 131.773438 183.359375 134.683594 182.316406 128.347656 C 181.457031 123.535156 174.398438 119.980469 170.347656 118.449219 C 167.308594 117.296875 163.613281 116.546875 160.355469 116.574219 C 159.105469 116.585938 157.074219 117.210938 155.871094 118.183594 C 154.734375 119.101562 154.335938 120.332031 156.035156 121.652344 C 157.789062 123.019531 160.726562 123.757812 162.886719 124.195312 "/><path style=" stroke:none;fill-rule:nonzero;fill:#783035;fill-opacity:1;" d="M 296.566406 153.984375 L 296.539062 154.027344 C 296.539062 154.027344 296.445312 154.210938 296.28125 154.535156 C 296.101562 154.839844 295.9375 155.332031 295.566406 155.828125 C 295.234375 156.347656 294.847656 156.945312 294.335938 157.511719 C 293.875 158.125 293.246094 158.65625 292.675781 159.226562 C 292.035156 159.71875 291.429688 160.253906 290.765625 160.625 C 290.445312 160.8125 290.144531 161.046875 289.839844 161.175781 C 289.542969 161.320312 289.261719 161.457031 289 161.585938 C 288.578125 161.816406 288.117188 161.945312 287.78125 162.066406 C 287.78125 162.03125 287.78125 162 287.785156 161.96875 C 287.925781 160.527344 288.144531 159.011719 288.453125 157.515625 C 288.628906 156.777344 288.761719 156.023438 289 155.320312 C 289.210938 154.601562 289.425781 153.90625 289.695312 153.257812 C 289.9375 152.589844 290.261719 151.996094 290.527344 151.410156 C 290.882812 150.890625 291.125 150.304688 291.488281 149.886719 C 291.828125 149.445312 292.121094 149.015625 292.445312 148.722656 C 292.753906 148.402344 293.003906 148.09375 293.316406 147.90625 C 293.875 147.496094 294.183594 147.242188 294.183594 147.242188 C 294.257812 147.179688 294.289062 147.078125 294.253906 146.980469 C 294.207031 146.863281 294.074219 146.796875 293.953125 146.84375 C 293.953125 146.84375 293.582031 146.988281 292.941406 147.265625 C 292.617188 147.378906 292.257812 147.648438 291.820312 147.9375 C 291.359375 148.210938 290.945312 148.605469 290.503906 149.046875 C 290.015625 149.464844 289.660156 150.042969 289.210938 150.605469 C 288.84375 151.214844 288.402344 151.84375 288.101562 152.554688 C 287.769531 153.261719 287.445312 153.992188 287.21875 154.769531 C 286.941406 155.53125 286.78125 156.332031 286.574219 157.125 C 286.277344 158.726562 286.070312 160.34375 286.054688 161.863281 C 286.015625 163.378906 286.109375 164.796875 286.277344 165.996094 C 286.613281 168.402344 287.207031 169.910156 287.207031 169.910156 C 287.242188 169.992188 287.328125 170.054688 287.417969 170.050781 C 287.539062 170.042969 287.628906 169.941406 287.625 169.824219 C 287.625 169.824219 287.617188 169.425781 287.574219 168.746094 C 287.527344 168.0625 287.539062 167.082031 287.554688 165.921875 C 287.566406 165.367188 287.585938 164.765625 287.621094 164.140625 C 287.671875 164.125 287.722656 164.128906 287.773438 164.105469 C 287.773438 164.105469 287.964844 164.019531 288.300781 163.867188 C 288.644531 163.691406 289.105469 163.554688 289.714844 163.183594 C 290.007812 163.007812 290.332031 162.820312 290.671875 162.617188 C 291.019531 162.429688 291.3125 162.15625 291.65625 161.917969 C 292.34375 161.449219 292.964844 160.816406 293.617188 160.21875 C 294.191406 159.554688 294.808594 158.929688 295.253906 158.230469 C 295.753906 157.578125 296.117188 156.902344 296.425781 156.320312 C 296.769531 155.761719 296.910156 155.21875 297.074219 154.878906 C 297.21875 154.527344 297.300781 154.324219 297.300781 154.324219 C 297.378906 154.132812 297.296875 153.902344 297.109375 153.808594 C 296.910156 153.703125 296.664062 153.78125 296.566406 153.984375 "/><path style=" stroke:none;fill-rule:nonzero;fill:#783035;fill-opacity:1;" d="M 139.144531 313.898438 C 139.089844 313.902344 139.039062 313.898438 138.984375 313.898438 C 138.722656 311.945312 138.15625 310.140625 137.539062 308.480469 C 137.214844 307.628906 136.863281 306.824219 136.507812 306.03125 C 136.234375 305.558594 135.992188 305.042969 135.78125 304.480469 C 135.773438 304.464844 135.765625 304.445312 135.753906 304.425781 C 135.355469 304.621094 134.949219 304.800781 134.546875 304.96875 C 135.097656 306.234375 135.640625 307.554688 136.121094 308.984375 C 136.625 310.542969 137.0625 312.210938 137.28125 313.914062 C 137.226562 313.910156 137.171875 313.917969 137.117188 313.914062 C 137.171875 314.332031 137.21875 314.746094 137.242188 315.167969 C 137.363281 317.265625 136.730469 319.351562 135.027344 320.21875 C 134.8125 320.3125 134.683594 320.429688 134.398438 320.523438 L 133.535156 320.789062 C 133.171875 320.808594 132.582031 320.980469 132.105469 320.898438 C 131.101562 320.894531 130.089844 320.539062 129.136719 320.023438 C 127.191406 319.023438 125.484375 317.371094 123.996094 315.609375 C 122.542969 313.894531 121.269531 312.035156 120.113281 310.179688 C 120.082031 310.128906 120.042969 310.078125 120.011719 310.023438 C 117.652344 306.203125 115.695312 302.445312 114.15625 299.167969 C 112.621094 295.878906 111.367188 293.117188 110.566406 291.148438 C 109.757812 289.191406 109.296875 288.066406 109.296875 288.066406 C 109.246094 287.941406 109.109375 287.871094 108.976562 287.90625 C 108.972656 287.90625 108.972656 287.910156 108.96875 287.910156 C 108.828125 287.949219 108.742188 288.09375 108.78125 288.238281 C 108.78125 288.238281 109.085938 289.425781 109.742188 291.457031 C 110.414062 293.480469 111.355469 296.390625 112.761719 299.78125 C 114.1875 303.15625 115.882812 307.113281 118.257812 311.089844 C 119.445312 313.074219 120.773438 315.085938 122.339844 316.996094 C 123.90625 318.894531 125.707031 320.757812 128.082031 322.039062 C 129.257812 322.65625 130.617188 323.117188 132.042969 323.117188 C 132.773438 323.175781 133.386719 323.027344 134.203125 322.867188 C 134.492188 322.78125 134.789062 322.6875 135.109375 322.5625 C 135.070312 322.625 135.035156 322.675781 134.992188 322.742188 C 134.585938 323.425781 134.019531 324.15625 133.480469 324.992188 C 131.246094 328.285156 128.269531 332.679688 125.289062 337.074219 C 123.820312 339.28125 122.351562 341.5 120.976562 343.574219 C 119.628906 345.671875 118.367188 347.625 117.289062 349.308594 C 115.152344 352.679688 113.800781 354.976562 113.800781 354.976562 C 113.746094 355.074219 113.765625 355.203125 113.851562 355.273438 C 113.949219 355.359375 114.09375 355.34375 114.175781 355.246094 C 114.175781 355.246094 114.601562 354.730469 115.351562 353.835938 C 116.066406 352.914062 117.148438 351.640625 118.339844 350.039062 C 119.53125 348.433594 120.96875 346.601562 122.414062 344.5625 C 123.878906 342.539062 125.390625 340.347656 126.878906 338.140625 C 128.363281 335.925781 129.816406 333.691406 131.117188 331.554688 C 132.464844 329.453125 133.570312 327.382812 134.566406 325.644531 C 135.050781 324.769531 135.519531 323.984375 135.847656 323.226562 C 136.09375 322.691406 136.3125 322.226562 136.511719 321.796875 C 137.558594 321.074219 138.367188 320.042969 138.777344 318.902344 C 139.253906 317.605469 139.355469 316.285156 139.277344 315.066406 C 139.253906 314.667969 139.195312 314.285156 139.144531 313.898438 "/><path style=" stroke:none;fill-rule:nonzero;fill:#783035;fill-opacity:1;" d="M 201.125 316.058594 C 196.515625 314.242188 191.285156 313.03125 187.695312 309.417969 C 184.492188 306.199219 182.210938 301.625 180.75 297.382812 C 180.074219 295.421875 179.695312 293.316406 180.101562 291.265625 C 180.480469 289.359375 181.351562 288.410156 182.425781 288.085938 C 182.183594 287.5 181.988281 286.898438 181.773438 286.300781 C 179.742188 287.160156 178.253906 289.257812 178.0625 291.804688 C 177.621094 297.699219 181.035156 303.710938 184.339844 308.335938 C 188.304688 313.894531 194.539062 315.511719 200.617188 317.910156 C 201.765625 318.359375 202.257812 316.507812 201.125 316.058594 "/><path style=" stroke:none;fill-rule:nonzero;fill:#783035;fill-opacity:1;" d="M 218.5 280.46875 C 214.425781 280.46875 211.125 277.167969 211.125 273.089844 C 211.125 269.015625 214.425781 265.714844 218.5 265.714844 C 222.570312 265.714844 225.875 269.015625 225.875 273.089844 C 225.875 277.167969 222.570312 280.46875 218.5 280.46875 Z M 218.5 247.914062 C 204.621094 247.914062 193.335938 259.207031 193.335938 273.089844 C 193.335938 286.976562 204.621094 298.269531 218.5 298.269531 C 232.375 298.269531 243.664062 286.976562 243.664062 273.089844 C 243.664062 259.207031 232.375 247.914062 218.5 247.914062 "/><path style=" stroke:none;fill-rule:nonzero;fill:#783035;fill-opacity:1;" d="M 218.5 300.1875 C 203.566406 300.1875 191.417969 288.03125 191.417969 273.089844 C 191.417969 258.152344 203.566406 246 218.5 246 C 233.429688 246 245.578125 258.152344 245.578125 273.089844 C 245.578125 288.03125 233.429688 300.1875 218.5 300.1875 Z M 218.5 239.859375 C 200.15625 239.859375 185.285156 254.738281 185.285156 273.089844 C 185.285156 291.441406 200.15625 306.324219 218.5 306.324219 C 236.84375 306.324219 251.714844 291.445312 251.714844 273.089844 C 251.714844 254.738281 236.84375 239.859375 218.5 239.859375 "/><path style=" stroke:none;fill-rule:nonzero;fill:#783035;fill-opacity:1;" d="M 218.5 270.039062 C 220.179688 270.039062 221.546875 271.40625 221.546875 273.089844 C 221.546875 274.773438 220.179688 276.140625 218.5 276.140625 C 216.816406 276.140625 215.453125 274.773438 215.453125 273.089844 C 215.453125 271.40625 216.816406 270.039062 218.5 270.039062 "/><path style=" stroke:none;fill-rule:nonzero;fill:#783035;fill-opacity:1;" d="M 151.835938 256.894531 C 151.929688 256.777344 151.886719 256.800781 151.902344 256.757812 C 151.902344 256.753906 151.898438 256.753906 151.902344 256.753906 C 151.914062 256.71875 151.902344 256.671875 151.898438 256.628906 C 151.894531 256.519531 151.867188 256.40625 151.84375 256.382812 C 151.765625 256.324219 151.855469 256.359375 151.652344 256.214844 L 151.367188 256.09375 C 149.832031 255.460938 148.308594 254.773438 146.78125 254.195312 C 146.015625 253.894531 145.261719 253.597656 144.515625 253.304688 C 143.730469 252.964844 142.964844 252.890625 142.207031 252.671875 C 140.65625 252.339844 139.085938 252.351562 137.679688 252.765625 C 136.316406 253.15625 135.066406 253.816406 134.0625 254.546875 C 133.09375 255.351562 132.1875 256.066406 131.507812 256.816406 C 130.78125 257.515625 130.21875 258.207031 129.726562 258.738281 C 128.761719 259.832031 128.210938 260.457031 128.210938 260.457031 C 128.210938 260.457031 128.167969 260.523438 128.15625 260.644531 C 128.109375 260.707031 128.34375 261.019531 128.527344 260.902344 C 128.902344 260.699219 129.363281 260.398438 129.957031 259.960938 C 131.117188 259.085938 132.8125 257.902344 134.847656 256.457031 C 135.859375 255.773438 137.078125 255.167969 138.433594 254.859375 C 139.136719 254.667969 139.8125 254.734375 140.585938 254.71875 C 141.351562 254.652344 142.011719 254.886719 142.8125 255.015625 C 144.292969 255.320312 145.832031 255.957031 147.445312 256.269531 C 148.25 256.433594 149.054688 256.597656 149.867188 256.761719 L 151.085938 257.007812 L 151.394531 257.074219 C 151.46875 257.09375 151.691406 257.039062 151.753906 256.976562 L 151.835938 256.894531 "/><path style=" stroke:none;fill-rule:nonzero;fill:#783035;fill-opacity:1;" d="M 141.613281 268.964844 C 141.835938 268.917969 142.089844 268.828125 142.285156 268.808594 L 142.996094 268.75 C 143.464844 268.71875 143.949219 268.640625 144.40625 268.652344 L 145.824219 268.695312 C 146.296875 268.703125 146.769531 268.789062 147.242188 268.835938 C 147.71875 268.875 148.167969 268.964844 148.640625 269.058594 C 149.574219 269.246094 150.507812 269.402344 151.425781 269.660156 C 151.582031 269.675781 151.667969 269.640625 151.746094 269.539062 C 151.796875 269.398438 151.785156 269.261719 151.710938 269.203125 C 151.539062 269.035156 151.367188 268.984375 151.191406 268.871094 C 150.851562 268.65625 150.496094 268.5 150.128906 268.347656 C 149.398438 268.046875 148.707031 267.703125 147.9375 267.441406 C 147.175781 267.246094 146.410156 266.960938 145.628906 266.898438 C 144.875 266.773438 144.042969 266.644531 143.261719 266.703125 L 142.082031 266.714844 C 141.648438 266.734375 141.292969 266.820312 140.894531 266.871094 C 140.085938 267.035156 139.355469 267.253906 138.589844 267.574219 C 137.144531 268.246094 135.839844 269.152344 134.527344 270.039062 C 133.867188 270.460938 133.246094 270.984375 132.644531 271.476562 C 132.054688 271.964844 131.433594 272.519531 130.878906 273.070312 C 130.625 273.335938 130.296875 273.640625 130.0625 273.949219 L 129.683594 274.398438 C 129.644531 274.453125 129.640625 274.441406 129.570312 274.546875 C 129.515625 274.640625 129.503906 274.851562 129.523438 274.867188 L 129.546875 274.9375 L 129.550781 274.953125 C 129.609375 275.089844 129.582031 275.007812 129.605469 275.046875 L 129.679688 275.105469 C 129.777344 275.1875 129.972656 275.230469 129.984375 275.207031 C 130.84375 274.820312 131.375 274.386719 132.085938 273.984375 C 133.421875 273.148438 134.769531 272.363281 136.121094 271.554688 C 137.488281 270.789062 138.792969 269.839844 140.234375 269.3125 L 140.230469 269.3125 L 141.613281 268.964844 "/><path style=" stroke:none;fill-rule:nonzero;fill:#783035;fill-opacity:1;" d="M 152.113281 280.867188 C 151.507812 280.734375 150.769531 280.574219 149.925781 280.394531 C 149.035156 280.320312 148.058594 280.222656 146.996094 280.308594 C 146.464844 280.308594 145.894531 280.371094 145.328125 280.46875 C 144.753906 280.5625 144.148438 280.609375 143.566406 280.792969 C 142.375 281.046875 141.132812 281.511719 139.921875 282.019531 C 138.636719 282.550781 137.515625 283.28125 136.332031 284.109375 C 135.238281 284.953125 134.128906 285.964844 133.335938 287.203125 L 133.074219 287.667969 L 132.945312 287.898438 C 132.925781 287.890625 132.867188 288.128906 132.902344 288.210938 C 132.925781 288.332031 132.945312 288.308594 132.96875 288.367188 C 133.121094 288.605469 133.503906 288.558594 133.5 288.515625 L 133.558594 288.488281 L 133.578125 288.480469 C 133.566406 288.492188 133.726562 288.382812 133.664062 288.421875 L 133.683594 288.40625 L 133.777344 288.316406 L 134.164062 287.953125 C 134.660156 287.527344 135.28125 287.117188 135.828125 286.699219 C 136.917969 285.953125 138.234375 285.3125 139.339844 284.710938 C 140.550781 284.160156 141.753906 283.6875 142.894531 283.296875 C 144.066406 282.988281 145.171875 282.699219 146.191406 282.429688 C 147.226562 282.214844 148.210938 282.136719 149.0625 282.003906 C 149.917969 281.859375 150.660156 281.878906 151.28125 281.84375 C 152.519531 281.773438 153.230469 281.839844 153.230469 281.839844 C 153.15625 281.832031 153.679688 281.878906 153.484375 281.390625 C 153.191406 281.160156 152.71875 281.023438 152.113281 280.867188 "/><path style=" stroke:none;fill-rule:nonzero;fill:#783035;fill-opacity:1;" d="M 114.636719 250.003906 C 114.953125 249.789062 115.128906 249.671875 115.128906 249.671875 L 115.140625 249.660156 C 115.230469 249.597656 115.265625 249.472656 115.203125 249.378906 C 115.195312 249.359375 115.175781 249.355469 115.160156 249.34375 C 115.09375 249.277344 115 249.253906 114.914062 249.300781 C 114.914062 249.300781 113.53125 250.121094 111.105469 251.554688 C 109.894531 252.28125 108.429688 253.164062 106.742188 254.171875 C 105.902344 254.683594 105.007812 255.222656 104.0625 255.796875 C 103.15625 256.425781 102.210938 257.089844 101.222656 257.78125 C 99.242188 259.167969 97.09375 260.671875 94.824219 262.257812 C 92.535156 263.828125 90.285156 265.691406 87.894531 267.542969 C 85.539062 269.429688 83.027344 271.292969 80.640625 273.382812 C 78.222656 275.4375 75.761719 277.515625 73.304688 279.601562 C 70.882812 281.722656 68.539062 283.9375 66.191406 286.0625 C 63.84375 288.195312 61.550781 290.3125 59.386719 292.417969 C 55.007812 296.570312 51.042969 300.574219 47.660156 304.023438 C 44.246094 307.4375 41.539062 310.410156 39.59375 312.445312 C 37.679688 314.503906 36.582031 315.679688 36.582031 315.679688 C 36.503906 315.765625 36.5 315.90625 36.582031 316 C 36.667969 316.089844 36.8125 316.097656 36.90625 316.007812 C 36.90625 316.007812 41.566406 311.574219 48.5625 304.929688 C 50.308594 303.277344 52.199219 301.476562 54.199219 299.574219 C 56.226562 297.695312 58.363281 295.722656 60.566406 293.675781 C 62.75 291.597656 65.054688 289.511719 67.414062 287.410156 C 69.773438 285.3125 72.128906 283.128906 74.566406 281.039062 C 76.992188 278.941406 79.417969 276.839844 81.804688 274.773438 C 84.160156 272.664062 86.632812 270.789062 88.960938 268.886719 C 91.332031 267.039062 93.503906 265.09375 95.726562 263.464844 C 97.933594 261.816406 100.019531 260.253906 101.941406 258.8125 C 102.90625 258.089844 103.828125 257.398438 104.707031 256.738281 C 105.613281 256.121094 106.472656 255.539062 107.277344 254.992188 C 108.902344 253.902344 110.316406 252.945312 111.480469 252.164062 C 112.984375 251.136719 114.058594 250.398438 114.636719 250.003906 "/><path style=" stroke:none;fill-rule:nonzero;fill:#783035;fill-opacity:1;" d="M 265.804688 326.683594 C 265.804688 326.683594 265.28125 326.71875 264.296875 326.792969 C 263.3125 326.890625 261.84375 326.867188 260.039062 327.28125 C 259.140625 327.46875 258.113281 327.59375 257.039062 327.882812 C 256.480469 328.039062 255.898438 328.203125 255.292969 328.375 C 254.734375 328.535156 254.164062 328.695312 253.566406 328.859375 C 252.355469 329.296875 251.070312 329.753906 249.710938 330.238281 C 248.367188 330.765625 246.996094 331.414062 245.539062 332.03125 C 242.683594 333.375 239.621094 334.921875 236.453125 336.636719 C 234.878906 337.464844 233.21875 338.394531 231.597656 339.324219 C 229.949219 340.253906 228.265625 341.203125 226.558594 342.171875 C 223.144531 344.140625 219.625 346.234375 216.265625 348.746094 C 214.851562 349.816406 213.472656 350.980469 212.148438 352.226562 C 210.363281 353.917969 208.703125 355.773438 207.347656 357.902344 C 206.863281 358.90625 206.238281 359.78125 205.894531 360.894531 L 205.324219 362.496094 L 204.996094 364.027344 C 204.597656 366.316406 204.742188 368.371094 204.863281 370.507812 C 205.25 374.71875 206.246094 378.730469 207.398438 382.519531 C 209.742188 390.097656 212.769531 396.816406 215.179688 402.613281 C 216.386719 405.523438 217.511719 408.136719 218.390625 410.539062 C 218.804688 411.605469 219.203125 412.582031 219.582031 413.503906 C 220.058594 414.667969 220.503906 415.726562 220.886719 416.683594 C 222.273438 420.078125 223.070312 422.015625 223.070312 422.015625 C 223.113281 422.128906 223.242188 422.1875 223.367188 422.144531 C 223.386719 422.136719 223.394531 422.117188 223.414062 422.101562 C 223.492188 422.042969 223.535156 421.945312 223.5 421.851562 C 223.5 421.851562 222.789062 419.878906 221.546875 416.429688 C 220.933594 414.710938 220.136719 412.601562 219.324219 410.214844 C 218.554688 407.78125 217.523438 405.050781 216.371094 402.132812 C 214.070312 396.28125 211.304688 389.492188 209.058594 382.027344 C 207.949219 378.300781 207.015625 374.378906 206.675781 370.355469 C 206.648438 369.355469 206.558594 368.347656 206.574219 367.339844 L 206.648438 365.835938 L 206.683594 365.082031 L 206.824219 364.421875 L 207.160156 362.890625 L 207.671875 361.550781 C 207.9375 360.648438 208.554688 359.792969 208.984375 358.910156 C 211.109375 355.503906 214.152344 352.664062 217.359375 350.199219 C 220.589844 347.738281 224.042969 345.640625 227.414062 343.660156 C 229.113281 342.671875 230.78125 341.703125 232.414062 340.757812 C 234.046875 339.765625 235.59375 338.851562 237.183594 337.960938 C 240.304688 336.171875 243.285156 334.574219 246.078125 333.175781 C 247.496094 332.519531 248.851562 331.894531 250.144531 331.296875 C 251.457031 330.761719 252.710938 330.25 253.882812 329.773438 C 255.082031 329.378906 256.207031 329.003906 257.25 328.664062 C 258.296875 328.332031 259.289062 328.171875 260.167969 327.945312 C 261.929688 327.464844 263.367188 327.425781 264.332031 327.285156 C 265.300781 327.171875 265.820312 327.109375 265.820312 327.109375 L 265.847656 327.105469 C 265.957031 327.09375 266.042969 326.992188 266.035156 326.882812 C 266.023438 326.761719 265.921875 326.675781 265.804688 326.683594 "/><path style=" stroke:none;fill-rule:nonzero;fill:#783035;fill-opacity:1;" d="M 288.320312 355.230469 C 287.8125 354.117188 287.273438 352.9375 286.722656 351.71875 C 286.148438 350.503906 285.554688 349.253906 284.957031 347.976562 C 284.222656 346.773438 283.480469 345.550781 282.734375 344.328125 C 281.949219 343.132812 281.269531 341.863281 280.410156 340.75 C 279.539062 339.636719 278.691406 338.542969 277.863281 337.484375 C 277.074219 336.398438 276.171875 335.464844 275.304688 334.585938 C 274.445312 333.703125 273.664062 332.847656 272.894531 332.101562 C 272.097656 331.378906 271.347656 330.742188 270.6875 330.179688 C 270.039062 329.597656 269.402344 329.167969 268.902344 328.785156 C 267.902344 328.023438 267.289062 327.679688 267.289062 327.679688 L 267.273438 327.667969 C 267.179688 327.613281 267.058594 327.636719 266.988281 327.722656 C 266.910156 327.820312 266.921875 327.964844 267.015625 328.042969 C 267.015625 328.042969 267.570312 328.503906 268.441406 329.363281 C 268.882812 329.789062 269.441406 330.265625 270.011719 330.914062 C 270.589844 331.542969 271.246094 332.253906 271.980469 333 C 272.683594 333.777344 273.394531 334.671875 274.167969 335.59375 C 274.949219 336.503906 275.753906 337.484375 276.496094 338.5625 C 277.269531 339.621094 278.066406 340.714844 278.882812 341.824219 C 279.710938 342.921875 280.359375 344.171875 281.113281 345.34375 C 281.855469 346.53125 282.597656 347.714844 283.328125 348.882812 C 283.953125 350.113281 284.570312 351.316406 285.167969 352.484375 C 285.78125 353.648438 286.375 354.769531 286.9375 355.839844 C 287.527344 356.894531 287.863281 357.992188 288.289062 358.953125 C 289.90625 362.84375 291.105469 365.425781 291.105469 365.425781 L 291.113281 365.449219 C 291.15625 365.542969 291.265625 365.59375 291.363281 365.5625 C 291.480469 365.535156 291.546875 365.417969 291.515625 365.300781 C 291.515625 365.300781 290.765625 362.570312 289.460938 358.492188 C 289.101562 357.484375 288.835938 356.34375 288.320312 355.230469 "/><g clip-rule="nonzero" clip-path="url(#db42a7e536)"><path style=" stroke:none;fill-rule:nonzero;fill:#fffdef;fill-opacity:1;" d="M 271.484375 294.878906 C 271.484375 297.066406 269.207031 297.066406 267.847656 297.066406 L 266.429688 297.066406 C 265.53125 297.066406 264.585938 297.050781 263.800781 296.867188 C 262.144531 296.480469 261.898438 295.453125 261.898438 294.878906 L 261.898438 281.140625 C 261.898438 279.046875 264.867188 277.894531 266.921875 277.894531 L 267.386719 277.894531 C 269.683594 277.894531 271.484375 279.320312 271.484375 281.140625 Z M 258.738281 222.945312 C 258.738281 221.257812 260.105469 219.898438 261.785156 219.898438 C 263.46875 219.898438 264.832031 221.257812 264.832031 222.945312 C 264.832031 224.628906 263.46875 225.992188 261.785156 225.992188 C 260.105469 225.992188 258.738281 224.628906 258.738281 222.945312 Z M 259.984375 231.863281 L 238.605469 231.863281 L 238.363281 231.699219 C 233.773438 228.570312 226.601562 224.84375 218.488281 224.84375 C 210.496094 224.84375 203.398438 228.484375 198.804688 231.585938 L 198.804688 231.867188 L 173.730469 231.867188 L 173.730469 229.945312 L 197.804688 229.945312 C 204.632812 225.355469 211.777344 222.925781 218.488281 222.925781 C 225.214844 222.925781 232.371094 225.355469 239.199219 229.945312 L 259.984375 229.945312 Z M 150.8125 220.074219 C 145.695312 220.074219 140.25 218.714844 140.25 216.183594 C 140.25 213.660156 145.695312 212.296875 150.8125 212.296875 C 155.933594 212.296875 161.375 213.660156 161.375 216.183594 C 161.375 218.714844 155.933594 220.074219 150.8125 220.074219 Z M 158.398438 231.863281 L 143.0625 231.863281 C 142.007812 231.863281 141.144531 231.003906 141.144531 229.945312 C 141.144531 228.886719 142.003906 228.027344 143.0625 228.027344 L 158.398438 228.027344 C 159.457031 228.027344 160.3125 228.886719 160.3125 229.945312 C 160.3125 231.003906 159.457031 231.863281 158.398438 231.863281 Z M 340.585938 180.9375 C 336.007812 173.9375 331.738281 166.746094 327.570312 159.496094 C 322.023438 149.847656 316.652344 140.097656 310.992188 130.519531 C 299.480469 120.9375 282.453125 110.738281 262.269531 103.492188 C 264.300781 115.929688 268.09375 135.160156 273.320312 144.480469 C 275.613281 148.5625 277.351562 152.195312 278.699219 155.335938 L 278.496094 148.976562 C 281.640625 141.410156 290.253906 137.328125 298.316406 138.21875 C 300.347656 138.445312 302.351562 138.992188 304.195312 139.859375 C 306.929688 141.136719 309.367188 143.144531 311.214844 145.921875 C 323.558594 163.972656 300.582031 181.144531 283.335938 181.835938 C 278.140625 192.261719 272.582031 202.257812 263.488281 209.28125 C 262.175781 210.292969 260.808594 211.234375 259.449219 212.191406 C 259.785156 212.695312 259.984375 213.300781 259.984375 213.957031 L 259.984375 215.253906 C 259.984375 217.015625 258.558594 218.441406 256.796875 218.441406 L 238.25 218.441406 C 236.527344 218.441406 235.136719 217.074219 235.078125 215.371094 C 234.109375 214.941406 233.253906 214.171875 232.566406 212.839844 C 230.789062 209.429688 228.070312 202.484375 223.589844 201.867188 C 219.296875 201.28125 215.179688 200.777344 210.890625 201.097656 C 204.171875 201.632812 201.769531 202.707031 198.410156 209.40625 C 197.0625 212.070312 195.890625 214.230469 194.414062 215.695312 C 193.648438 216.453125 191.046875 217.394531 189.941406 217.402344 C 188.835938 217.417969 188.195312 217.425781 188.195312 217.425781 C 180.0625 217.273438 173.792969 216.949219 170.351562 216.734375 C 170.320312 216.226562 170.292969 215.734375 170.269531 215.25 C 168.757812 214.355469 167.269531 213.425781 165.820312 212.433594 C 147.105469 199.3125 138.769531 178.035156 144.898438 156.878906 C 147.472656 147.972656 149.910156 132.28125 148.898438 122.429688 C 147.671875 110.453125 148.515625 100.394531 150.667969 92.003906 C 144.472656 104.242188 139.074219 128.625 133.492188 139.363281 C 133.488281 139.371094 133.484375 139.378906 133.484375 139.382812 C 125.886719 153.050781 112.222656 159.882812 97.800781 165.199219 C 88.6875 169 61.347656 170.519531 56.03125 178.875 C 49.957031 187.234375 62.109375 201.671875 66.660156 208.511719 C 72.453125 216.511719 80.753906 223.804688 90.164062 230.367188 C 101.75 221.726562 119.359375 216.796875 135.574219 214.851562 C 134.753906 215.421875 134.253906 216.011719 134.253906 216.59375 C 134.253906 217.550781 134.289062 226.792969 134.328125 238.640625 C 141.484375 237.574219 150.578125 240.929688 156.085938 244.316406 C 162.582031 248.445312 162.8125 254.121094 154.859375 256.3125 C 153.910156 256.574219 152.917969 256.648438 151.902344 256.632812 C 151.902344 256.675781 151.914062 256.71875 151.902344 256.753906 C 151.902344 256.757812 151.902344 256.757812 151.902344 256.757812 C 157.4375 258.257812 159.21875 266.359375 152.960938 269.269531 C 152.960938 269.269531 154.328125 269.4375 155.335938 270.234375 C 159.113281 273.488281 158.683594 278.910156 155.042969 281.199219 C 158.96875 282.015625 160.300781 289.101562 156.28125 290.957031 L 152.898438 293.609375 C 147.34375 296.769531 141.613281 301.652344 135.765625 304.425781 C 135.769531 304.445312 135.777344 304.464844 135.785156 304.484375 C 135.992188 305.042969 136.234375 305.5625 136.511719 306.035156 C 138.375 309.230469 141.878906 310.628906 148.53125 311.878906 C 156.429688 312.863281 167.398438 311.941406 172.996094 305.160156 C 172.996094 305.160156 173.527344 305.171875 174.441406 305.191406 C 173.363281 302.5 172.339844 299.578125 171.554688 296.703125 C 171.566406 298.339844 171.574219 299.902344 171.574219 301.371094 L 170.617188 301.371094 C 170.617188 298.640625 170.59375 295.578125 170.550781 292.304688 C 170.042969 289.414062 169.925781 286.792969 170.433594 284.824219 C 169.992188 260.476562 168.886719 229.753906 168.875 229.371094 L 169.832031 229.332031 C 169.84375 229.710938 170.886719 258.695312 171.355469 282.679688 C 174.464844 277.207031 177.789062 278.871094 180.519531 282.097656 C 179.839844 279.203125 179.4375 276.199219 179.4375 273.09375 C 179.4375 251.507812 196.925781 234.011719 218.5 234.011719 C 240.074219 234.011719 257.5625 251.507812 257.5625 273.09375 C 257.5625 279.679688 255.917969 285.878906 253.042969 291.324219 C 253.785156 291.59375 254.449219 292.074219 255.003906 292.820312 C 257.390625 296.03125 256.621094 301.222656 254.429688 306.535156 C 255.023438 306.492188 255.605469 306.453125 256.203125 306.410156 C 269.277344 305.371094 277.210938 306.414062 275.808594 289.730469 C 274.96875 278 274.164062 238.910156 274.015625 226.160156 C 274.253906 226.179688 274.5 226.203125 274.734375 226.21875 C 300.089844 227.738281 313.617188 232.378906 330.675781 250.867188 C 333.324219 249.808594 335.964844 248.734375 338.570312 247.605469 C 348.121094 243.488281 367 236.890625 372.171875 227.503906 C 379.265625 214.628906 347.0625 190.84375 340.585938 180.9375 "/></g><path style=" stroke:none;fill-rule:nonzero;fill:#fffdef;fill-opacity:1;" d="M 157.480469 145.308594 C 157.484375 141.351562 158.609375 137.667969 160.515625 134.515625 C 159.984375 134.5625 159.460938 134.644531 158.953125 134.660156 C 158.109375 134.867188 157.289062 135.035156 156.546875 135.230469 C 155.835938 135.5 155.160156 135.726562 154.550781 135.929688 C 153.949219 136.148438 153.453125 136.433594 153.027344 136.625 C 152.175781 137.019531 151.679688 137.222656 151.679688 137.222656 C 151.679688 137.222656 151.375 141.191406 157.480469 145.308594 "/><path style=" stroke:none;fill-rule:nonzero;fill:#fffdef;fill-opacity:1;" d="M 219.683594 149.398438 C 219.683594 147.652344 219.945312 145.976562 220.410156 144.382812 C 219.589844 144.785156 218.8125 145.21875 218.105469 145.691406 C 217.257812 146.242188 216.519531 146.839844 215.847656 147.414062 C 214.515625 148.5625 213.550781 149.714844 212.980469 150.558594 C 212.371094 151.394531 212.070312 151.9375 212.070312 151.9375 C 212.070312 151.9375 212.066406 151.9375 212.066406 151.9375 C 212.84375 152.367188 216 154 220.613281 155.070312 C 220.019531 153.285156 219.683594 151.382812 219.683594 149.398438 "/><path style=" stroke:none;fill-rule:nonzero;fill:#fffdef;fill-opacity:1;" d="M 150.8125 213.253906 C 145.15625 213.253906 141.210938 214.800781 141.210938 216.1875 C 141.210938 217.570312 145.15625 219.117188 150.8125 219.117188 C 156.472656 219.117188 160.417969 217.570312 160.417969 216.1875 C 160.417969 214.800781 156.472656 213.253906 150.8125 213.253906 "/><path style=" stroke:none;fill-rule:nonzero;fill:#fffdef;fill-opacity:1;" d="M 267.386719 279.808594 L 266.921875 279.808594 C 265.320312 279.808594 263.8125 280.726562 263.8125 281.140625 L 263.8125 294.878906 C 263.992188 295.039062 264.882812 295.148438 266.433594 295.148438 L 267.851562 295.148438 C 268.300781 295.148438 269.363281 295.148438 269.570312 294.972656 L 269.566406 281.140625 C 269.566406 280.40625 268.589844 279.808594 267.386719 279.808594 "/><path style=" stroke:none;fill-rule:nonzero;fill:#d88780;fill-opacity:1;" d="M 297.304688 154.324219 C 297.304688 154.324219 297.222656 154.527344 297.074219 154.875 C 296.914062 155.21875 296.773438 155.761719 296.429688 156.320312 C 296.121094 156.902344 295.753906 157.574219 295.257812 158.226562 C 294.8125 158.929688 294.195312 159.550781 293.617188 160.21875 C 292.96875 160.8125 292.347656 161.449219 291.65625 161.917969 C 291.3125 162.15625 291.023438 162.425781 290.675781 162.617188 C 290.335938 162.816406 290.011719 163.003906 289.714844 163.179688 C 289.109375 163.554688 288.648438 163.6875 288.304688 163.867188 C 287.964844 164.015625 287.773438 164.101562 287.773438 164.101562 C 287.726562 164.125 287.675781 164.125 287.625 164.136719 C 287.589844 164.765625 287.570312 165.367188 287.558594 165.917969 C 287.539062 167.082031 287.53125 168.0625 287.578125 168.742188 C 287.621094 169.425781 287.625 169.820312 287.625 169.820312 C 287.632812 169.9375 287.539062 170.042969 287.421875 170.046875 C 287.328125 170.050781 287.246094 169.988281 287.210938 169.910156 C 287.210938 169.910156 286.617188 168.398438 286.28125 165.996094 C 286.109375 164.792969 286.019531 163.378906 286.054688 161.859375 C 286.074219 160.34375 286.28125 158.726562 286.578125 157.121094 C 286.785156 156.332031 286.945312 155.53125 287.21875 154.765625 C 287.449219 153.992188 287.769531 153.257812 288.105469 152.554688 C 288.402344 151.84375 288.847656 151.214844 289.210938 150.601562 C 289.664062 150.039062 290.019531 149.464844 290.507812 149.046875 C 290.949219 148.601562 291.363281 148.210938 291.824219 147.9375 C 292.261719 147.648438 292.621094 147.375 292.945312 147.261719 C 293.582031 146.984375 293.957031 146.84375 293.957031 146.84375 C 294.078125 146.796875 294.210938 146.859375 294.253906 146.976562 C 294.292969 147.074219 294.257812 147.179688 294.183594 147.242188 C 294.183594 147.242188 293.875 147.496094 293.316406 147.90625 C 293.007812 148.09375 292.757812 148.402344 292.445312 148.71875 C 292.125 149.011719 291.832031 149.445312 291.488281 149.886719 C 291.125 150.304688 290.882812 150.886719 290.53125 151.40625 C 290.261719 151.996094 289.941406 152.589844 289.699219 153.253906 C 289.429688 153.90625 289.210938 154.601562 289.003906 155.316406 C 288.765625 156.019531 288.632812 156.777344 288.453125 157.515625 C 288.148438 159.011719 287.929688 160.527344 287.789062 161.964844 C 287.785156 162 287.78125 162.03125 287.78125 162.066406 C 288.117188 161.945312 288.578125 161.816406 289 161.582031 C 289.261719 161.457031 289.546875 161.316406 289.84375 161.171875 C 290.148438 161.046875 290.445312 160.808594 290.765625 160.625 C 291.433594 160.25 292.035156 159.714844 292.679688 159.222656 C 293.25 158.652344 293.878906 158.125 294.339844 157.511719 C 294.847656 156.941406 295.238281 156.34375 295.570312 155.828125 C 295.9375 155.328125 296.105469 154.839844 296.285156 154.53125 C 296.449219 154.210938 296.542969 154.027344 296.542969 154.027344 L 296.566406 153.984375 C 296.667969 153.78125 296.914062 153.703125 297.113281 153.804688 C 297.300781 153.902344 297.382812 154.132812 297.304688 154.324219 Z M 242.765625 150.996094 C 242.683594 151.027344 242.597656 150.996094 242.539062 150.941406 C 241.5625 151.734375 235.527344 156.347656 227.28125 155.992188 C 224.835938 155.890625 222.597656 155.53125 220.613281 155.074219 C 216 154.003906 212.84375 152.367188 212.066406 151.941406 C 212.007812 152.046875 211.871094 152.085938 211.761719 152.027344 C 211.660156 151.972656 211.617188 151.851562 211.65625 151.746094 L 211.667969 151.71875 C 211.667969 151.71875 211.878906 151.160156 212.386719 150.207031 C 212.90625 149.238281 213.773438 147.949219 215.054688 146.582031 C 216.347656 145.230469 218.101562 143.894531 220.15625 142.757812 C 222.214844 141.632812 224.632812 140.796875 227.160156 140.476562 C 227.441406 140.429688 227.839844 140.394531 228.125 140.386719 C 228.433594 140.375 228.71875 140.347656 229.042969 140.351562 C 229.707031 140.367188 230.375 140.386719 230.996094 140.488281 C 232.253906 140.671875 233.472656 141.015625 234.574219 141.507812 C 236.808594 142.460938 238.539062 143.960938 239.785156 145.367188 C 240.394531 146.085938 240.925781 146.769531 241.324219 147.421875 C 241.710938 148.078125 242.03125 148.65625 242.25 149.152344 C 242.5 149.628906 242.628906 150.039062 242.734375 150.304688 C 242.835938 150.578125 242.890625 150.722656 242.890625 150.722656 C 242.929688 150.832031 242.875 150.953125 242.765625 150.996094 Z M 193.351562 188.492188 C 185.28125 188.492188 177.253906 185.808594 170.769531 178.835938 L 172.171875 177.53125 C 184.210938 190.46875 202.046875 187.636719 214.726562 180.671875 L 215.648438 182.351562 C 209.085938 185.957031 201.199219 188.492188 193.351562 188.492188 Z M 160.988281 147.3125 C 159.625 146.652344 158.476562 145.980469 157.480469 145.308594 C 151.375 141.191406 151.679688 137.21875 151.679688 137.21875 C 151.679688 137.21875 152.089844 136.871094 152.828125 136.300781 C 153.210938 136.035156 153.632812 135.65625 154.191406 135.3125 C 154.757812 134.980469 155.410156 134.597656 156.140625 134.207031 C 156.890625 133.878906 157.734375 133.570312 158.636719 133.265625 C 159.578125 133.128906 160.558594 132.757812 161.628906 132.824219 C 162.691406 132.746094 163.789062 132.878906 164.894531 133.101562 C 165.96875 133.425781 167.070312 133.765625 168.046875 134.355469 C 168.566406 134.605469 169.03125 134.925781 169.46875 135.28125 C 169.914062 135.625 170.386719 135.9375 170.761719 136.34375 C 171.152344 136.734375 171.558594 137.105469 171.90625 137.515625 C 172.234375 137.941406 172.558594 138.359375 172.875 138.773438 C 173.464844 139.625 173.988281 140.484375 174.386719 141.335938 C 174.800781 142.183594 175.15625 142.996094 175.386719 143.78125 C 175.671875 144.542969 175.847656 145.269531 175.96875 145.917969 C 176.113281 146.5625 176.226562 147.121094 176.273438 147.59375 C 176.386719 148.527344 176.425781 149.054688 176.425781 149.054688 C 176.425781 149.054688 176.21875 148.554688 175.90625 147.683594 C 175.824219 147.441406 175.726562 147.171875 175.609375 146.882812 C 175.851562 147.664062 176.105469 148.398438 176.417969 149.050781 C 176.417969 149.050781 166.894531 150.175781 160.988281 147.3125 Z M 155.871094 118.183594 C 157.074219 117.210938 159.105469 116.585938 160.355469 116.574219 C 163.613281 116.542969 167.308594 117.296875 170.347656 118.449219 C 174.398438 119.980469 181.453125 123.53125 182.316406 128.347656 C 183.359375 134.679688 177.4375 131.773438 174.683594 129.449219 C 171.019531 126.347656 167.449219 125.113281 162.886719 124.191406 C 160.726562 123.753906 157.789062 123.019531 156.035156 121.652344 C 154.335938 120.332031 154.734375 119.101562 155.871094 118.183594 Z M 184.050781 160.542969 C 184.179688 159.734375 184.367188 158.902344 184.769531 158.183594 C 185.082031 157.421875 185.660156 156.820312 186.191406 156.269531 C 186.488281 156.023438 186.777344 155.777344 187.074219 155.558594 C 187.382812 155.367188 187.714844 155.222656 188.023438 155.066406 C 188.621094 154.707031 189.292969 154.664062 189.847656 154.496094 C 190.421875 154.378906 190.976562 154.414062 191.4375 154.390625 C 191.910156 154.339844 192.277344 154.480469 192.601562 154.511719 C 193.238281 154.632812 193.601562 154.703125 193.601562 154.703125 C 193.601562 154.703125 193.238281 154.769531 192.601562 154.890625 C 192.292969 154.960938 191.875 154.960938 191.476562 155.121094 C 191.070312 155.265625 190.609375 155.359375 190.140625 155.554688 C 189.691406 155.8125 189.144531 155.949219 188.707031 156.320312 C 188.480469 156.488281 188.230469 156.636719 188.011719 156.824219 C 187.816406 157.042969 187.605469 157.242188 187.394531 157.453125 C 187.027344 157.914062 186.660156 158.40625 186.441406 158.980469 C 186.152344 159.527344 186.035156 160.164062 185.949219 160.777344 C 185.9375 161.09375 185.878906 161.40625 185.882812 161.726562 L 185.960938 162.675781 C 186.113281 163.289062 186.164062 163.933594 186.4375 164.496094 C 186.636719 165.085938 186.925781 165.621094 187.207031 166.132812 C 187.480469 166.652344 187.867188 167.0625 188.148438 167.507812 C 188.472656 167.910156 188.824219 168.246094 189.105469 168.582031 C 189.386719 168.921875 189.703125 169.136719 189.933594 169.359375 C 190.410156 169.796875 190.683594 170.046875 190.683594 170.046875 C 190.683594 170.046875 190.335938 169.929688 189.730469 169.679688 C 189.433594 169.542969 189.027344 169.433594 188.660156 169.164062 C 188.277344 168.910156 187.808594 168.65625 187.367188 168.285156 C 186.957031 167.886719 186.433594 167.507812 186.039062 166.960938 C 185.621094 166.429688 185.179688 165.863281 184.890625 165.167969 C 184.519531 164.519531 184.3125 163.75 184.132812 162.980469 L 183.996094 161.773438 C 183.980469 161.363281 184.027344 160.953125 184.050781 160.542969 Z M 213.570312 128.851562 C 215.539062 124.371094 223.234375 122.582031 227.527344 122.046875 C 230.75 121.6875 239.875 122.046875 242.023438 124.910156 C 244.707031 129.386719 235.582031 129.386719 233.433594 129.386719 C 228.78125 129.207031 225.023438 129.566406 220.726562 131.714844 C 217.507812 133.324219 211.066406 134.757812 213.570312 128.851562 Z M 311.214844 145.921875 C 309.367188 143.144531 306.929688 141.136719 304.195312 139.855469 C 302.351562 138.992188 300.347656 138.445312 298.316406 138.214844 C 290.253906 137.328125 281.640625 141.410156 278.496094 148.976562 L 278.699219 155.335938 C 277.351562 152.191406 275.613281 148.558594 273.320312 144.480469 C 268.09375 135.160156 264.300781 115.925781 262.269531 103.492188 C 249.519531 98.917969 235.519531 95.519531 220.835938 94.222656 C 192.925781 91.765625 169.644531 91.542969 150.667969 92.003906 C 148.511719 100.390625 147.667969 110.453125 148.898438 122.429688 C 149.910156 132.28125 147.472656 147.972656 144.894531 156.875 C 138.769531 178.035156 147.105469 199.3125 165.820312 212.433594 C 167.269531 213.421875 168.753906 214.355469 170.269531 215.246094 C 170.292969 215.730469 170.320312 216.222656 170.347656 216.734375 C 173.792969 216.945312 180.0625 217.273438 188.191406 217.421875 C 188.191406 217.421875 188.832031 217.414062 189.941406 217.402344 C 191.046875 217.390625 193.644531 216.449219 194.410156 215.691406 C 195.890625 214.230469 197.058594 212.070312 198.410156 209.40625 C 201.769531 202.703125 204.167969 201.632812 210.886719 201.09375 C 215.175781 200.777344 219.292969 201.277344 223.585938 201.867188 C 228.070312 202.480469 230.789062 209.425781 232.5625 212.839844 C 233.25 214.171875 234.109375 214.941406 235.074219 215.367188 C 235.070312 215.328125 235.0625 215.289062 235.0625 215.25 L 235.0625 213.953125 C 235.0625 212.195312 236.488281 210.765625 238.25 210.765625 L 256.792969 210.765625 C 257.902344 210.765625 258.875 211.332031 259.445312 212.1875 C 260.804688 211.234375 262.175781 210.292969 263.484375 209.277344 C 272.582031 202.257812 278.140625 192.257812 283.335938 181.832031 C 300.582031 181.144531 323.558594 163.972656 311.214844 145.921875 "/><path style=" stroke:none;fill-rule:nonzero;fill:#d88780;fill-opacity:1;" d="M 255 292.820312 C 254.445312 292.074219 253.785156 291.59375 253.039062 291.324219 C 246.492188 303.71875 233.488281 312.175781 218.496094 312.175781 C 202.234375 312.175781 188.300781 302.226562 182.425781 288.085938 C 181.347656 288.410156 180.480469 289.359375 180.101562 291.265625 C 179.695312 293.320312 180.070312 295.421875 180.75 297.382812 C 182.210938 301.625 184.488281 306.199219 187.691406 309.417969 C 191.285156 313.03125 196.515625 314.246094 201.125 316.058594 C 202.257812 316.507812 201.765625 318.363281 200.613281 317.910156 C 194.535156 315.515625 188.300781 313.894531 184.335938 308.335938 C 181.03125 303.710938 177.621094 297.699219 178.0625 291.804688 C 178.253906 289.257812 179.742188 287.160156 181.773438 286.300781 C 181.277344 284.929688 180.859375 283.53125 180.519531 282.097656 C 177.785156 278.871094 174.464844 277.203125 171.351562 282.679688 C 171.195312 282.949219 171.042969 283.230469 170.890625 283.539062 C 170.695312 283.925781 170.550781 284.363281 170.429688 284.824219 C 169.921875 286.789062 170.039062 289.414062 170.546875 292.304688 C 170.796875 293.71875 171.140625 295.199219 171.550781 296.699219 C 172.335938 299.574219 173.359375 302.5 174.4375 305.1875 C 176.046875 309.203125 177.765625 312.671875 178.941406 314.5 L 180.484375 316.542969 C 187.332031 323.734375 210.984375 333.882812 210.984375 333.882812 C 210.984375 333.882812 211.28125 341.132812 212.144531 352.226562 C 213.46875 350.984375 214.847656 349.816406 216.261719 348.746094 C 219.621094 346.234375 223.140625 344.140625 226.554688 342.171875 C 228.261719 341.207031 229.945312 340.253906 231.59375 339.324219 C 233.214844 338.394531 234.875 337.464844 236.449219 336.636719 C 239.621094 334.925781 242.679688 333.375 245.535156 332.03125 C 246.992188 331.414062 248.363281 330.765625 249.707031 330.242188 C 251.066406 329.757812 252.351562 329.296875 253.5625 328.863281 C 254.160156 328.695312 254.730469 328.535156 255.289062 328.375 C 252.335938 321.597656 250.238281 316.867188 249.578125 315.386719 C 251.457031 312.625 253.171875 309.566406 254.421875 306.535156 C 256.621094 301.222656 257.386719 296.03125 255 292.820312 "/><path style=" stroke:none;fill-rule:nonzero;fill:#d88780;fill-opacity:1;" d="M 215.453125 273.089844 C 215.453125 271.40625 216.816406 270.039062 218.5 270.039062 C 220.183594 270.039062 221.546875 271.40625 221.546875 273.089844 C 221.546875 274.773438 220.183594 276.140625 218.5 276.140625 C 216.816406 276.140625 215.453125 274.773438 215.453125 273.089844 Z M 225.871094 273.089844 C 225.871094 269.015625 222.570312 265.714844 218.496094 265.714844 C 214.425781 265.714844 211.125 269.015625 211.125 273.089844 C 211.125 277.167969 214.425781 280.46875 218.496094 280.46875 C 222.570312 280.46875 225.871094 277.167969 225.871094 273.089844 "/><path style=" stroke:none;fill-rule:nonzero;fill:#d88780;fill-opacity:1;" d="M 129.570312 274.546875 C 129.636719 274.441406 129.644531 274.453125 129.683594 274.398438 L 130.058594 273.949219 C 130.296875 273.640625 130.625 273.335938 130.878906 273.070312 C 131.433594 272.519531 132.054688 271.964844 132.644531 271.472656 C 133.246094 270.984375 133.867188 270.460938 134.527344 270.039062 C 135.839844 269.148438 137.144531 268.246094 138.585938 267.574219 C 139.355469 267.25 140.085938 267.035156 140.890625 266.871094 C 141.292969 266.820312 141.648438 266.734375 142.082031 266.714844 L 143.261719 266.703125 C 144.042969 266.644531 144.875 266.773438 145.625 266.894531 C 146.410156 266.960938 147.175781 267.242188 147.9375 267.441406 C 148.707031 267.703125 149.398438 268.046875 150.125 268.347656 C 150.492188 268.496094 150.851562 268.65625 151.191406 268.871094 C 151.363281 268.984375 151.539062 269.03125 151.710938 269.199219 C 151.78125 269.261719 151.796875 269.398438 151.746094 269.535156 C 151.667969 269.640625 151.582031 269.675781 151.425781 269.660156 C 150.507812 269.402344 149.574219 269.246094 148.640625 269.058594 C 148.167969 268.960938 147.71875 268.875 147.238281 268.835938 C 146.765625 268.789062 146.296875 268.703125 145.824219 268.691406 L 144.40625 268.652344 C 143.949219 268.640625 143.464844 268.71875 142.992188 268.75 L 142.285156 268.808594 C 142.089844 268.828125 141.835938 268.917969 141.609375 268.964844 L 140.226562 269.308594 L 140.230469 269.308594 C 138.792969 269.835938 137.484375 270.785156 136.121094 271.550781 C 134.769531 272.363281 133.421875 273.144531 132.085938 273.980469 C 131.375 274.386719 130.84375 274.820312 129.984375 275.203125 C 129.96875 275.226562 129.777344 275.183594 129.679688 275.105469 L 129.605469 275.042969 C 129.582031 275.003906 129.609375 275.085938 129.550781 274.949219 L 129.542969 274.9375 L 129.523438 274.863281 C 129.503906 274.851562 129.515625 274.640625 129.570312 274.546875 Z M 152.113281 280.867188 C 152.71875 281.023438 153.191406 281.164062 153.484375 281.386719 C 153.679688 281.878906 153.15625 281.832031 153.226562 281.839844 C 153.226562 281.839844 152.515625 281.773438 151.28125 281.84375 C 150.660156 281.878906 149.917969 281.855469 149.0625 282.003906 C 148.207031 282.136719 147.226562 282.214844 146.191406 282.429688 C 145.167969 282.695312 144.066406 282.988281 142.890625 283.292969 C 141.753906 283.683594 140.546875 284.160156 139.339844 284.710938 C 138.230469 285.3125 136.917969 285.953125 135.828125 286.699219 C 135.28125 287.117188 134.660156 287.527344 134.164062 287.953125 L 133.777344 288.3125 L 133.679688 288.402344 L 133.664062 288.421875 C 133.726562 288.378906 133.566406 288.488281 133.574219 288.480469 L 133.558594 288.488281 L 133.5 288.515625 C 133.503906 288.558594 133.121094 288.601562 132.96875 288.367188 C 132.945312 288.304688 132.925781 288.332031 132.902344 288.207031 C 132.867188 288.125 132.925781 287.886719 132.945312 287.894531 L 133.332031 287.199219 C 134.125 285.960938 135.238281 284.949219 136.328125 284.105469 C 137.515625 283.277344 138.636719 282.550781 139.921875 282.015625 C 141.128906 281.507812 142.375 281.042969 143.5625 280.789062 C 144.148438 280.609375 144.753906 280.558594 145.328125 280.46875 C 145.894531 280.367188 146.464844 280.304688 146.996094 280.304688 C 148.058594 280.21875 149.03125 280.320312 149.925781 280.394531 C 150.769531 280.574219 151.507812 280.734375 152.113281 280.867188 Z M 156.085938 244.316406 C 150.578125 240.929688 141.480469 237.574219 134.328125 238.636719 C 133.585938 238.746094 132.855469 238.890625 132.164062 239.101562 C 128.425781 240.101562 122.664062 243.3125 118.503906 246.449219 C 117.1875 247.445312 116.035156 248.433594 115.160156 249.34375 C 115.175781 249.355469 115.195312 249.359375 115.203125 249.378906 C 115.265625 249.472656 115.230469 249.597656 115.140625 249.660156 L 115.128906 249.671875 C 115.128906 249.671875 114.957031 249.789062 114.636719 250.003906 C 105.371094 261.785156 105.175781 276.503906 108.96875 287.90625 C 108.972656 287.90625 108.972656 287.90625 108.976562 287.90625 C 109.109375 287.871094 109.246094 287.941406 109.296875 288.066406 C 109.296875 288.066406 109.757812 289.1875 110.566406 291.148438 C 111.371094 293.113281 112.621094 295.878906 114.15625 299.164062 C 115.695312 302.445312 117.652344 306.199219 120.011719 310.023438 C 120.042969 310.074219 120.082031 310.128906 120.113281 310.179688 L 124.839844 306.253906 C 128.105469 306.957031 131.34375 306.316406 134.546875 304.96875 C 134.949219 304.800781 135.355469 304.621094 135.753906 304.425781 C 135.757812 304.425781 135.761719 304.425781 135.765625 304.421875 C 141.613281 301.648438 147.34375 296.765625 152.898438 293.605469 L 156.28125 290.953125 C 160.300781 289.097656 158.96875 282.011719 155.042969 281.195312 C 158.683594 278.90625 159.113281 273.484375 155.335938 270.234375 C 154.328125 269.4375 152.960938 269.265625 152.960938 269.265625 C 159.21875 266.359375 157.4375 258.257812 151.902344 256.757812 C 151.886719 256.800781 151.929688 256.777344 151.835938 256.894531 L 151.808594 256.921875 L 151.757812 256.976562 C 151.695312 257.039062 151.472656 257.09375 151.394531 257.074219 L 151.085938 257.007812 L 149.871094 256.761719 C 149.058594 256.597656 148.25 256.433594 147.449219 256.269531 C 145.832031 255.957031 144.296875 255.320312 142.8125 255.015625 C 142.015625 254.886719 141.351562 254.652344 140.585938 254.71875 C 139.8125 254.734375 139.140625 254.667969 138.4375 254.859375 C 137.078125 255.167969 135.863281 255.773438 134.851562 256.457031 C 132.8125 257.902344 131.121094 259.085938 129.957031 259.960938 C 129.367188 260.398438 128.902344 260.699219 128.527344 260.902344 C 128.34375 261.019531 128.109375 260.707031 128.15625 260.644531 C 128.167969 260.523438 128.214844 260.457031 128.214844 260.457031 C 128.214844 260.457031 128.761719 259.832031 129.726562 258.738281 C 130.21875 258.207031 130.78125 257.515625 131.511719 256.816406 C 132.191406 256.066406 133.097656 255.351562 134.0625 254.546875 C 135.066406 253.816406 136.316406 253.15625 137.683594 252.765625 C 139.085938 252.351562 140.65625 252.339844 142.210938 252.671875 C 142.96875 252.890625 143.730469 252.964844 144.515625 253.304688 C 145.261719 253.597656 146.019531 253.894531 146.78125 254.195312 C 148.3125 254.773438 149.835938 255.460938 151.367188 256.09375 L 151.652344 256.214844 C 151.859375 256.359375 151.769531 256.324219 151.84375 256.382812 C 151.871094 256.40625 151.894531 256.519531 151.902344 256.628906 C 152.917969 256.648438 153.910156 256.574219 154.859375 256.308594 C 162.808594 254.121094 162.578125 248.445312 156.085938 244.316406 "/></g></svg>